<?xml version="1.0" standalone="no"?>
<!DOCTYPE svg PUBLIC "-//W3C//DTD SVG 1.1//EN" "http://www.w3.org/Graphics/SVG/1.1/DTD/svg11.dtd" >
<svg xmlns="http://www.w3.org/2000/svg" xmlns:xlink="http://www.w3.org/1999/xlink" version="1.1">
<metadata>
Created by FontForge 20170731 at Sun Aug 26 17:15:41 2001
 By Aleksey,,,
(c) Copyright 2001 by Tom Truong. All Rights Reserved
</metadata>
<defs>
<font id="UVNMuaThu" horiz-adv-x="840" >
  <font-face 
    font-family="UVN Mua Thu"
    font-weight="400"
    font-style="italic"
    font-stretch="normal"
    units-per-em="2048"
    panose-1="3 2 7 2 4 5 7 9 10 4"
    ascent="1638"
    descent="-410"
    x-height="694"
    cap-height="1415"
    bbox="-336 -600 2982 2070"
    underline-thickness="80"
    underline-position="-419"
    slope="-16"
    unicode-range="U+0020-F002"
  />
<missing-glyph horiz-adv-x="1024" 
d="M128 0v2070h768v-2070h-768zM256 128h512v1814h-512v-1814z" />
    <glyph glyph-name=".notdef" horiz-adv-x="1024" 
d="M128 0v2070h768v-2070h-768zM256 128h512v1814h-512v-1814z" />
    <glyph glyph-name=".null" horiz-adv-x="0" 
 />
    <glyph glyph-name="nonmarkingreturn" horiz-adv-x="473" 
 />
    <glyph glyph-name="space" unicode=" " horiz-adv-x="473" 
 />
    <glyph glyph-name="exclam" unicode="!" horiz-adv-x="682" 
d="M332 225l-21 2l-4 13l283 1012q9 32 38 34l126 8q20 1 20 -16q0 -8 -6 -22zM303 -8q-94 0 -94 37q0 108 31 108q1 0 33 -7q68 -15 75 -19q23 -16 23 -76q0 -43 -68 -43z" />
    <glyph glyph-name="quotedbl" unicode="&#x22;" horiz-adv-x="672" 
d="M514 868h-31l-61 455q-4 30 -4 43q0 96 82 96q80 0 80 -98q0 -4 -5 -41zM188 868h-30l-62 455q-4 29 -4 41q0 98 80 98q82 0 82 -96q0 -14 -4 -43z" />
    <glyph glyph-name="numbersign" unicode="#" horiz-adv-x="1575" 
d="M700 872l-104 -294h295l104 294h-295zM793 1454h114l-172 -483h295l172 483h113l-172 -483h315l-35 -99h-315l-102 -294h340l-37 -99h-340l-170 -479h-113l170 479h-293l-172 -479h-112l170 479h-332l37 99h329l105 294h-359l35 99h359z" />
    <glyph glyph-name="dollar" unicode="$" horiz-adv-x="948" 
d="M500 756l125 405q-5 0 -14.5 1t-14.5 1q-96 0 -157 -52q-64 -55 -64 -150q0 -68 125 -205zM340 37h4q128 0 212 70q91 75 91 200q0 119 -145 262zM229 -127l39 127q-206 36 -288 111l2 14l24 35h19q119 -93 258 -117l172 569q-201 194 -201 320q0 131 122 206
q103 64 242 64h17l35 109l63 12l-39 -127q140 -37 187 -80l2 -14l-21 -27l-12 -2q-105 65 -170 80l-133 -442q107 -108 151 -171q76 -109 76 -210q0 -163 -148 -255q-125 -77 -298 -79l-33 -111z" />
    <glyph glyph-name="percent" unicode="%" horiz-adv-x="1311" 
d="M926 16q115 0 195 185q67 152 67 286q0 162 -125 162q-145 0 -227 -276q-37 -124 -37 -191q0 -166 127 -166zM1245 457q0 -159 -85 -308q-98 -174 -245 -174q-94 0 -159 77q-60 73 -60 169q0 97 28 184q38 118 113 199q89 96 199 96q102 0 158 -72q51 -66 51 -171z
M524 971q-16 28 -16 73q0 84 67 196q-4 54 -36 90t-84 36q-119 0 -200 -186q-67 -153 -67 -291q0 -162 123 -162q139 0 213 244zM129 -145l-4 10q336 471 719 1173q-122 -120 -217 -120q-25 0 -49 8q-89 -238 -269 -238q-98 0 -162 76q-61 72 -61 172q0 97 28 184
q38 117 112 198q90 97 198 97q99 0 159 -76q56 -71 56 -172q0 -75 -37 -188q18 -12 39 -12q62 0 157 87q73 66 141 171q20 32 112 192l12 6h47l2 -10l-905 -1558h-78z" />
    <glyph glyph-name="ampersand" unicode="&#x26;" horiz-adv-x="1554" 
d="M967 219q-199 167 -324 344q-116 -7 -195 -91t-79 -200q0 -107 65.5 -168t173.5 -61q198 0 359 176zM1262 74q0 111 -146 270q-37 -62 -78 -111q122 -112 224 -159zM1004 260q57 59 83 119q-140 138 -307 166q77 -157 224 -285zM1001 193q-215 -213 -462 -213
q-131 0 -222 75q-98 81 -98 209q0 152 124 255q113 93 271 106q-69 122 -69 241q0 169 121 273q114 98 286 98q79 0 148 -25l-29 -67q-86 41 -151 41q-122 0 -186 -83q-58 -74 -58 -200q0 -138 67 -280q195 -47 363 -203q33 89 33 180q0 10 -2 36q-3 23 -2 36l362 12
q142 5 191 72l10 2l4 -8q-32 -122 -146 -163q-72 -26 -229 -26q-24 0 -71.5 2t-71.5 2q-12 -85 -45 -178q194 -237 239 -383l-6 -10q-118 2 -371 199z" />
    <glyph glyph-name="quotesingle" unicode="'" horiz-adv-x="346" 
d="M188 868h-30l-62 455q-4 29 -4 41q0 98 80 98t80 -96q0 -27 -2 -42z" />
    <glyph glyph-name="parenleft" unicode="(" horiz-adv-x="711" 
d="M449 -492l-21 -10l-10 8q-131 301 -131 689q0 604 565 1339l10 2l21 -10q-1 -3 -2 -8q-18 -31 -52 -92q-203 -371 -312 -726q-124 -405 -124 -768q0 -204 36 -345q7 -22 20 -66v-13z" />
    <glyph glyph-name="parenright" unicode=")" horiz-adv-x="711" 
d="M424 1516l2 12l20 8l11 -6q131 -305 131 -690q0 -601 -565 -1340l-11 -2l-20 10q1 5 2 11q18 31 52 93q204 371 312 726q123 402 123 764q0 247 -57 414z" />
    <glyph glyph-name="asterisk" unicode="*" horiz-adv-x="1024" 
d="M500 1139q-83 115 -226 225l-2 16l17 50l8 2q130 -106 248 -289q59 303 141 303q63 0 86 -7v-7q-166 -161 -192 -312q218 131 323 131q20 0 117 -51l2 -8q-304 -31 -424 -94q307 -109 307 -168q0 -48 -20 -94h-8q-48 119 -289 227q127 -202 127 -281q0 -12 -45 -110
l-8 -2q-25 250 -109 389q-68 -167 -68 -377l-8 -12h-43l-6 8v12q0 172 82 354q-128 -43 -285 -176h-16l-43 25l-2 10q134 107 352 191q-180 75 -362 75l-13 9l2 43l7 6q135 0 350 -88z" />
    <glyph glyph-name="plus" unicode="+" horiz-adv-x="1706" 
d="M805 1221h98v-562h549v-98h-549v-561h-98v561h-551v98h551v562z" />
    <glyph glyph-name="comma" unicode="," horiz-adv-x="473" 
d="M57 -209l15 49q166 95 166 170q0 41 -43 41q-13 0 -54 -14l-8 8q26 93 28 96q20 39 79 39q44 0 71 -28t27 -72q0 -146 -281 -289z" />
    <glyph glyph-name="hyphen" unicode="-" horiz-adv-x="883" 
d="M272 354l-6 15l29 86l14 8h459l10 -12l-24 -91l-13 -6h-469z" />
    <glyph glyph-name="hyphen" unicode="&#x2010;" horiz-adv-x="883" 
d="M272 354l-6 15l29 86l14 8h459l10 -12l-24 -91l-13 -6h-469z" />
    <glyph glyph-name="period" unicode="." horiz-adv-x="473" 
d="M201 -8q-95 0 -95 37q0 108 31 108q1 0 34 -7q22 -4 66 -13q31 -6 31 -82q0 -43 -67 -43z" />
    <glyph glyph-name="slash" unicode="/" horiz-adv-x="569" 
d="M121 -190h-88l-6 10l678 1601h53l8 -10z" />
    <glyph glyph-name="zero" unicode="0" horiz-adv-x="948" 
d="M217 301q0 -110 36 -185q48 -98 146 -98q135 0 241 216q72 146 111 336q33 160 33 300q0 299 -168 299q-149 0 -268 -277q-86 -198 -117 -408q-14 -95 -14 -183zM383 -23q-154 0 -240 139q-73 118 -73 281q0 178 78 375q81 206 206 322t250 116q152 0 222 -145
q53 -109 53 -279q0 -178 -54 -347q-57 -179 -157 -303q-129 -159 -285 -159z" />
    <glyph glyph-name="one" unicode="1" horiz-adv-x="948" 
d="M590 1020q-146 -161 -279 -258h-10l-12 18l2 13q87 77 248 241q31 44 62 87q44 60 73 63q62 6 67 6q13 0 13 -12q0 -2 -6 -22l-330 -1117q-6 -21 -11 -27q-8 -9 -26 -10q-84 -6 -88 -6q-19 0 -19 16q0 5 316 1008z" />
    <glyph glyph-name="two" unicode="2" horiz-adv-x="948" 
d="M168 98l-117 -114h-8l-23 16q-1 7 138 217q8 12 26 12q21 0 31 -4q457 500 457 770q0 144 -129 144q-108 0 -186 -112q-65 -93 -81 -212l-6 -8h-26l-8 12q17 153 103 261q98 124 243 124q105 0 175 -67t70 -172q0 -160 -565 -754q252 -119 318 -119q93 0 194 148l6 4
l19 -11l2 -8q-144 -250 -271 -250q-43 0 -176 51z" />
    <glyph glyph-name="three" unicode="3" horiz-adv-x="948" 
d="M55 27l-2 10l10 14l11 4q70 -32 155 -32q57 0 108 17q116 38 199 167q80 124 80 250q0 82 -52 131t-134 49q-46 0 -141 -29l-15 6l-6 19l4 10q385 174 385 385q0 49 -29 81t-77 32q-126 0 -246 -187h-10l-19 13l-2 12q139 229 328 229q85 0 142 -49t57 -133
q0 -200 -375 -342q139 0 230 -57q110 -68 110 -199q0 -171 -186 -332q-137 -119 -316 -119q-135 0 -209 50z" />
    <glyph glyph-name="four" unicode="4" horiz-adv-x="948" 
d="M598 393l-496 -14l-12 2l-6 16l4 15q139 187 243 347q140 214 201 341q29 60 60 67q133 29 135 29q18 0 18 -22q0 -48 -269 -373q-167 -202 -320 -373l456 10l72 263q7 25 32 28q79 10 83 10q14 0 14 -18q0 -6 -2 -14l-68 -263h52l12 -8l-4 -24l-10 -11l-62 -2l-92 -360
q-7 -27 -25 -31q-106 -22 -114 -22q-4 0 -7.5 3t-3.5 7q0 11 5 29z" />
    <glyph glyph-name="five" unicode="5" horiz-adv-x="948" 
d="M76 -2l-4 14l8 15l10 4q57 -19 123 -19q169 0 299 149q125 143 125 314q0 87 -45 143q-48 60 -133 60q-69 0 -159 -59.5t-91 -59.5q-16 0 -16 19q0 12 4 24l170 527q11 33 55 34l338 6q54 1 98 39l10 -4q-14 -95 -78.5 -132.5t-277.5 -37.5q-77 0 -129 2l-129 -399
q122 94 258 94q118 0 191 -68q75 -71 75 -188q0 -202 -185 -355q-176 -145 -382 -145q-89 0 -135 23z" />
    <glyph glyph-name="six" unicode="6" horiz-adv-x="948" 
d="M362 307l-6 -10l-20 -2l-8 12q7 146 74 260q82 138 216 138q94 0 150 -78q51 -71 51 -168q0 -171 -116 -321q-125 -161 -291 -161q-142 0 -222 97q-75 90 -75 235q0 239 186 511q150 219 377 407l12 2l21 -23l-6 -16q-192 -187 -316 -425q-139 -268 -139 -507
q0 -90 36 -154q44 -79 128 -79q104 0 187 134t83 320q0 160 -102 160q-92 0 -157 -125q-50 -96 -63 -207z" />
    <glyph glyph-name="seven" unicode="7" horiz-adv-x="948" 
d="M231 547l-6 15l29 86l14 8h288q179 226 304 378q-230 8 -321 8q-86 0 -122.5 -19.5t-61.5 -79.5q-22 -50 -46 -50q-12 0 -12 16q0 13 20 69q50 140 112 176q50 28 208 28q182 0 305 -17l25 21l12 2l12 -14v-15q-44 -69 -198 -283q-85 -119 -154 -220h88l10 -12l-24 -91
l-13 -6h-133q-83 -128 -152 -246q-76 -141 -162 -290q-9 -8 -147 -21q-14 -1 -20 14q1 54 384 543h-239z" />
    <glyph glyph-name="eight" unicode="8" horiz-adv-x="948" 
d="M600 637q160 162 160 348q0 77 -37 125q-40 53 -115 53q-74 0 -122 -51.5t-48 -126.5q0 -96 162 -348zM426 659q-231 -208 -231 -411q0 -97 47 -159q53 -69 147 -69q97 0 159 72q58 69 58 168q0 120 -180 399zM403 698q-86 129 -86 244q0 116 82 191q79 73 197 73
q109 0 175 -60q67 -63 67 -171q0 -145 -213 -381q108 -169 108 -303q0 -135 -99.5 -224.5t-236.5 -89.5q-124 0 -209 69q-90 75 -90 196q0 179 305 456z" />
    <glyph glyph-name="nine" unicode="9" horiz-adv-x="948" 
d="M297 -49l-8 2l-15 20l5 13q423 355 423 880q0 295 -167 295q-89 0 -168 -85q-67 -71 -100 -167q-25 -73 -25 -149q0 -205 145 -205q92 0 153 104q45 77 64 187l6 6l23 -2l6 -10q-19 -145 -86 -260q-86 -146 -211 -146q-94 0 -150 76q-51 69 -51 166q0 170 123 342
q133 188 295 188q140 0 219 -129q68 -110 68 -258q0 -202 -184 -490t-365 -378z" />
    <glyph glyph-name="colon" unicode=":" horiz-adv-x="522" 
d="M385 537q-96 0 -96 38q0 107 30 107q4 0 52 -9q16 -3 48 -9.5t32 -81.5q0 -45 -66 -45zM225 -8q-96 0 -96 37q0 108 31 108q1 0 34 -7q22 -4 66 -13q31 -6 31 -82q0 -43 -66 -43z" />
    <glyph glyph-name="semicolon" unicode=";" horiz-adv-x="522" 
d="M414 537q-97 0 -97 38q0 107 31 107q3 0 51 -9q19 -3 39.5 -7t27.5 -20q13 -26 13 -64q0 -45 -65 -45zM82 -209l12 49q168 94 168 170q0 41 -45 41q-9 0 -51 -14l-8 8q24 92 27 96q20 39 79 39q44 0 71 -28t27 -72q0 -147 -280 -289z" />
    <glyph glyph-name="less" unicode="&#x3c;" horiz-adv-x="1706" 
d="M1442 1135v-109l-1022 -416l1022 -413v-109l-1178 481v82z" />
    <glyph glyph-name="equal" unicode="=" horiz-adv-x="1706" 
d="M254 473h1198v-98h-1198v98zM254 846h1198v-98h-1198v98z" />
    <glyph glyph-name="greater" unicode="&#x3e;" horiz-adv-x="1706" 
d="M264 1135l1178 -484v-82l-1178 -481v109l1022 413l-1022 416v109z" />
    <glyph glyph-name="question" unicode="?" horiz-adv-x="797" 
d="M326 -8q-97 0 -97 37q0 108 31 108q1 0 34 -7q22 -4 66 -13q31 -6 31 -82q0 -43 -65 -43zM338 213l-10 -6l-25 8v14q0 42 120 274q234 453 234 632q0 184 -145 184q-186 0 -268 -344l-6 -8l-27 2l-4 10q29 162 104 266q93 129 240 129q113 0 184.5 -77.5t71.5 -190.5
q0 -167 -258 -526q-90 -125 -121 -175q-62 -102 -90 -192z" />
    <glyph glyph-name="at" unicode="@" horiz-adv-x="2019" 
d="M1192 340q-120 -215 -311 -215q-132 0 -206 105q-65 93 -65 231q0 189 145 363q152 182 337 182q176 0 221 -199l55 182h131l-170 -606q-18 -64 -18 -104q0 -111 100 -111q46 0 109 30q148 72 234 244q77 156 77 334q0 298 -207 470q-194 161 -498 161q-387 0 -631 -259
q-239 -254 -239 -642q0 -176 56 -304q91 -210 315 -328q204 -107 448 -107q338 0 617 208l30 -34q-297 -220 -653 -220q-189 0 -340 46q-267 81 -423 286q-159 208 -159 484q0 289 177 527q173 234 450 331q158 55 340 55q331 0 539 -174q221 -186 221 -510q0 -157 -58 -295
t-164 -234q-122 -112 -255 -112q-193 0 -205 215zM1094 969q-55 0 -101 -31q-96 -64 -177 -254q-77 -179 -77 -305q0 -85 35 -142q43 -67 123 -67q155 0 272 218q101 189 101 360q0 86 -44 149q-49 72 -132 72z" />
    <glyph glyph-name="A" unicode="A" horiz-adv-x="2232" 
d="M1532 717q-291 172 -518 172q-113 0 -194 -39q-105 -51 -105 -152q0 -150 216 -235q147 -58 343 -72q85 81 258 326zM2154 1321q-121 -39 -487 -637q60 -42 176 -129q175 568 311 766zM1917 420q-23 -88 -23 -166q0 -147 86 -211q31 66 31 145q0 128 -94 232zM1931 483
q142 -172 142 -374q0 -150 -31 -150q-8 0 -37 18q-197 122 -197 357q0 74 25 168q-87 74 -193 141q-108 -159 -192 -254h49q23 0 125 4l10 -8l2 -20l-9 -8q-59 -11 -218 -11q-354 -356 -727 -356q-183 0 -302 70q-122 71 -122 169q0 89 80 135q65 37 160 37q165 0 311 -84
l4 -14l-8 -16l-12 -4q-141 63 -234 63q-174 0 -174 -137q0 -90 113 -140q88 -38 192 -38q250 0 551 319q-220 22 -383 95q-233 103 -233 276q0 115 112 173q89 46 215 46q300 0 609 -184q144 218 306 395q244 264 394 264q27 0 27 -24q0 -19 -124 -321q-127 -307 -231 -587z
" />
    <glyph glyph-name="B" unicode="B" horiz-adv-x="2163" 
d="M918 199q122 123 190 351q55 189 61 400q-266 -272 -266 -645q0 -65 15 -106zM772 -23l-10 3q-8 26 -8 53q0 108 30 248q97 457 385 731q-16 177 -155 272q-123 84 -309 84q-176 0 -301 -74q-150 -90 -150 -254q0 -120 94 -183q81 -54 207 -54q152 0 342 88l14 -6l9 -19
l-7 -14q-184 -102 -403 -102q-154 0 -257 67q-120 79 -120 225q0 162 166 269q163 106 426 106q201 0 349 -66q185 -82 231 -251q361 321 565 321q75 0 124 -38q54 -42 54 -115q0 -151 -377 -500q160 -3 253 -78q101 -83 101 -239q0 -192 -148 -354q-151 -167 -341 -167
q-79 0 -129 42q-53 44 -53 122q0 117 112 211q93 78 222 113l14 -4l4 -19l-4 -10q-96 -41 -162 -123q-72 -90 -72 -188q0 -43 25.5 -72t67.5 -29q88 0 177 105q71 85 108.5 187.5t37.5 207.5q0 223 -260 250q-248 -236 -375 -291l-8 6q88 282 356 322q306 308 306 452
q0 107 -127 107q-186 0 -465 -283q0 -127 -56 -296q-68 -206 -193 -419q-150 -257 -290 -344z" />
    <glyph glyph-name="C" unicode="C" horiz-adv-x="1651" 
d="M696 739q97 273 324 484q-167 53 -371 53q-167 0 -293 -55q-166 -74 -166 -220q0 -151 190 -217q126 -43 316 -45zM1139 1229q205 -96 256 -256q180 165 180 307q0 131 -129 131q-146 0 -307 -182zM866 745q285 40 492 189q-40 172 -246 260q-149 -195 -246 -449z
M684 694q-614 22 -614 324q0 166 199 246q144 57 341 57q231 0 447 -66q229 201 409 201q92 0 148 -50q59 -53 59 -144q0 -203 -266 -377q0 -311 -412 -439l-10 7l-6 18l8 10q371 130 371 377q-219 -120 -510 -160q-35 -117 -35 -256q0 -191 102 -302q105 -115 295 -115
q201 0 400 189q124 118 284 359q7 -19 7 -28q0 -59 -166 -256q-265 -314 -566 -314q-226 0 -370 139t-144 365q0 99 29 215z" />
    <glyph glyph-name="D" unicode="D" horiz-adv-x="1890" 
d="M739 129q-85 25 -176 25q-171 0 -272 -107q62 -24 137 -24q193 0 311 106zM901 383q66 132 191 543q-180 80 -351 80q-131 0 -249 -48l-15 3l-6 18l4 12q122 62 279 62q172 0 354 -86q39 117 92 223q-244 123 -475 123q-197 0 -324 -106q-135 -113 -135 -306
q0 -209 223 -355q164 -108 412 -163zM1030 373q19 -4 70 -4q116 0 190 52q84 60 84 171q0 146 -166 258q-93 -334 -178 -477zM866 135q160 -67 297 -67q220 0 355 130t135 349q0 175 -97 333q-91 148 -245 250q-50 -116 -84 -233q194 -141 194 -305q0 -136 -105 -206
q-91 -60 -233 -60q-58 0 -77 4q-54 -88 -140 -195zM829 100q-140 -116 -376 -116q-192 0 -314 59v12q122 150 375 150q127 0 266 -41q32 32 103 178q-292 63 -485 187q-265 169 -265 413q0 181 154 302.5t395 121.5q253 0 545 -135q171 221 428 239l10 -8v-18l-10 -10
q-229 -49 -328 -256q438 -321 438 -684q0 -214 -148 -362t-362 -148q-170 0 -426 116z" />
    <glyph glyph-name="E" unicode="E" horiz-adv-x="1731" 
d="M1155 940q459 138 459 317q0 121 -139 121q-138 0 -250 -85q-121 -92 -121 -226q0 -78 51 -127zM1294 799q-138 12 -239 78q-242 -64 -443 -64q-194 0 -331 56q-189 77 -189 243q0 154 170 234q131 61 305 61q182 0 404 -61l6 -11l-4 -18l-12 -4q-202 53 -361 53
q-151 0 -248 -55q-121 -69 -121 -209t143 -203q104 -45 265 -45q175 0 385 55q-68 60 -68 158q0 146 199 264q148 88 352 88q217 0 217 -143q0 -196 -540 -367q79 -63 229 -92l8 -10v-21l-10 -6q-311 -45 -498 -187q-190 -145 -190 -327q0 -132 105 -199q88 -57 227 -57
q176 0 300 84t124 195q0 71 -54 110q-48 35 -122 35q-142 0 -369 -166l-10 2l-11 15l2 12q269 209 467 209q88 0 152 -43q74 -49 74 -133q0 -112 -131 -213q-102 -78 -234 -121q-118 -37 -242 -37q-173 0 -294 70q-148 85 -148 245q0 184 199.5 328.5t535.5 196.5z" />
    <glyph glyph-name="F" unicode="F" horiz-adv-x="1284" 
d="M774 930l14 -2l13 -21l-8 -16q-169 -103 -336 -103q-130 0 -212 71q-87 76 -87 204q0 206 223 300q160 67 399 67q80 0 241 -6.5t241 -6.5q79 0 146 29q4 2 11 4q5 0 10 -2q3 -7 3 -12q0 -13 -82 -95q-24 -25 -46 -34t-83 -9q-108 0 -324 16.5t-324 16.5q-150 0 -250 -59
q-122 -73 -122 -213q0 -108 77 -171q71 -59 181 -59q136 0 315 101zM1110 590q-113 -386 -396 -553q-102 -60 -171 -60q-61 0 -99 33q-41 34 -41 94q0 148 256 332l15 2l12 -14l-4 -12q-182 -151 -182 -226q0 -102 131 -102q259 0 360 509q-140 7 -154 8q-89 7 -151 24l6 22
q181 0 314 7q28 105 70 297q19 85 33 134q31 106 58 117q97 41 103 41q14 0 14 -20q0 -17 -85 -321l-66 -236q10 0 79 6q10 1 46 6q28 4 45 4h6l2 -4q0 -45 -56 -71q-45 -21 -96 -21q-3 0 -49 4z" />
    <glyph glyph-name="G" unicode="G" horiz-adv-x="2218" 
d="M842 449q32 208 211 454q-200 53 -348 53q-160 0 -279 -55q-154 -73 -154 -215q0 -135 133 -201q102 -51 252 -51q80 0 185 15zM1006 475q301 59 503 162q196 100 334 227q187 174 187 338q0 160 -162 160q-155 0 -359 -169q-148 -123 -284 -298q70 -25 159 -61l7 -17
l-13 -20h-10q-61 27 -174 61q-129 -170 -188 -383zM1903 360q-429 -372 -725 -372q-159 0 -253 111q-89 104 -89 266q0 7 1 20t1 20q-102 -14 -199 -14q-185 0 -318 65q-171 83 -171 249q0 161 169 243q131 64 310 64q192 0 454 -72q165 196 373 325q244 150 465 150
q244 0 244 -203q0 -191 -277 -400q-204 -155 -453 -254q-203 -81 -441 -128q-11 -41 -11 -115q0 -126 68.5 -197t193.5 -71q308 0 809 516l10 -2q-78 -695 -270 -947q-57 -73 -152 -149q-62 -49 -92 -49q-32 0 -32 88q0 192 149 377l10 2l15 -8l2 -12q-82 -133 -82 -230
q0 -60 27 -114q91 49 148 217q55 163 116 624z" />
    <glyph glyph-name="H" unicode="H" horiz-adv-x="2048" 
d="M1090 588q-309 -141 -416 -516q249 35 416 516zM1726 846q273 136 273 422q-169 -135 -273 -422zM1241 633q-181 -470 -580 -623q-91 -35 -135 -35q-26 0 -26 17q0 28 40 105q86 164 243 316q154 150 323 234q27 133 27 240q0 456 -455 456q-211 0 -348 -99.5
t-137 -246.5q0 -191 196 -282q147 -68 363 -68l12 -10v-23l-8 -10q-260 0 -442 75q-251 104 -251 327q0 168 166 276.5t437 108.5q268 0 430 -113q188 -130 188 -387q0 -101 -29 -211q167 28 316 90q147 278 327.5 471t249.5 193q19 0 19 -27q0 -55 -44 -163
q-131 -320 -415 -464q-121 -347 -121 -547q0 -208 160 -208q180 0 549 534q10 -10 10 -24q0 -51 -162 -259q-239 -307 -415 -307q-135 0 -208 111q-63 95 -63 237q0 184 82 390q-179 -55 -299 -74z" />
    <glyph glyph-name="I" unicode="I" horiz-adv-x="1532" 
d="M1139 1090q-228 -27 -463 -256h37q146 0 255 61q121 67 171 195zM1272 1128q-77 -162 -241 -257q-158 -92 -342 -92q-30 0 -60 3q-100 -130 -178 -286l-13 -7l-18 9l-4 12q49 132 164 281q-130 14 -223 81q-111 78 -111 199q0 142 175 243t445 101q263 0 423 -121
q179 -134 179 -389q0 -167 -73 -364q-152 -410 -490 -580q-144 -72 -274 -72q-89 0 -146 34q-71 41 -71 124q0 96 94 165q80 59 184 75l10 -6l3 -15l-3 -12q-176 -54 -176 -170q0 -67 56 -104q47 -31 118 -31q101 0 203 58q198 112 310 389q98 240 98 499q0 134 -39 233z
M1262 1151q-101 219 -426 219q-204 0 -336.5 -84.5t-132.5 -206.5q0 -183 251 -239q315 313 607 313q6 0 18.5 -1t18.5 -1z" />
    <glyph glyph-name="J" unicode="J" horiz-adv-x="1446" 
d="M569 899q177 237 537 350q-115 125 -373 125q-164 0 -289 -58q-161 -76 -161 -222q0 -195 286 -195zM1169 1212q-352 -69 -536 -303q380 47 536 303zM459 -471q90 41 195 137q237 218 392 584q154 362 154 688q0 81 -22 167q-256 -209 -582 -251q-115 -159 -162 -342
l-8 -10l-23 4l-6 14q33 166 140 330q-373 0 -373 223q0 140 163.5 242t407.5 102q305 0 457 -141q97 35 135 35q18 0 39 -7l6 -12q-15 -37 -102 -108q76 -118 76 -295q0 -169 -76 -385q-99 -282 -282 -536q-189 -262 -423 -434q-137 -99 -241 -126l-8 10q6 315 440 594h12
l8 -16l-2 -12q-317 -234 -317 -426q0 -19 2 -29z" />
    <glyph glyph-name="K" unicode="K" horiz-adv-x="2048" 
d="M997 707q-327 -251 -376 -625q268 134 376 625zM1010 778q59 273 59 352q0 259 -375 259q-152 0 -258 -47q-143 -62 -143 -195q0 -99 90 -149q72 -40 180 -40q84 0 217 27l15 -8l6 -21l-10 -10q-134 -35 -261 -35q-133 0 -227 50q-119 62 -119 184q0 155 187 231
q138 56 319 56q522 0 522 -371q0 -150 -108 -404q-103 -243 -250 -421q-183 -222 -389 -281l-6 6q57 385 551 817zM1186 629q76 37 125 37q109 0 195 -144q28 -47 106 -241q93 -230 170 -230q124 0 461 504q12 -14 12 -29q0 -46 -168 -260q-117 -149 -200 -213
q-88 -69 -156 -69q-95 0 -187 158l-144 292q-80 158 -143 158q-47 0 -153 -66l-6 6q7 75 113 220q245 336 621 564q179 109 222 109q17 0 17 -24q0 -88 -31 -135q-10 -15 -116 -53q-476 -170 -738 -584z" />
    <glyph glyph-name="L" unicode="L" horiz-adv-x="2032" 
d="M936 141q-80 43 -168 43q-123 0 -240 -123q48 -28 119 -28q191 0 289 108zM1286 690q81 25 162 73q223 132 362 338q76 114 76 181q0 127 -121 127q-276 0 -479 -719zM993 117q-135 -123 -325 -123q-182 0 -336 102v10q176 119 385 119q129 0 246 -45q55 71 157 418
q-206 -47 -434 -47q-240 0 -396 54q-235 81 -235 274q0 192 230 282q164 64 393 64q206 0 414 -37l8 -12l-2 -19l-11 -8q-247 35 -395 35q-193 0 -333 -59q-191 -80 -191 -246q0 -164 210 -235q140 -48 345 -48q179 0 416 51q76 310 194 508q174 293 416 293q199 0 199 -188
q0 -196 -250 -387q-182 -140 -426 -234q-109 -314 -244 -481q331 -129 631 -129q199 0 199 108q0 66 -64 99q-51 26 -123 26q-98 0 -178 -37l-10 2l-6 17l6 12q82 47 190 47q92 0 154 -41q71 -47 71 -135q0 -107 -94 -162q-77 -45 -192 -45q-231 0 -619 197z" />
    <glyph glyph-name="M" unicode="M" horiz-adv-x="2261" 
d="M743 426q454 877 693 877q116 0 116 -144q0 -31 -34 -158l-164 -614q144 282 301 515q260 386 405 386q50 0 80.5 -36t30.5 -87q0 -53 -115 -379q-108 -306 -111 -314q-67 -211 -67 -320q0 -148 100 -148q129 0 461 510q10 -16 10 -33q0 -49 -141 -233
q-129 -168 -192 -222q-89 -77 -166 -77q-93 0 -145 71q-46 64 -46 160q0 131 83 387q24 76 137 381q65 176 65 215q0 49 -37 49q-63 0 -214 -188.5t-318 -488.5q-98 -177 -216 -480q-23 -60 -54 -63q-61 -6 -81 -6q-24 0 -24 16q0 10 6 31l270 928q49 168 49 223
q0 45 -45 45q-53 0 -175 -141q-163 -189 -322 -481q-156 -288 -232 -534q-22 -70 -61 -75q-66 -8 -82 -8q-23 0 -23 18q0 7 9 37l270 897q29 96 29 166q0 112 -65.5 175t-178.5 63q-137 0 -231 -77q-101 -82 -101 -216q0 -88 52 -144.5t139 -56.5q55 0 118 25l11 -5l6 -12
l-6 -10q-82 -39 -172 -39q-110 0 -174 54q-70 58 -70 165q0 151 145 257q133 97 289 97q144 0 246 -83q110 -89 110 -230q0 -108 -76 -351z" />
    <glyph glyph-name="N" unicode="N" horiz-adv-x="2169" 
d="M850 27l231 874q29 110 29 180q0 285 -375 285q-184 0 -321 -69q-174 -87 -174 -253q0 -118 100 -182q84 -53 209 -53q134 0 280 68l15 -5l6 -14l-6 -16q-146 -82 -326 -82q-150 0 -257 68q-126 80 -126 221q0 157 163 258q160 100 427 100q211 0 344 -64
q178 -86 178 -274q0 -99 -63 -333l-92 -314q284 503 460.5 714.5t307.5 211.5q77 0 124.5 -43t47.5 -119q0 -60 -97 -334q-202 -572 -202 -715q0 -60 27 -101q31 -46 89 -46q80 0 195 122q111 117 330 447q8 -24 8 -43q0 -28 -117 -190q-178 -247 -262 -312
q-92 -71 -191 -71q-89 0 -148 67q-56 64 -56 154q0 106 68 326q18 58 110 325q112 323 112 402q0 73 -73 73q-131 0 -390 -382q-176 -260 -305 -516q-72 -143 -119 -296q-27 -88 -67 -94q-68 -10 -78 -10q-7 0 -12.5 13.5t-3.5 21.5z" />
    <glyph glyph-name="O" unicode="O" horiz-adv-x="1790" 
d="M1069 41q-213 121 -213 375q-59 -13 -174 -13q-72 0 -113 9q0 -6 -1 -17.5t-1 -17.5q0 -165 99 -265t264 -100q67 0 139 29zM1122 61q216 101 367 377q143 262 143 512q0 65 -28 109q-155 -440 -625 -607q-10 -66 -10 -114q0 -195 153 -277zM987 500q210 74 363 227
q158 159 219 367q-39 41 -105 41q-114 0 -255 -179.5t-222 -455.5zM574 455q69 -15 126 -15q73 0 158 17q15 114 60 225q71 173 204 319q163 177 318 177q67 0 139 -45q4 24 4 47q0 102 -83 162q-74 55 -179 55q-237 0 -447 -271q70 -16 117 -32l8 -11l-6 -16l-12 -2
q-19 0 -65 9q-51 10 -68 11q-208 -281 -274 -630zM434 489q44 334 260 605q-14 0 -43 2t-43 2q-172 0 -292 -69q-146 -85 -146 -245q0 -199 264 -295zM1118 14q-102 -41 -203 -41q-205 0 -337.5 129.5t-143.5 335.5q-364 130 -364 365q0 148 148.5 245t389.5 97q53 0 123 -6
q289 303 590 303q129 0 212 -65q91 -71 91 -197q0 -38 -8 -76q80 -86 80 -252q0 -229 -159 -469q-153 -231 -363 -342q52 -25 118 -25q176 0 376 183q111 101 286 327q6 -10 6 -22q0 -48 -137 -201t-236 -223q-147 -103 -301 -103q-86 0 -168 37z" />
    <glyph glyph-name="P" unicode="P" horiz-adv-x="1688" 
d="M1053 647q34 111 69 223q44 135 86 215q-77 17 -159 17q-220 0 -426 -88l-17 4l-4 18l8 13q208 94 451 94q63 0 170 -15q42 75 131 172q-158 64 -416 64q-286 0 -470.5 -117t-184.5 -291q0 -179 177 -266q136 -67 335 -67q120 0 250 24zM1206 684q85 21 145 75
q68 63 68 144q0 101 -106 146q-37 -121 -107 -365zM1129 443q225 4 370 120q158 127 158 346q0 242 -230 367q-67 -83 -98 -182q170 -77 170 -211q0 -182 -307 -256q-22 -61 -63 -184zM606 266l-8 -10q-211 -10 -211 -127q0 -68 69 -106q56 -31 130 -31q149 0 252 140
q65 88 132 274q-69 9 -148 28l-7 10l6 17l10 6q88 -16 158 -18q30 75 49 147q-147 -21 -260 -21q-284 0 -453 104.5t-169 274.5q0 119 104 230q213 227 678 227q257 0 471 -68q26 18 68 37l18 -4l14 -10l-2 -12q-12 -11 -37 -33q295 -136 295 -395q0 -251 -210 -396
q-181 -126 -447 -133q-180 -440 -535 -440q-123 0 -211 58t-88 130q0 81 100 119q72 27 169 27q40 0 56 -3l7 -7v-15z" />
    <glyph glyph-name="Q" unicode="Q" horiz-adv-x="1896" 
d="M662 676q69 249 249 457q-130 16 -215 16q-148 0 -268 -45q-164 -61 -164 -184q0 -128 143 -194q110 -50 255 -50zM819 682q133 12 262 51q222 418 512 418q8 0 29 -3q18 -2 28 -1q23 59 23 98q0 152 -174 152q-234 0 -433 -252q-143 -182 -247 -463zM1196 770
q258 90 423 335q-8 3 -30 3q-205 0 -393 -338zM1065 127q82 131 199 131q96 0 178 -90q138 145 224 329q93 199 93 384q0 170 -92 213q-177 -263 -498 -379q-122 -279 -122 -475q0 -61 18 -113zM1358 106q-57 82 -129 82q-51 0 -89 -33q-32 -34 -65 -69l-18 -4l-15 4
q-57 67 -57 266q0 158 74 334q-159 -38 -254 -47q-27 -118 -27 -209q0 -171 83 -285q92 -127 257 -127q124 0 240 88zM2093 -469l-2 -12q-106 -84 -221 -84q-140 0 -242 138q-63 83 -133 262q-57 144 -106 228q-146 -83 -283 -83q-214 0 -343 154q-122 145 -122 362
q0 68 8 134q-185 8 -310 59q-181 75 -181 226q0 160 200 230q135 47 332 47q109 0 254 -21q299 269 541 269q233 0 233 -195q0 -42 -26 -110q176 -80 176 -314q0 -366 -393 -692q68 -117 128 -267q51 -128 77 -181q55 -110 113 -157q51 -42 118 -42q59 0 160 63h12z" />
    <glyph glyph-name="R" unicode="R" horiz-adv-x="2142" 
d="M930 142q261 313 295 767q-310 -287 -310 -651q0 -66 15 -116zM827 -33h-10q-22 24 -22 123q0 451 434 883q-29 206 -183 314q-141 99 -358 99q-173 0 -303 -72q-158 -87 -158 -247q0 -129 97 -199q85 -61 219 -61q224 0 528 160l14 -2l7 -13l-5 -16q-307 -180 -604 -180
q-156 0 -261 67q-122 80 -122 228q0 168 164 274.5t434 106.5q226 0 399 -75q224 -98 251 -290q340 293 530 293q83 0 134.5 -45t51.5 -127q0 -260 -497 -580q50 -44 91 -121.5t81 -208.5q35 -113 47 -140q42 -97 94 -97q125 0 467 508q6 -24 6 -39q0 -46 -150 -232
q-139 -171 -204 -224q-88 -72 -162 -72q-90 0 -157 122q-31 58 -98 250q-55 160 -99 207q-85 -32 -209 -67l-4 8q9 22 28 67q32 74 154 74q34 0 74 -10q153 91 263 204q148 151 148 283q0 67 -48 107q-45 37 -113 37q-150 0 -422 -250q0 -167 -133 -459q-117 -256 -243 -423
q-76 -101 -151 -165z" />
    <glyph glyph-name="S" unicode="S" horiz-adv-x="1384" 
d="M850 489l12 -8l2 -20l-10 -12q-471 0 -471 -250q0 -95 95 -144q74 -39 179 -39q197 0 333 107t136 250q0 115 -117 245l-216 218q-117 131 -117 251q0 145 150 252t368 107q104 0 176 -34q96 -44 96 -136q0 -106 -130 -162q-100 -43 -222 -43q-27 0 -71 4l-11 8v17l8 10
q293 0 293 164q0 123 -184 123q-125 0 -227 -68q-115 -76 -115 -196q0 -111 139 -252l182 -185q132 -134 132 -278q0 -70 -38 -143q-76 -146 -253 -229q-158 -73 -338 -73q-149 0 -257 48q-143 65 -143 196q0 272 619 272z" />
    <glyph glyph-name="T" unicode="T" horiz-adv-x="1763" 
d="M880 806q-102 -5 -145 -5q-207 0 -351 64q-194 87 -194 268q0 145 105 230q98 79 246 79q111 0 407 -82q386 -107 527 -107q176 0 366 111h14l13 -14l-2 -17q-238 -170 -561 -170q-127 0 -298 38q-41 9 -292 75q-225 59 -283 59q-87 0 -140.5 -57t-53.5 -145
q0 -159 181 -235q134 -56 318 -56q66 0 170 10q99 143 133 170q20 16 207 115l4 -9q-71 -86 -188 -251q149 18 311 67l10 -4l7 -22l-9 -13q-133 -50 -354 -82q-178 -304 -178 -538q0 -137 69 -223q75 -93 209 -93q164 0 296 148q128 143 128 309q0 139 -110 139t-209 -105
q-81 -85 -129 -206l-10 -6l-17 2l-8 14q43 131 137 227q108 111 232 111q90 0 141 -59t51 -150q0 -137 -108 -268q-103 -124 -238 -170q-77 -25 -154 -25q-181 0 -291 125q-106 120 -106 303q0 224 147 448z" />
    <glyph glyph-name="U" unicode="U" horiz-adv-x="2198" 
d="M1729 391q-310 -416 -594 -416q-82 0 -136 44q-57 48 -57 128q0 68 41 195l174 537q39 120 39 192q0 172 -158 259q-126 69 -313 69q-168 0 -282 -58q-148 -74 -148 -225t161 -228q124 -59 294 -59q27 0 111 6l9 -6l2 -16l-6 -14q-62 -11 -149 -11q-247 0 -397 99.5
t-150 255.5q0 167 162 250q126 65 311 65q139 0 267 -32q170 -44 281 -127q144 -107 144 -255q0 -70 -67 -270l-160 -477q-29 -86 -29 -150q0 -50 44 -81q39 -27 91 -27q216 0 539 457q182 701 408 895l12 -1q6 -20 6 -40q0 -131 -77 -337q-70 -187 -183 -363
q-10 -13 -25 -38q-1 -3 -20 -78q-25 -107 -38 -180q-19 -103 -19 -168q0 -159 92 -159q117 0 483 505q8 -16 8 -26q0 -33 -117 -189q-262 -350 -415 -350q-164 0 -164 226q0 82 25 198z" />
    <glyph glyph-name="V" unicode="V" horiz-adv-x="1782" 
d="M1114 -72l-16 13l84 971q6 69 6 126q0 344 -461 344q-178 0 -300 -63q-155 -80 -155 -242q0 -147 148 -219q113 -55 278 -55q56 0 148 12l12 -4l4 -23l-6 -12q-86 -18 -186 -18q-202 0 -339 66q-179 87 -179 268q0 183 193 269q143 64 351 64q284 0 433 -88
q190 -112 190 -376q0 -109 -8 -191q-38 -393 -74 -672q580 578 580 1176q0 44 -2 70l141 114l14 -4q6 -20 6 -43q0 -66 -32 -201q-38 -162 -93 -297q-107 -266 -311 -535q-194 -256 -426 -450z" />
    <glyph glyph-name="W" unicode="W" horiz-adv-x="2181" 
d="M887 -39l-10 8q-11 42 -11 70q0 199 48.5 551.5t48.5 492.5q0 287 -295 287q-139 0 -246 -70q-121 -80 -121 -213q0 -116 98 -179q83 -54 205 -54q38 0 90 6l11 -6l2 -20l-9 -11q-52 -12 -108 -12q-165 0 -272 65q-130 79 -130 234q0 165 145 244q115 63 294 63
q479 0 479 -342q0 -87 -43.5 -402t-54.5 -538q158 165 301 408q106 180 197 392q26 58 61 152l6 106q6 85 26 91q100 29 105 29q16 0 16 -29q0 -21 -12 -111q-51 -384 -51 -716q0 -230 31 -348q464 532 464 1101q0 16 -3 47t-3 46q0 22 26 41q93 69 109 69q29 0 29 -65
q0 -114 -51 -290q-81 -278 -262 -589q-188 -320 -389 -512l-15 2q-59 171 -59 471q0 266 16 512q-286 -684 -663 -981z" />
    <glyph glyph-name="X" unicode="X" horiz-adv-x="2185" 
d="M410 45l-2 16l8 15l12 2q132 -66 254 -66q270 0 444 270q154 238 154 523q0 257 -154 412t-411 155q-160 0 -282 -67q-148 -82 -148 -230q0 -116 93 -180q80 -55 202 -55q162 0 411 108l15 -6l6 -14l-4 -17q-256 -127 -476 -127q-151 0 -252 64q-120 76 -120 219
q0 154 151 252t404 98q311 0 500 -150q208 -164 208 -466q0 -213 -122.5 -429t-304.5 -322q-141 -83 -302 -83q-176 0 -284 78zM1853 700h-14l-12 13l2 14q127 125 221 275q117 187 117 323q0 105 -86 105q-64 0 -135 -48q-173 -119 -297 -455q-111 -300 -111 -544
q0 -148 61 -243q73 -113 213 -113q119 0 246 111q123 107 362 449q9 -9 9 -28q0 -37 -107 -180q-141 -188 -228 -268q-157 -144 -308 -144q-184 0 -282 146q-85 126 -85 319q0 256 116 518q120 272 313 427q128 102 235 102q87 0 140 -61q50 -58 50 -146q0 -251 -420 -572z
" />
    <glyph glyph-name="Y" unicode="Y" horiz-adv-x="2195" 
d="M1292 -589q-14 30 -14 75q0 182 205 330h16l12 -13l-2 -12q-125 -106 -125 -233q0 -45 11 -82q151 37 248 200.5t174 532.5l180 860q-159 -299 -284 -505q-132 -219 -225 -332q-181 -220 -337 -220q-97 0 -150 60q-51 57 -51 155q0 64 33 168l158 500q26 82 26 152
q0 158 -142 242q-116 69 -286 69q-181 0 -302.5 -81.5t-121.5 -195.5q0 -119 115 -183q94 -52 223 -52q90 0 178 28l17 -2l4 -20l-4 -14q-115 -45 -252 -45q-160 0 -271 64q-135 79 -135 228q0 176 191 259q140 61 342 61q261 0 423.5 -108t162.5 -273q0 -65 -45 -207
l-121 -381q-49 -154 -49 -235q0 -123 102 -123q197 0 535 598q204 360 296 562q26 56 53 62q97 21 105 21q19 0 19 -21q0 -4 -2 -13l-164 -726q-140 -620 -304 -869.5t-431 -287.5z" />
    <glyph glyph-name="Z" unicode="Z" horiz-adv-x="1958" 
d="M819 389q-74 49 -168 49q-156 0 -234 -109q-69 -95 -69 -257q250 106 471 317zM238 -20l-13 6l-2 12q43 216 162 359q141 169 342 169q95 0 197 -47q302 326 669 928l-186 -123h-72q-188 0 -426.5 12.5t-279.5 12.5q-320 0 -320 -238q0 -109 70 -174.5t180 -65.5
q140 0 313 127l17 3l10 -17l-2 -14q-179 -139 -346 -139q-133 0 -215 79.5t-82 212.5q0 188 158 281q129 76 331 76q92 0 275.5 -11.5t275.5 -11.5q293 0 383 111l13 2l20 -10l2 -11q-314 -546 -747 -1056q89 -58 240 -193q161 -144 197 -171q138 -105 230 -105
q72 0 115 44.5t43 116.5q0 145 -145 239q-110 72 -277 101l-8 15l4 14l12 8q494 -66 494 -340q0 -115 -91 -190q-85 -70 -202 -70q-122 0 -372 175q-33 22 -343 263q-176 -150 -328 -244q-191 -117 -286 -136h-10z" />
    <glyph glyph-name="bracketleft" unicode="[" horiz-adv-x="711" 
d="M18 -498l-2 13l680 1966h308l4 -13l-11 -32l-12 -6h-184l-645 -1876h186l6 -11l-14 -32l-12 -9h-304z" />
    <glyph glyph-name="backslash" unicode="\" horiz-adv-x="569" 
d="M444 -190h-90l-4 10l-16 1593l12 8h55l7 -10l49 -1591z" />
    <glyph glyph-name="bracketright" unicode="]" horiz-adv-x="711" 
d="M852 1481l2 -13l-680 -1968h-307l-4 15l10 32l12 7h185l645 1873h-187l-6 13l15 30l12 11h303z" />
    <glyph glyph-name="asciicircum" unicode="^" horiz-adv-x="2048" 
d="M940 1462h166l526 -565h-88l-522 451l-524 -451h-86z" />
    <glyph glyph-name="underscore" unicode="_" horiz-adv-x="1024" 
d="M0 -383h1024v-100h-1024v100z" />
    <glyph glyph-name="grave" unicode="`" horiz-adv-x="1024" 
d="M711 780h-56l-149 172q-29 33 -29 60q0 47 53 47q34 0 62 -53z" />
    <glyph glyph-name="a" unicode="a" 
d="M577 627q-34 32 -92 32q-89 0 -197 -137q-81 -103 -130 -219q-39 -92 -39 -162q0 -90 63 -90q95 0 235 244q85 148 160 332zM477 313q-187 -329 -321 -329q-87 0 -131 68q-37 58 -37 149q0 136 111 281q106 138 238 192q77 31 157 31q90 0 180 -39l10 -15v-4
q0 -23 -25 -100q-13 -41 -112 -379q-12 -41 -12 -72q0 -41 38 -41q88 0 435 495q6 -14 6 -28q0 -37 -86 -151q-291 -387 -408 -387q-102 0 -102 100q0 54 59 229z" />
    <glyph glyph-name="b" unicode="b" horiz-adv-x="864" 
d="M258 395q313 369 313 709q0 73 -18 137q-186 -239 -295 -846zM569 143q-114 -161 -250 -161q-107 0 -161 89q-45 73 -45 187q0 151 75 372q67 201 187 422q150 275 276 365l12 -2q21 -27 21 -102q0 -281 -124 -542q-96 -203 -310 -466q-4 -46 -4 -63q0 -195 119 -195
q98 0 184 146q-29 50 -29 133q0 219 133 352h9q28 -46 28 -109q0 -216 -90 -374q22 -50 64 -50q93 0 366 410q8 -14 8 -31q0 -44 -103 -186q-91 -126 -144 -176q-71 -66 -127 -66t-95 47z" />
    <glyph glyph-name="c" unicode="c" horiz-adv-x="729" 
d="M911 555q2 -8 2 -25q0 -49 -67 -147q-280 -408 -576 -408q-111 0 -181.5 72t-70.5 184q0 164 139 320q142 160 304 160q69 0 114 -33q52 -37 52 -103q0 -52 -38.5 -87t-90.5 -35q-42 0 -62 28q76 42 76 109q0 76 -66 76q-76 0 -152 -99q-57 -74 -92 -168
q-38 -102 -38 -186q0 -178 162 -178q152 0 339 195q127 132 246 325z" />
    <glyph glyph-name="d" unicode="d" horiz-adv-x="831" 
d="M543 608q-34 47 -78 47q-73 0 -175 -128q-79 -100 -122 -197q-47 -106 -47 -187q0 -96 72 -96q73 0 173 156.5t177 404.5zM459 281q-167 -299 -297 -299q-86 0 -131 63q-41 56 -41 145q0 94 43 188q55 122 169 218q127 106 249 106q47 0 108 -26l148 573q11 41 36 45
q78 11 82 11q19 0 19 -19q0 -7 -4 -22l-291 -1082q-17 -63 -17 -80q0 -55 35 -55q71 0 429 499q5 -13 5 -26q0 -53 -146 -244q-134 -174 -198 -229q-76 -65 -145 -65q-98 0 -98 92q0 70 45 207z" />
    <glyph glyph-name="e" unicode="e" horiz-adv-x="725" 
d="M160 254q130 29 224 112q108 96 108 218q0 78 -68 78q-80 0 -158.5 -116t-105.5 -292zM901 559q6 -8 6 -24q0 -57 -88 -179q-275 -381 -557 -381q-113 0 -176 71t-63 185q0 161 129 317q135 163 292 163q68 0 116 -36q52 -40 52 -106q0 -123 -170 -234
q-123 -80 -282 -128q0 -174 153 -174q156 0 342 195q129 136 246 331z" />
    <glyph glyph-name="f" unicode="f" horiz-adv-x="596" 
d="M276 551q209 222 209 493q0 105 -36 207q-34 -82 -85 -323q-52 -246 -88 -377zM35 -479q145 111 145 315q0 90 -33 187q-114 -288 -114 -463q0 -27 2 -39zM76 164q-113 57 -113 78q0 11 23.5 42t31.5 31q10 0 80 -41q209 941 416 1158h8q41 -52 41 -226q0 -424 -311 -751
q-18 -136 -55 -246q69 -51 153 -51t167 74q80 72 261 347q4 -17 4 -28q0 -59 -123 -216q-115 -147 -182 -192q-80 -55 -174 -55q-79 0 -141 41q63 -189 63 -305q0 -279 -202 -416l-11 2q-26 38 -26 219q0 195 90 535z" />
    <glyph glyph-name="g" unicode="g" horiz-adv-x="844" 
d="M573 625q-32 34 -84 34q-83 0 -192 -127q-87 -100 -136 -204q-46 -98 -46 -172q0 -90 67 -90q95 0 233 236q82 141 158 323zM172 -500q160 84 197 359q-205 -126 -205 -301q0 -15 8 -58zM96 -592l-12 2q-14 26 -14 64q0 250 299 440q11 142 110 408q-180 -326 -332 -326
q-78 0 -123 67q-38 58 -38 140q0 190 162 346t352 156q184 0 184 -60q0 -20 -70 -260l-118 -405q199 137 518 575q4 -34 4 -27q0 -21 -12 -47q-24 -50 -146 -194q-102 -122 -170 -192q-113 -115 -209 -179q-84 -383 -385 -508z" />
    <glyph glyph-name="h" unicode="h" horiz-adv-x="934" 
d="M322 659q235 249 235 504q0 77 -22 123q-109 -128 -213 -627zM614 1421l9 -2q45 -55 45 -151q0 -305 -371 -703l-86 -313q299 444 438 444q50 0 83.5 -33t33.5 -83q0 -20 -11 -61.5t-106 -315.5q-20 -58 -20 -99q0 -36 41 -36q109 0 434 477q4 -30 4 -31q0 -56 -153 -243
q-137 -168 -209 -226q-75 -61 -132 -61q-114 0 -114 127q0 50 82 282q55 155 55 187q0 41 -35 41q-89 0 -297 -310q-58 -87 -112 -194q-19 -38 -31 -59q-27 -45 -41 -48q-88 -18 -86 -18q-17 0 -17 20q0 6 7 32l116 429q77 283 176 514q149 349 297 434z" />
    <glyph glyph-name="i" unicode="i" horiz-adv-x="506" 
d="M375 870q-31 0 -71 18q-48 21 -48 46q0 15 22.5 57.5t32.5 42.5t38 -17q36 -22 40 -24q29 -13 29 -30q0 -93 -43 -93zM319 698q15 0 15 -14q0 -6 -2 -12l-139 -432q-33 -103 -33 -134q0 -59 51 -59q120 0 471 514q4 -18 4 -26q0 -63 -148 -246q-128 -160 -202 -221
q-96 -80 -180 -80q-119 0 -119 125q0 42 29 131l131 403q10 32 39 37q75 14 83 14z" />
    <glyph glyph-name="j" unicode="j" horiz-adv-x="498" 
d="M391 870q-30 0 -72 18q-49 21 -49 46q0 16 22.5 58t33.5 42q9 0 37 -17q35 -22 40 -24q29 -13 29 -30q0 -93 -41 -93zM94 -139q-56 -201 -139 -443l-6 2q-25 48 -25 138q0 312 115 448q8 107 47 252l107 394q3 11 14 31q7 7 52 16q40 8 56 8q19 0 19 -17q0 -4 -4 -18
l-221 -748q194 128 575 627q4 -15 4 -23q0 -27 -23 -67q-17 -30 -90 -119q-166 -203 -272 -308q-114 -114 -209 -173z" />
    <glyph glyph-name="k" unicode="k" horiz-adv-x="938" 
d="M322 666q237 251 237 475q0 88 -27 159q-86 -80 -210 -634zM610 1425l11 -2q43 -37 43 -143q0 -315 -367 -711l-86 -321q276 454 479 454q55 0 93 -32t38 -86q0 -143 -315 -285q67 -223 160 -223q110 0 442 481q4 -8 4 -27q0 -53 -139 -233q-122 -158 -191 -222
q-93 -85 -164 -85q-41 0 -75 24q-40 27 -95 119t-55 137q0 22 50 44q249 111 249 221q0 73 -80 73q-90 0 -236 -189q-107 -138 -174 -271q-25 -61 -61 -131q-8 -6 -55 -18.5t-59 -12.5q-17 0 -17 18q0 8 4 22l183 648q173 613 413 751z" />
    <glyph glyph-name="l" unicode="l" horiz-adv-x="645" 
d="M274 485q224 294 224 572q0 74 -19 188q-158 -312 -205 -760zM264 403q-20 -102 -20 -172q0 -176 100 -176q133 0 475 506q6 -18 6 -35q0 -37 -110 -190q-258 -359 -418 -359q-98 0 -146 81q-40 67 -40 171q0 59 18 165q70 407 233 743q53 109 105 184t92 102l14 2
q35 -33 35 -149q0 -433 -344 -873z" />
    <glyph glyph-name="m" unicode="m" horiz-adv-x="1335" 
d="M311 694q19 0 19 -16q0 -5 -129 -428q105 187 167 271q135 181 240 181q109 0 109 -96q0 -64 -92 -362q275 454 430 454q104 0 104 -116q0 -50 -37 -158q-29 -80 -57 -160q-37 -119 -37 -151q0 -47 45 -47q85 0 432 487q4 -16 4 -27q0 -56 -151 -249q-136 -176 -201 -229
q-77 -64 -151 -64q-47 0 -78 32.5t-31 79.5q0 82 106 374q33 91 33 114q0 39 -41 39q-70 0 -223 -227q-111 -165 -179 -304q-17 -35 -27 -52q-23 -38 -37 -40q-72 -12 -78 -12q-19 0 -19 10q0 14 4 29l135 491q15 55 15 72q0 37 -35 37q-70 0 -215 -226q-99 -155 -169 -302
q-21 -46 -58 -95q-89 -16 -95 -16q-14 0 -14 16q0 14 4 27l186 614q15 49 121 49z" />
    <glyph glyph-name="n" unicode="n" horiz-adv-x="928" 
d="M317 700q17 0 17 -16q0 -8 -2 -14l-139 -443q305 475 456 475q48 0 80.5 -33t32.5 -81q0 -52 -68.5 -246.5t-68.5 -235.5q0 -34 39 -34q86 0 431 478q7 -10 7 -24q0 -50 -153 -243q-137 -172 -201 -228q-80 -69 -140 -69q-54 0 -87.5 36.5t-33.5 90.5q0 30 91 307
q49 149 49 168q0 30 -33 30q-61 0 -203 -180q-102 -129 -170 -243q-44 -73 -71 -142q-17 -43 -48 -49q-73 -14 -84 -14q-18 0 -18 18q0 14 4 27l182 592q15 47 47 55q75 18 84 18z" />
    <glyph glyph-name="o" unicode="o" horiz-adv-x="858" 
d="M618 199q10 -43 52 -43q71 0 366 413q6 -10 6 -24q0 -22 -18 -57q-27 -53 -126.5 -179.5t-147.5 -170.5q-69 -62 -119 -62q-45 0 -78 37q-138 -140 -283 -140q-118 0 -188 71t-70 189q0 167 144.5 322.5t310.5 155.5q105 0 170 -80q59 -74 59 -182q0 -119 -78 -250z
M592 524q-28 144 -135 144q-57 0 -119 -58q-79 -73 -128.5 -189t-49.5 -224q0 -179 131 -179q104 0 217 173q-14 30 -14 75q0 126 98 258z" />
    <glyph glyph-name="p" unicode="p" horiz-adv-x="895" 
d="M-4 -436q51 98 84 514q-98 -157 -98 -412q0 -56 14 -102zM-25 -600h-8q-30 96 -30 244t38 283q27 93 76 193q17 29 47 89q1 3 33 184q18 101 32 159q33 132 64 138q82 17 88 17q24 0 17 -29l-60 -238q199 271 346 271q76 0 119 -51q41 -47 41 -125q0 -229 -327 -408
q36 -59 116 -59q185 0 514 509q6 -12 6 -28q0 -69 -150 -252q-136 -166 -218 -227q-103 -76 -205 -76q-83 0 -152 38t-69 72q0 17 54 43q150 73 225 181q59 86 59 172q0 106 -94 106q-56 0 -134 -75q-30 -30 -87 -104q-60 -80 -70 -108l-12 -51q-82 -365 -143 -570
q-65 -220 -116 -298z" />
    <glyph glyph-name="q" unicode="q" horiz-adv-x="825" 
d="M553 629q-30 28 -80 28q-124 0 -253 -192q-120 -179 -120 -311q0 -93 72 -93q143 0 381 568zM229 -498q118 100 183 250q63 144 63 303q-95 -180 -141 -274q-93 -196 -105 -279zM211 -592l-8 2q-6 30 -6 64q0 144 89 410q36 106 150 397q-165 -287 -295 -287
q-82 0 -125 68q-36 57 -36 143q0 130 97 264q90 126 213 189q90 47 187 47q185 0 185 -58q0 -11 -22 -87q-24 -85 -132 -439q25 -19 55 -19q80 0 238 194q56 69 192 263q8 -12 8 -31q0 -45 -133 -215q-123 -156 -181 -203q-64 -53 -120 -53q-30 0 -46 6q-15 -368 -310 -655z
" />
    <glyph glyph-name="r" unicode="r" horiz-adv-x="662" 
d="M835 571q5 -17 5 -26q0 -51 -156 -257q-144 -189 -207 -243q-77 -65 -147 -65q-133 0 -133 129q0 150 215 464q-128 -79 -195 -79q-78 0 -78 71q0 56 34 105q37 53 91 59l4 -6q-24 -46 -24 -66q0 -51 59 -51t244 72l8 -6q-227 -483 -227 -555q0 -60 53 -60q49 0 136 95
q86 92 318 419z" />
    <glyph glyph-name="s" unicode="s" horiz-adv-x="737" 
d="M203 -20q-71 0 -126 23q-75 30 -75 91q0 43 38 68q33 22 79 22q31 0 57 -10v-8q-41 -26 -41 -70q0 -71 109 -71q66 0 116 31q58 37 58 100q0 70 -137.5 171t-137.5 175q0 96 111 157q92 50 197 50q145 0 145 -93q0 -44 -51 -74q-43 -25 -92 -28l-7 10q39 31 39 78
q0 60 -86 60q-52 0 -90 -24q-45 -28 -45 -77q0 -46 71 -104q65 -52 131 -104q71 -67 71 -136q0 -61 -60 -123q163 27 436 481q9 -7 9 -24q0 -60 -111 -211q-117 -160 -212 -230q-73 -53 -150 -73q-19 -3 -55 -10l-27 -12q-85 -35 -164 -35z" />
    <glyph glyph-name="t" unicode="t" horiz-adv-x="518" 
d="M176 606h-113l-4 12l9 29l10 10h117l83 264q13 42 40 48q73 16 81 16q15 0 15 -14q0 -9 -2 -16l-84 -298h106l2 -10l-6 -33l-8 -8h-109l-120 -418q-17 -59 -17 -90q0 -51 49 -51q127 0 459 512q4 -10 4 -29q0 -22 -93 -177q-73 -122 -175 -228q-139 -145 -238 -145
q-135 0 -135 129q0 44 45 202z" />
    <glyph glyph-name="u" unicode="u" horiz-adv-x="922" 
d="M317 698q17 0 17 -14q0 -6 -4 -18l-162 -473q-18 -53 -18 -91q0 -41 38 -41q64 0 215 191q97 122 179 250q23 36 55 108q31 68 59 74q78 16 84 16q17 0 17 -16q0 -6 -4 -18l-160 -469q-19 -56 -19 -91q0 -45 41 -45q98 0 439 512q8 -16 8 -28q0 -60 -144 -247
q-124 -161 -197 -227q-97 -89 -163 -89q-109 0 -109 120q0 69 101 342q-310 -462 -465 -462q-105 0 -105 110q0 41 27 123l141 428q11 34 37 39q84 16 92 16z" />
    <glyph glyph-name="v" unicode="v" horiz-adv-x="862" 
d="M551 178q-135 -201 -268 -201q-146 0 -146 263q0 117 32 371q7 58 36 65l84 20q16 0 16 -24q0 -23 -22.5 -170.5t-22.5 -265.5q0 -177 86 -177q92 0 184 170q-12 58 -12 97q0 101 69 206q61 91 154 158l11 -4q8 -16 8 -33q0 -195 -174 -428q18 -82 82 -82q81 0 363 403h2
q5 -13 5 -26q0 -49 -110 -193q-99 -131 -156 -178q-61 -51 -113 -51q-67 0 -108 80z" />
    <glyph glyph-name="w" unicode="w" horiz-adv-x="1327" 
d="M594 414q-250 -432 -418 -432q-119 0 -119 139q0 46 23 131l108 401q7 26 29 29q98 14 96 14q4 0 9 -2q2 -4 2 -8q0 -2 -5 -20l-116 -416q-23 -82 -23 -123q0 -68 58 -68q110 0 309 357q34 61 74 157q17 40 30 62q24 41 47 45q77 14 86 14q5 0 8 -3t3 -7q0 -13 -4 -27
l-105 -362q-27 -93 -27 -162q0 -86 68 -86q94 0 262 205q0 14 -4 44t-4 46q0 233 154 350l10 -2q22 -26 22 -98q0 -153 -131 -345q11 -104 88 -104q75 0 208 171q47 62 161 235q4 -8 4 -27q0 -55 -106 -198q-95 -127 -155 -176.5t-114 -49.5q-92 0 -123 103
q-204 -224 -331 -224q-131 0 -131 154q0 57 57 283z" />
    <glyph glyph-name="x" unicode="x" horiz-adv-x="891" 
d="M305 238l-164 -205q-105 -131 -166 -131q-65 0 -65 73q0 90 84 144l6 -4q-6 -26 -6 -39q0 -51 47 -51q40 0 98 73l144 181q-170 378 -170 385q0 15 16 18l76 12q13 2 10 2q13 0 23 -22l124 -275l160 197q81 100 154 100q39 0 62.5 -30t23.5 -70q0 -79 -60 -158
q-55 -72 -131 -112l-6 8q109 119 109 211q0 55 -56 55q-40 0 -132 -108q-51 -66 -103 -132l76 -161q63 -133 135 -133q65 0 164 101.5t299 383.5q4 -8 4 -27q0 -53 -152 -242q-133 -166 -199 -224q-88 -76 -159 -76q-88 0 -156 89q-40 52 -90 167z" />
    <glyph glyph-name="y" unicode="y" horiz-adv-x="922" 
d="M254 -514q157 82 197 385q-211 -146 -211 -311q0 -32 14 -74zM557 -106q-101 -391 -381 -494l-12 2q-14 40 -14 86q0 222 304 442q16 111 124 473q-247 -403 -441 -403q-104 0 -104 119q0 41 26 121l134 412q8 26 40 30q78 10 84 10q5 0 10 -2q3 -5 3 -8t-4 -16
l-146 -468q-14 -45 -14 -85q0 -39 41 -39q88 0 242 215q109 152 183 301q17 35 28 52q24 40 38 42q84 10 88 10q15 0 15 -10q0 -8 -27 -80q-121 -323 -199 -641q205 168 515 585q6 -12 6 -26q0 -23 -20.5 -59t-102.5 -137q-149 -185 -242 -280t-174 -152z" />
    <glyph glyph-name="z" unicode="z" horiz-adv-x="729" 
d="M90 33q-37 -51 -74 -51q-16 0 -16 8q0 10 4 18l66 129q11 21 22 24q2 0 31 -1l350 379q-144 36 -188 36q-41 0 -72.5 -49t-42.5 -49q-33 0 -33 21q0 13 13 44q17 49 34 99q28 61 74 61q19 0 126.5 -19.5t193.5 -30.5q49 59 71 59q25 0 25 -11q0 -13 -37 -53l-465 -500
l31 -7q239 -54 258 -54q63 0 145.5 84t285.5 380q7 -19 7 -40q0 -43 -156 -240q-145 -182 -203 -230q-77 -65 -147 -65q-25 0 -126.5 24t-176.5 34z" />
    <glyph glyph-name="braceleft" unicode="{" horiz-adv-x="1024" 
d="M846 1516v-49q-147 -2 -201 -55.5t-54 -255.5v-48.5v-48.5q0 -228 -63 -310.5t-233 -113.5q170 -32 233 -114t63 -310v-48.5v-48.5q0 -201 53.5 -254t201.5 -55v-49h-10q-240 0 -318 100q-59 75 -59 283q0 26 1 86t1 94q0 158 -65 219q-59 57 -220 70v56q162 14 221 69
q64 61 64 219q0 34 -1 93v84q0 214 60 289q78 98 326 98z" />
    <glyph glyph-name="bar" unicode="|" horiz-adv-x="1024" 
d="M459 1565h108v-2048h-108v2048z" />
    <glyph glyph-name="braceright" unicode="}" horiz-adv-x="1024" 
d="M178 1516h10q241 0 320 -101q58 -76 58 -286v-85q-1 -59 -1 -92q0 -156 58 -214.5t225 -73.5v-56q-161 -13 -220 -69q-63 -62 -63 -220q0 -33 1 -91v-83q0 -216 -60 -291q-79 -98 -328 -98v49q149 2 203 55.5t54 254.5v49.5v50.5q0 226 62.5 307.5t231.5 112.5
q-169 31 -232 114q-62 80 -62 305v51v50q0 201 -54 255t-203 57v49z" />
    <glyph glyph-name="asciitilde" unicode="~" horiz-adv-x="1706" 
d="M1530 750v-113q-203 -143 -387 -143q-101 0 -289.5 68.5t-288.5 68.5q-158 0 -387 -160v113q211 145 387 145q101 0 291.5 -69.5t286.5 -69.5q162 0 387 160z" />
    <glyph glyph-name="euro" horiz-adv-x="948" 
d="M143 686h-141l21 43h139q104 212 260.5 348.5t282.5 136.5q79 0 124 -46.5t45 -125.5q0 -127 -133 -254l-14 -2l-14 11l2 16q108 110 108 221q0 135 -125 135q-129 0 -249 -161q-89 -120 -144 -279h344l-18 -43h-338q-23 -70 -45 -186h301l-21 -41h-286q-6 -58 -6 -115
q0 -136 48 -221q61 -107 187 -107q202 0 412 346q18 -16 18 -30q0 -13 -36 -69q-184 -288 -412 -288q-174 0 -275 131q-91 118 -91 294q0 29 3 58l-113 1l19 41h100q12 89 47 186z" />
    <glyph glyph-name="nonbreakingspace" unicode="&#xa0;" horiz-adv-x="948" 
 />
    <glyph glyph-name="exclamdown" unicode="&#xa1;" horiz-adv-x="682" 
d="M678 1294q94 0 94 -39q0 -106 -27 -106q-14 0 -103 18q-32 6 -32 82q0 45 68 45zM649 1061l23 -2l2 -12l-283 -1015q-9 -33 -39 -34q-123 -6 -127 -6q-16 0 -16 18q0 11 4 21z" />
    <glyph glyph-name="cent" unicode="&#xa2;" horiz-adv-x="948" 
d="M430 291l162 675q-121 -3 -215 -183q-80 -155 -80 -291q0 -166 133 -201zM418 -4l-64 -21l64 265q-248 38 -248 295q0 179 126 324q131 150 308 155l55 227l64 27l-61 -256q117 -20 163 -70v-14l-28 -37h-11q-65 67 -135 73l-161 -675q137 6 262 174h12l43 -47v-10
q-115 -148 -330 -165z" />
    <glyph glyph-name="sterling" unicode="&#xa3;" horiz-adv-x="948" 
d="M201 119q-62 28 -117 28q-73 0 -129 -79q43 -29 92 -29q86 0 154 80zM274 137q203 -71 381 -71q187 0 187 102q0 43 -45 67q-36 19 -84 19q-70 0 -144 -45l-8 2l-6 18l6 11q65 49 154 49q176 0 176 -139q0 -82 -64 -127q-56 -39 -141 -39q-172 0 -438 116
q-102 -100 -228 -100q-108 0 -184 84v8q94 98 234 98q51 0 153 -34q71 104 135 430h-204l10 41h207q56 222 146 367q130 210 306 210q160 0 160 -149q0 -121 -106 -199h-9l-18 12l2 11q84 92 84 190q0 96 -96 96q-189 0 -340 -538h256l-6 -41h-261q-85 -291 -215 -449z" />
    <glyph glyph-name="currency" unicode="&#xa4;" horiz-adv-x="948" 
d="M143 686h-141l21 43h139q104 212 260.5 348.5t282.5 136.5q79 0 124 -46.5t45 -125.5q0 -127 -133 -254l-14 -2l-14 11l2 16q108 110 108 221q0 135 -125 135q-129 0 -249 -161q-89 -120 -144 -279h344l-18 -43h-338q-23 -70 -45 -186h301l-21 -41h-286q-6 -58 -6 -115
q0 -136 48 -221q61 -107 187 -107q202 0 412 346q18 -16 18 -30q0 -13 -36 -69q-184 -288 -412 -288q-174 0 -275 131q-91 118 -91 294q0 29 3 58l-113 1l19 41h100q12 89 47 186z" />
    <glyph glyph-name="yen" unicode="&#xa5;" horiz-adv-x="948" 
d="M403 406h-346l-6 12l4 26l11 5h325l-63 184h-205l-8 12l4 23l10 8h186q-163 485 -163 491q0 19 18 19h84q22 0 31 -29l227 -704l500 733h49l4 -10l-346 -500h209l8 -6l-8 -29l-10 -8h-228l-129 -184h301l8 -9l-6 -24l-12 -10h-317l-107 -367q-6 -21 -11 -27
q-7 -9 -26 -10q-84 -6 -88 -6q-18 0 -18 16q0 6 4 19z" />
    <glyph glyph-name="brokenbar" unicode="&#xa6;" horiz-adv-x="1024" 
d="M459 408h108v-758h-108v758zM459 1432h108v-758h-108v758z" />
    <glyph glyph-name="section" unicode="&#xa7;" horiz-adv-x="1067" 
d="M582 268q112 0 194 61q92 67 92 175q0 138 -231 307q-118 -12 -192 -64q-91 -64 -91 -172q0 -129 228 -307zM625 229q161 -145 161 -284q0 -160 -142 -243q-116 -67 -288 -67q-121 0 -220 41q-132 55 -132 158t134 150q92 32 220 32q34 0 62 -4l6 -4l2 -20l-6 -8
q-320 0 -320 -156q0 -78 88 -117q67 -29 156 -29q125 0 218 55q112 66 112 183q0 128 -224 328q-103 92 -136 134q-66 84 -66 175q0 131 115 211q93 64 237 84q-149 141 -149 293q0 149 136 233q115 72 273 72q107 0 181 -37q96 -47 96 -143q0 -187 -340 -187q-54 0 -94 4
l-7 9v18l7 8q39 -4 59 -4q101 0 170 31q94 41 94 129q0 129 -186 129q-112 0 -192 -61q-87 -68 -87 -177q0 -84 58 -164q34 -48 122 -128q236 -216 236 -349q0 -134 -114 -214q-95 -66 -240 -81z" />
    <glyph glyph-name="dieresis" unicode="&#xa8;" horiz-adv-x="1024" 
d="M817 819q-96 0 -96 39q0 111 33 111q2 0 36 -7q23 -5 69 -14q30 -6 30 -84q0 -45 -72 -45zM489 819q-94 0 -94 39q0 111 31 111q2 0 35.5 -6.5t74.5 -16.5q27 -15 27 -82q0 -45 -74 -45z" />
    <glyph glyph-name="copyright" unicode="&#xa9;" horiz-adv-x="1683" 
d="M1120 1093l31 1v-310h-37q-65 275 -283 275q-253 0 -253 -375q0 -383 272 -383q173 0 285 174l32 -22q-114 -207 -342 -207q-168 0 -284 126q-113 122 -113 292q0 178 108 304q114 132 289 132q72 0 148 -34t82 -34q57 0 65 61zM844 1300q-255 0 -436 -183.5t-181 -438.5
q0 -253 181 -437t434 -184q254 0 435 183.5t181 437.5q0 256 -179.5 439t-434.5 183zM844 1376q288 0 491 -204.5t203 -493.5q0 -288 -204 -492t-492 -204t-492.5 204t-204.5 492q0 291 204 494.5t495 203.5z" />
    <glyph glyph-name="ordfeminine" unicode="&#xaa;" horiz-adv-x="631" 
d="M434 1384q-27 23 -69 23q-86 0 -183 -139q-92 -132 -92 -224q0 -61 47 -61q117 0 297 401zM358 1165q-142 -231 -241 -231q-127 0 -127 153q0 98 86 200q80 94 179 131q57 22 116 22q69 0 135 -27l8 -10v-4q0 -16 -17 -63q-13 -37 -88 -274q-8 -25 -8 -48q0 -29 29 -29
q66 0 326 346q4 -7 4 -18q0 -26 -71 -116q-208 -263 -298 -263q-78 0 -78 72q0 28 45 159z" />
    <glyph glyph-name="guillemotleft" unicode="&#xab;" horiz-adv-x="952" 
d="M915 641q23 0 23 -20q0 -12 -27 -37l-245 -228l63 -256q6 -24 6 -30q0 -27 -20 -27q-19 0 -37 37l-141 293l342 252q22 16 36 16zM610 641q23 0 23 -20q0 -12 -27 -37l-246 -228l62 -256q6 -25 6 -30q0 -27 -18 -27q-19 0 -37 37l-142 293l340 252q22 16 39 16z" />
    <glyph glyph-name="logicalnot" unicode="&#xac;" horiz-adv-x="1706" 
d="M254 858h1198v-502h-96v402h-1102v100z" />
    <glyph glyph-name="sfthyphen" unicode="&#xad;" horiz-adv-x="883" 
d="M272 354l-6 15l29 86l14 8h459l10 -12l-24 -91l-13 -6h-469z" />
    <glyph glyph-name="registered" unicode="&#xae;" horiz-adv-x="1683" 
d="M723 717h68q247 0 247 176q0 82 -65 125q-56 37 -142 37q-108 0 -108 -74v-264zM469 1090h393q121 0 205 -39q111 -52 111 -160q0 -144 -289 -199q111 -37 159 -100q43 -56 65 -177q15 -85 58 -85q72 0 72 131h41v-12q0 -177 -156 -177q-45 0 -79 19q-57 31 -63 119
q-9 137 -11 143q-41 129 -215 129q-6 0 -18.5 -1t-18.5 -1v-246q0 -61 37 -84q28 -17 94 -19v-40h-385v40q67 3 94 19q37 23 37 84v514q0 61 -37 83q-27 16 -94 18v41zM844 1300q-255 0 -436 -183.5t-181 -438.5q0 -253 181 -437t434 -184q254 0 435 183.5t181 437.5
q0 255 -179.5 438.5t-434.5 183.5zM844 1376q287 0 490.5 -205t203.5 -493q0 -289 -205 -492.5t-495 -203.5q-286 0 -489.5 205t-203.5 491q0 291 204 494.5t495 203.5z" />
    <glyph glyph-name="macron" unicode="&#xaf;" horiz-adv-x="1024" 
d="M410 944h489l-20 -102h-490z" />
    <glyph glyph-name="macron" unicode="&#x2c9;" horiz-adv-x="1024" 
d="M410 944h489l-20 -102h-490z" />
    <glyph glyph-name="degree" unicode="&#xb0;" horiz-adv-x="674" 
d="M338 1382q-87 0 -148 -60.5t-61 -147.5t60.5 -147t148.5 -60t147.5 59.5t59.5 147.5q0 87 -60 147.5t-147 60.5zM338 1452q116 0 196 -81t80 -197t-81 -197.5t-197 -81.5q-118 0 -197.5 80.5t-79.5 198.5q0 117 81 197.5t198 80.5z" />
    <glyph glyph-name="plusminus" unicode="&#xb1;" horiz-adv-x="1706" 
d="M254 150h1198v-99h-1198v99zM805 1169h98v-348h549v-98h-549v-348h-98v348h-551v98h551v348z" />
    <glyph glyph-name="twosuperior" unicode="&#xb2;" horiz-adv-x="627" 
d="M111 532l-76 -69h-6l-15 10v8l90 123q4 6 38 5q300 298 300 462q0 86 -84 86q-69 0 -120 -64q-44 -56 -56 -130l-4 -7h-16l-6 9q10 95 70 160q65 71 157 71q67 0 114 -37q50 -41 50 -106q0 -94 -375 -453q170 -72 211 -72q63 0 127 88l4 2l12 -6l2 -4q-91 -149 -178 -149
q-31 0 -117 30q-61 21 -122 43z" />
    <glyph glyph-name="threesuperior" unicode="&#xb3;" horiz-adv-x="627" 
d="M37 489l-2 7l6 8l8 2q51 -19 103 -19q78 0 133 39q51 36 87 99t36 123q0 50 -35.5 79t-87.5 29q-33 0 -95 -18l-10 4l-4 10l4 6q254 107 254 232q0 67 -69 67q-85 0 -164 -110h-6l-13 6l-2 8q95 137 217 137q53 0 90 -27q41 -30 41 -81q0 -122 -247 -207q89 0 149 -32
q76 -41 76 -122q0 -103 -123 -199q-91 -71 -209 -71q-87 0 -137 30z" />
    <glyph glyph-name="acute" unicode="&#xb4;" horiz-adv-x="1024" 
d="M541 780h-56l279 246q37 33 63 33q47 0 47 -51q0 -35 -53 -66z" />
    <glyph glyph-name="mu" unicode="&#xb5;" horiz-adv-x="1079" 
d="M162 190q-20 -111 -44 -329l-2 -15q-30 -262 -104 -262q-71 0 -71 74q0 39 60 279q49 197 210 948h129l-109 -509q-10 -47 -10 -95q0 -84 39 -137q44 -60 125 -60q203 0 272 307l111 494h129l-115 -527q-22 -101 -22 -155q0 -107 80 -107q68 0 111 61q20 29 52 114
q23 61 44 61q22 0 22 -35q0 -27 -16 -80q-71 -231 -244 -231q-152 0 -152 207q-87 -213 -274 -213q-195 0 -221 210z" />
    <glyph glyph-name="mu" unicode="&#x3bc;" horiz-adv-x="1079" 
d="M162 190q-20 -111 -44 -329l-2 -15q-30 -262 -104 -262q-71 0 -71 74q0 39 60 279q49 197 210 948h129l-109 -509q-10 -47 -10 -95q0 -84 39 -137q44 -60 125 -60q203 0 272 307l111 494h129l-115 -527q-22 -101 -22 -155q0 -107 80 -107q68 0 111 61q20 29 52 114
q23 61 44 61q22 0 22 -35q0 -27 -16 -80q-71 -231 -244 -231q-152 0 -152 207q-87 -213 -274 -213q-195 0 -221 210z" />
    <glyph glyph-name="paragraph" unicode="&#xb6;" horiz-adv-x="1024" 
d="M940 1479v-70h-127v-1409h-82v1409h-186v-1409h-84v782q-164 7 -266 94q-111 94 -111 254q0 166 116 261q108 88 277 88h463z" />
    <glyph glyph-name="ch270" unicode="&#xb7;" horiz-adv-x="473" 
d="M236 676q35 0 59 -23.5t24 -58.5q0 -34 -24.5 -59t-58.5 -25q-35 0 -58.5 24.5t-23.5 59.5q0 82 82 82z" />
    <glyph glyph-name="ch270" unicode="&#x2219;" horiz-adv-x="473" 
d="M236 676q35 0 59 -23.5t24 -58.5q0 -34 -24.5 -59t-58.5 -25q-35 0 -58.5 24.5t-23.5 59.5q0 82 82 82z" />
    <glyph glyph-name="cedilla" unicode="&#xb8;" horiz-adv-x="1024" 
d="M285 0h53l-35 -110q46 4 53 4q168 0 168 -146q0 -72 -59 -110q-50 -31 -127 -31q-157 0 -264 80l14 34q130 -61 211 -61q121 0 121 90q0 86 -119 86q-36 0 -76 -8z" />
    <glyph glyph-name="onesuperior" unicode="&#xb9;" horiz-adv-x="627" 
d="M389 1085q-84 -84 -182 -155h-8l-9 12l3 6q79 65 106 90q58 53 94 102q31 42 54 44q40 4 42 4l7 -2l2 -6q0 -2 -222 -684q-4 -14 -7.5 -17t-16.5 -4q-55 -4 -57 -4q-13 0 -13 10q0 4 207 604z" />
    <glyph glyph-name="ordmasculine" unicode="&#xba;" horiz-adv-x="643" 
d="M465 1085q6 -30 37 -30q54 0 276 290q4 -11 4 -18q0 -33 -92 -145q-81 -99 -127 -138q-52 -45 -90 -45q-34 0 -57 27q-106 -98 -213 -98q-86 0 -139.5 48.5t-53.5 133.5q0 120 110 227t230 107q77 0 126 -54q46 -52 46 -130q0 -79 -57 -175zM444 1313q-20 100 -102 100
q-105 0 -184 -172q-37 -81 -37 -158q0 -125 98 -125q74 0 162 121q-10 20 -10 54q0 85 73 180z" />
    <glyph glyph-name="guillemotright" unicode="&#xbb;" horiz-adv-x="952" 
d="M152 43q-23 0 -23 23q0 12 26 36l248 228l-63 256q-6 24 -6 28q0 27 18 27q22 0 39 -35l139 -293l-340 -252q-24 -18 -38 -18zM457 43q-23 0 -23 23q0 12 26 36l249 228l-64 256q-6 24 -6 28q0 27 18 27q23 0 39 -34l140 -294l-341 -252q-24 -18 -38 -18z" />
    <glyph glyph-name="onequarter" unicode="&#xbc;" horiz-adv-x="1536" 
d="M1317 221l-320 -8l-4 10l2 8q173 208 268 364l20 34q14 21 29 24q85 17 87 17q10 0 10 -13q0 -51 -371 -417l287 6l45 147q6 21 74 21q8 0 8 -11q0 -1 -43 -153h31l8 -6l-2 -13l-6 -6l-39 -2q-58 -201 -58 -202q-11 -29 -88 -29h-4q-2 4 -2 6q0 10 68 223zM1278 1202
l-920 -1220q-2 -2 -10 -7h-82l-4 7l969 1226h43zM371 1094q-74 -74 -174 -146h-7l-8 10v9q101 75 158 135q20 24 40 49q28 34 44 35q36 2 43 2q1 0 6 -1l2 -5q0 -2 -4 -13l-207 -625q-6 -19 -24 -20q-54 -4 -56 -4q-10 0 -12 8q92 261 199 566z" />
    <glyph glyph-name="onehalf" unicode="&#xbd;" horiz-adv-x="1536" 
d="M1047 55l-74 -63h-6l-15 8q0 3 88 120q10 14 35 7q289 279 289 430q0 80 -82 80q-65 0 -114 -59q-43 -52 -54 -121l-4 -4h-16l-7 6q13 89 71 150q62 65 149 65q62 0 106 -35q49 -38 49 -98q0 -107 -356 -422q162 -68 199 -68q58 0 122 84l5 2l12 -6v-4
q-90 -141 -170 -141q-29 0 -110 28q-59 21 -117 41zM1278 1202l-920 -1220q-2 -2 -10 -7h-82l-4 7l969 1226h43zM371 1094q-74 -74 -174 -146h-7l-8 10v9q101 75 158 135q20 24 40 49q28 34 44 35q36 2 43 2q1 0 6 -1l2 -5q0 -2 -4 -13l-207 -625q-6 -19 -24 -20
q-54 -4 -56 -4q-10 0 -12 8q92 261 199 566z" />
    <glyph glyph-name="threequarters" unicode="&#xbe;" horiz-adv-x="1536" 
d="M1317 221l-320 -8l-4 10l2 8q173 208 268 364l20 34q14 21 29 24q85 17 87 17q10 0 10 -13q0 -51 -371 -417l287 6l45 147q6 21 74 21q8 0 8 -11q0 -1 -43 -153h31l8 -6l-2 -13l-6 -6l-39 -2q-58 -201 -58 -202q-11 -29 -88 -29h-4q-2 4 -2 6q0 10 68 223zM1278 1202
l-920 -1220q-2 -2 -10 -7h-82l-4 7l969 1226h43zM35 537l-2 6l8 8l6 2q46 -18 98 -18q37 0 69 10q68 20 121.5 91t53.5 142q0 101 -119 101q-24 0 -88 -17l-10 4l-2 11l2 6q242 97 242 215q0 63 -68 63q-81 0 -153 -104h-7l-12 6l-2 8q90 127 207 127q125 0 125 -100
q0 -114 -236 -193q83 0 141 -30q74 -37 74 -113q0 -75 -71 -146q-62 -63 -140 -88q-53 -18 -106 -18q-87 0 -131 27z" />
    <glyph glyph-name="questiondown" unicode="&#xbf;" horiz-adv-x="934" 
d="M721 1366q96 0 96 -39q0 -106 -29 -106q-2 0 -63 11l-39 7q-31 6 -31 82q0 45 66 45zM711 1145l8 6l24 -10v-13q0 -39 -122 -280q-110 -218 -147 -305q-85 -201 -85 -320q0 -184 146 -184q88 0 159 89q55 68 91 187q5 23 18 66q2 4 6 10l27 -2l4 -10q-29 -163 -103 -266
q-93 -129 -241 -129q-113 0 -184.5 76t-71.5 190q0 166 255 522q93 130 123 178q65 104 93 195z" />
    <glyph glyph-name="Agrave" unicode="&#xc0;" horiz-adv-x="2232" 
d="M1532 717q-291 172 -518 172q-113 0 -194 -39q-105 -51 -105 -152q0 -150 216 -235q147 -58 343 -72q85 81 258 326zM2154 1321q-121 -39 -487 -637q60 -42 176 -129q175 568 311 766zM1917 420q-23 -88 -23 -166q0 -147 86 -211q31 66 31 145q0 128 -94 232zM1931 483
q142 -172 142 -374q0 -150 -31 -150q-8 0 -37 18q-197 122 -197 357q0 74 25 168q-87 74 -193 141q-108 -159 -192 -254h49q23 0 125 4l10 -8l2 -20l-9 -8q-59 -11 -218 -11q-354 -356 -727 -356q-183 0 -302 70q-122 71 -122 169q0 89 80 135q65 37 160 37q165 0 311 -84
l4 -14l-8 -16l-12 -4q-141 63 -234 63q-174 0 -174 -137q0 -90 113 -140q88 -38 192 -38q250 0 551 319q-220 22 -383 95q-233 103 -233 276q0 115 112 173q89 46 215 46q300 0 609 -184q144 218 306 395q244 264 394 264q27 0 27 -24q0 -19 -124 -321q-127 -307 -231 -587z
M2327 1515h-56l-149 172q-29 33 -29 60q0 47 53 47q34 0 62 -53z" />
    <glyph glyph-name="Aacute" unicode="&#xc1;" horiz-adv-x="2232" 
d="M1532 717q-291 172 -518 172q-113 0 -194 -39q-105 -51 -105 -152q0 -150 216 -235q147 -58 343 -72q85 81 258 326zM2154 1321q-121 -39 -487 -637q60 -42 176 -129q175 568 311 766zM1917 420q-23 -88 -23 -166q0 -147 86 -211q31 66 31 145q0 128 -94 232zM1931 483
q142 -172 142 -374q0 -150 -31 -150q-8 0 -37 18q-197 122 -197 357q0 74 25 168q-87 74 -193 141q-108 -159 -192 -254h49q23 0 125 4l10 -8l2 -20l-9 -8q-59 -11 -218 -11q-354 -356 -727 -356q-183 0 -302 70q-122 71 -122 169q0 89 80 135q65 37 160 37q165 0 311 -84
l4 -14l-8 -16l-12 -4q-141 63 -234 63q-174 0 -174 -137q0 -90 113 -140q88 -38 192 -38q250 0 551 319q-220 22 -383 95q-233 103 -233 276q0 115 112 173q89 46 215 46q300 0 609 -184q144 218 306 395q244 264 394 264q27 0 27 -24q0 -19 -124 -321q-127 -307 -231 -587z
M2157 1515h-56l279 246q37 33 63 33q47 0 47 -51q0 -35 -53 -66z" />
    <glyph glyph-name="Acircumflex" unicode="&#xc2;" horiz-adv-x="2232" 
d="M1532 717q-291 172 -518 172q-113 0 -194 -39q-105 -51 -105 -152q0 -150 216 -235q147 -58 343 -72q85 81 258 326zM2154 1321q-121 -39 -487 -637q60 -42 176 -129q175 568 311 766zM1917 420q-23 -88 -23 -166q0 -147 86 -211q31 66 31 145q0 128 -94 232zM1931 483
q142 -172 142 -374q0 -150 -31 -150q-8 0 -37 18q-197 122 -197 357q0 74 25 168q-87 74 -193 141q-108 -159 -192 -254h49q23 0 125 4l10 -8l2 -20l-9 -8q-59 -11 -218 -11q-354 -356 -727 -356q-183 0 -302 70q-122 71 -122 169q0 89 80 135q65 37 160 37q165 0 311 -84
l4 -14l-8 -16l-12 -4q-141 63 -234 63q-174 0 -174 -137q0 -90 113 -140q88 -38 192 -38q250 0 551 319q-220 22 -383 95q-233 103 -233 276q0 115 112 173q89 46 215 46q300 0 609 -184q144 218 306 395q244 264 394 264q27 0 27 -24q0 -19 -124 -321q-127 -307 -231 -587z
M2222 1726h101l160 -271h-52l-163 181l-297 -181h-66z" />
    <glyph glyph-name="Atilde" unicode="&#xc3;" horiz-adv-x="2232" 
d="M1532 717q-291 172 -518 172q-113 0 -194 -39q-105 -51 -105 -152q0 -150 216 -235q147 -58 343 -72q85 81 258 326zM2154 1321q-121 -39 -487 -637q60 -42 176 -129q175 568 311 766zM1917 420q-23 -88 -23 -166q0 -147 86 -211q31 66 31 145q0 128 -94 232zM1931 483
q142 -172 142 -374q0 -150 -31 -150q-8 0 -37 18q-197 122 -197 357q0 74 25 168q-87 74 -193 141q-108 -159 -192 -254h49q23 0 125 4l10 -8l2 -20l-9 -8q-59 -11 -218 -11q-354 -356 -727 -356q-183 0 -302 70q-122 71 -122 169q0 89 80 135q65 37 160 37q165 0 311 -84
l4 -14l-8 -16l-12 -4q-141 63 -234 63q-174 0 -174 -137q0 -90 113 -140q88 -38 192 -38q250 0 551 319q-220 22 -383 95q-233 103 -233 276q0 115 112 173q89 46 215 46q300 0 609 -184q144 218 306 395q244 264 394 264q27 0 27 -24q0 -19 -124 -321q-127 -307 -231 -587z
M2503 1747h45q-44 -183 -170 -183q-39 0 -130.5 29t-127.5 29q-76 0 -95 -80h-47q47 176 168 176q46 0 133 -27.5t130 -27.5q73 0 94 84z" />
    <glyph glyph-name="Adieresis" unicode="&#xc4;" horiz-adv-x="2232" 
d="M1532 717q-291 172 -518 172q-113 0 -194 -39q-105 -51 -105 -152q0 -150 216 -235q147 -58 343 -72q85 81 258 326zM2154 1321q-121 -39 -487 -637q60 -42 176 -129q175 568 311 766zM1917 420q-23 -88 -23 -166q0 -147 86 -211q31 66 31 145q0 128 -94 232zM1931 483
q142 -172 142 -374q0 -150 -31 -150q-8 0 -37 18q-197 122 -197 357q0 74 25 168q-87 74 -193 141q-108 -159 -192 -254h49q23 0 125 4l10 -8l2 -20l-9 -8q-59 -11 -218 -11q-354 -356 -727 -356q-183 0 -302 70q-122 71 -122 169q0 89 80 135q65 37 160 37q165 0 311 -84
l4 -14l-8 -16l-12 -4q-141 63 -234 63q-174 0 -174 -137q0 -90 113 -140q88 -38 192 -38q250 0 551 319q-220 22 -383 95q-233 103 -233 276q0 115 112 173q89 46 215 46q300 0 609 -184q144 218 306 395q244 264 394 264q27 0 27 -24q0 -19 -124 -321q-127 -307 -231 -587z
M2433 1554q-96 0 -96 39q0 111 33 111q2 0 36 -7q23 -5 69 -14q30 -6 30 -84q0 -45 -72 -45zM2105 1554q-94 0 -94 39q0 111 31 111q2 0 35.5 -6.5t74.5 -16.5q27 -15 27 -82q0 -45 -74 -45z" />
    <glyph glyph-name="Aring" unicode="&#xc5;" horiz-adv-x="2232" 
d="M2257 1767q-50 0 -84.5 -34t-34.5 -84t34.5 -84.5t84.5 -34.5t84.5 34.5t34.5 84.5q0 49 -35 83.5t-84 34.5zM2257 1835q78 0 132 -54t54 -132q0 -79 -53.5 -133t-132.5 -54t-132.5 54t-53.5 133t54 132.5t132 53.5zM1532 717q-291 172 -518 172q-113 0 -194 -39
q-105 -51 -105 -152q0 -150 216 -235q147 -58 343 -72q85 81 258 326zM2154 1321q-121 -39 -487 -637q60 -42 176 -129q175 568 311 766zM1917 420q-23 -88 -23 -166q0 -147 86 -211q31 66 31 145q0 128 -94 232zM1931 483q142 -172 142 -374q0 -150 -31 -150q-8 0 -37 18
q-197 122 -197 357q0 74 25 168q-87 74 -193 141q-108 -159 -192 -254h49q23 0 125 4l10 -8l2 -20l-9 -8q-59 -11 -218 -11q-354 -356 -727 -356q-183 0 -302 70q-122 71 -122 169q0 89 80 135q65 37 160 37q165 0 311 -84l4 -14l-8 -16l-12 -4q-141 63 -234 63
q-174 0 -174 -137q0 -90 113 -140q88 -38 192 -38q250 0 551 319q-220 22 -383 95q-233 103 -233 276q0 115 112 173q89 46 215 46q300 0 609 -184q144 218 306 395q244 264 394 264q27 0 27 -24q0 -19 -124 -321q-127 -307 -231 -587z" />
    <glyph glyph-name="AE" unicode="&#xc6;" horiz-adv-x="2988" 
d="M1532 717q-291 172 -518 172q-113 0 -194 -39q-105 -51 -105 -152q0 -150 216 -235q147 -58 343 -72q85 81 258 326zM2154 1321q-121 -39 -487 -637q60 -42 176 -129q94 358 311 766zM1929 444q160 284 623 355q-134 16 -220 74q-106 72 -106 194q0 164 200 266
q165 84 347 84q82 0 138 -28q71 -37 71 -111q0 -113 -123 -170q-94 -43 -221 -43q-40 0 -66 4l-10 6l2 25l11 6q28 -6 77 -6q88 0 148 32q75 40 75 121q0 119 -143 119q-140 0 -250 -80q-121 -88 -121 -223q0 -197 310 -252l10 -10l-2 -21l-10 -6q-316 -49 -508.5 -192
t-192.5 -322q0 -131 103 -199q87 -57 225 -57q189 0 314.5 82.5t125.5 196.5q0 71 -53 110q-47 35 -121 35q-141 0 -369 -166l-12 2l-10 17l2 12q275 207 469 207q88 0 152 -43q73 -49 73 -133q0 -112 -132 -213q-103 -80 -234 -121q-119 -37 -248 -37q-191 0 -308 91
q-130 100 -130 286q0 75 18 165q-82 72 -193 142q-108 -159 -192 -254q12 0 38.5 -1t39.5 -1q19 0 96 4l12 -8v-18l-8 -11q-55 -8 -219 -8q-354 -356 -727 -356q-183 0 -302 70q-122 71 -122 169q0 88 80 134q65 38 160 38q174 0 311 -86l6 -10l-10 -18l-15 -2
q-137 61 -231 61q-174 0 -174 -137q0 -90 113 -140q88 -38 192 -38q250 0 551 319q-220 22 -383 95q-233 103 -233 276q0 115 112 173q89 46 215 46q300 0 609 -184q143 218 306 395q244 266 394 266q27 0 27 -26q0 -14 -70 -173q-79 -180 -223 -544q-48 -139 -64 -230z" />
    <glyph glyph-name="Ccedilla" unicode="&#xc7;" horiz-adv-x="1651" 
d="M696 739q97 273 324 484q-167 53 -371 53q-167 0 -293 -55q-166 -74 -166 -220q0 -151 190 -217q126 -43 316 -45zM1139 1229q205 -96 256 -256q180 165 180 307q0 131 -129 131q-146 0 -307 -182zM866 745q285 40 492 189q-40 172 -246 260q-149 -195 -246 -449z
M684 694q-614 22 -614 324q0 166 199 246q144 57 341 57q231 0 447 -66q229 201 409 201q92 0 148 -50q59 -53 59 -144q0 -203 -266 -377q0 -311 -412 -439l-10 7l-6 18l8 10q371 130 371 377q-219 -120 -510 -160q-35 -117 -35 -256q0 -191 102 -302q105 -115 295 -115
q201 0 400 189q124 118 284 359q7 -19 7 -28q0 -59 -166 -256q-265 -314 -566 -314q-226 0 -370 139t-144 365q0 99 29 215zM1059 0h53l-35 -110q46 4 53 4q168 0 168 -146q0 -72 -59 -110q-50 -31 -127 -31q-157 0 -264 80l14 34q130 -61 211 -61q121 0 121 90
q0 86 -119 86q-36 0 -76 -8z" />
    <glyph glyph-name="Egrave" unicode="&#xc8;" horiz-adv-x="1731" 
d="M1155 940q459 138 459 317q0 121 -139 121q-138 0 -250 -85q-121 -92 -121 -226q0 -78 51 -127zM1294 799q-138 12 -239 78q-242 -64 -443 -64q-194 0 -331 56q-189 77 -189 243q0 154 170 234q131 61 305 61q182 0 404 -61l6 -11l-4 -18l-12 -4q-202 53 -361 53
q-151 0 -248 -55q-121 -69 -121 -209t143 -203q104 -45 265 -45q175 0 385 55q-68 60 -68 158q0 146 199 264q148 88 352 88q217 0 217 -143q0 -196 -540 -367q79 -63 229 -92l8 -10v-21l-10 -6q-311 -45 -498 -187q-190 -145 -190 -327q0 -132 105 -199q88 -57 227 -57
q176 0 300 84t124 195q0 71 -54 110q-48 35 -122 35q-142 0 -369 -166l-10 2l-11 15l2 12q269 209 467 209q88 0 152 -43q74 -49 74 -133q0 -112 -131 -213q-102 -78 -234 -121q-118 -37 -242 -37q-173 0 -294 70q-148 85 -148 245q0 184 199.5 328.5t535.5 196.5z
M1551 1515h-56l-149 172q-29 33 -29 60q0 47 53 47q34 0 62 -53z" />
    <glyph glyph-name="Eacute" unicode="&#xc9;" horiz-adv-x="1731" 
d="M1155 940q459 138 459 317q0 121 -139 121q-138 0 -250 -85q-121 -92 -121 -226q0 -78 51 -127zM1294 799q-138 12 -239 78q-242 -64 -443 -64q-194 0 -331 56q-189 77 -189 243q0 154 170 234q131 61 305 61q182 0 404 -61l6 -11l-4 -18l-12 -4q-202 53 -361 53
q-151 0 -248 -55q-121 -69 -121 -209t143 -203q104 -45 265 -45q175 0 385 55q-68 60 -68 158q0 146 199 264q148 88 352 88q217 0 217 -143q0 -196 -540 -367q79 -63 229 -92l8 -10v-21l-10 -6q-311 -45 -498 -187q-190 -145 -190 -327q0 -132 105 -199q88 -57 227 -57
q176 0 300 84t124 195q0 71 -54 110q-48 35 -122 35q-142 0 -369 -166l-10 2l-11 15l2 12q269 209 467 209q88 0 152 -43q74 -49 74 -133q0 -112 -131 -213q-102 -78 -234 -121q-118 -37 -242 -37q-173 0 -294 70q-148 85 -148 245q0 184 199.5 328.5t535.5 196.5z
M1381 1515h-56l279 246q37 33 63 33q47 0 47 -51q0 -35 -53 -66z" />
    <glyph glyph-name="Ecircumflex" unicode="&#xca;" horiz-adv-x="1731" 
d="M1155 940q459 138 459 317q0 121 -139 121q-138 0 -250 -85q-121 -92 -121 -226q0 -78 51 -127zM1294 799q-138 12 -239 78q-242 -64 -443 -64q-194 0 -331 56q-189 77 -189 243q0 154 170 234q131 61 305 61q182 0 404 -61l6 -11l-4 -18l-12 -4q-202 53 -361 53
q-151 0 -248 -55q-121 -69 -121 -209t143 -203q104 -45 265 -45q175 0 385 55q-68 60 -68 158q0 146 199 264q148 88 352 88q217 0 217 -143q0 -196 -540 -367q79 -63 229 -92l8 -10v-21l-10 -6q-311 -45 -498 -187q-190 -145 -190 -327q0 -132 105 -199q88 -57 227 -57
q176 0 300 84t124 195q0 71 -54 110q-48 35 -122 35q-142 0 -369 -166l-10 2l-11 15l2 12q269 209 467 209q88 0 152 -43q74 -49 74 -133q0 -112 -131 -213q-102 -78 -234 -121q-118 -37 -242 -37q-173 0 -294 70q-148 85 -148 245q0 184 199.5 328.5t535.5 196.5z
M1502 1726h101l160 -271h-52l-163 181l-297 -181h-66z" />
    <glyph glyph-name="Edieresis" unicode="&#xcb;" horiz-adv-x="1731" 
d="M1155 940q459 138 459 317q0 121 -139 121q-138 0 -250 -85q-121 -92 -121 -226q0 -78 51 -127zM1294 799q-138 12 -239 78q-242 -64 -443 -64q-194 0 -331 56q-189 77 -189 243q0 154 170 234q131 61 305 61q182 0 404 -61l6 -11l-4 -18l-12 -4q-202 53 -361 53
q-151 0 -248 -55q-121 -69 -121 -209t143 -203q104 -45 265 -45q175 0 385 55q-68 60 -68 158q0 146 199 264q148 88 352 88q217 0 217 -143q0 -196 -540 -367q79 -63 229 -92l8 -10v-21l-10 -6q-311 -45 -498 -187q-190 -145 -190 -327q0 -132 105 -199q88 -57 227 -57
q176 0 300 84t124 195q0 71 -54 110q-48 35 -122 35q-142 0 -369 -166l-10 2l-11 15l2 12q269 209 467 209q88 0 152 -43q74 -49 74 -133q0 -112 -131 -213q-102 -78 -234 -121q-118 -37 -242 -37q-173 0 -294 70q-148 85 -148 245q0 184 199.5 328.5t535.5 196.5z
M1657 1554q-96 0 -96 39q0 111 33 111q2 0 36 -7q23 -5 69 -14q30 -6 30 -84q0 -45 -72 -45zM1329 1554q-94 0 -94 39q0 111 31 111q2 0 35.5 -6.5t74.5 -16.5q27 -15 27 -82q0 -45 -74 -45z" />
    <glyph glyph-name="Igrave" unicode="&#xcc;" horiz-adv-x="1532" 
d="M1139 1090q-228 -27 -463 -256h37q146 0 255 61q121 67 171 195zM1272 1128q-77 -162 -241 -257q-158 -92 -342 -92q-30 0 -60 3q-100 -130 -178 -286l-13 -7l-18 9l-4 12q49 132 164 281q-130 14 -223 81q-111 78 -111 199q0 142 175 243t445 101q263 0 423 -121
q179 -134 179 -389q0 -167 -73 -364q-152 -410 -490 -580q-144 -72 -274 -72q-89 0 -146 34q-71 41 -71 124q0 96 94 165q80 59 184 75l10 -6l3 -15l-3 -12q-176 -54 -176 -170q0 -67 56 -104q47 -31 118 -31q101 0 203 58q198 112 310 389q98 240 98 499q0 134 -39 233z
M1262 1151q-101 219 -426 219q-204 0 -336.5 -84.5t-132.5 -206.5q0 -183 251 -239q315 313 607 313q6 0 18.5 -1t18.5 -1zM1006 1515h-56l-149 172q-29 33 -29 60q0 47 53 47q34 0 62 -53z" />
    <glyph glyph-name="Iacute" unicode="&#xcd;" horiz-adv-x="1532" 
d="M1139 1090q-228 -27 -463 -256h37q146 0 255 61q121 67 171 195zM1272 1128q-77 -162 -241 -257q-158 -92 -342 -92q-30 0 -60 3q-100 -130 -178 -286l-13 -7l-18 9l-4 12q49 132 164 281q-130 14 -223 81q-111 78 -111 199q0 142 175 243t445 101q263 0 423 -121
q179 -134 179 -389q0 -167 -73 -364q-152 -410 -490 -580q-144 -72 -274 -72q-89 0 -146 34q-71 41 -71 124q0 96 94 165q80 59 184 75l10 -6l3 -15l-3 -12q-176 -54 -176 -170q0 -67 56 -104q47 -31 118 -31q101 0 203 58q198 112 310 389q98 240 98 499q0 134 -39 233z
M1262 1151q-101 219 -426 219q-204 0 -336.5 -84.5t-132.5 -206.5q0 -183 251 -239q315 313 607 313q6 0 18.5 -1t18.5 -1zM836 1515h-56l279 246q37 33 63 33q47 0 47 -51q0 -35 -53 -66z" />
    <glyph glyph-name="Icircumflex" unicode="&#xce;" horiz-adv-x="1532" 
d="M1139 1090q-228 -27 -463 -256h37q146 0 255 61q121 67 171 195zM1272 1128q-77 -162 -241 -257q-158 -92 -342 -92q-30 0 -60 3q-100 -130 -178 -286l-13 -7l-18 9l-4 12q49 132 164 281q-130 14 -223 81q-111 78 -111 199q0 142 175 243t445 101q263 0 423 -121
q179 -134 179 -389q0 -167 -73 -364q-152 -410 -490 -580q-144 -72 -274 -72q-89 0 -146 34q-71 41 -71 124q0 96 94 165q80 59 184 75l10 -6l3 -15l-3 -12q-176 -54 -176 -170q0 -67 56 -104q47 -31 118 -31q101 0 203 58q198 112 310 389q98 240 98 499q0 134 -39 233z
M1262 1151q-101 219 -426 219q-204 0 -336.5 -84.5t-132.5 -206.5q0 -183 251 -239q315 313 607 313q6 0 18.5 -1t18.5 -1zM911 1786h101l160 -271h-52l-163 181l-297 -181h-66z" />
    <glyph glyph-name="Idieresis" unicode="&#xcf;" horiz-adv-x="1532" 
d="M1139 1090q-228 -27 -463 -256h37q146 0 255 61q121 67 171 195zM1272 1128q-77 -162 -241 -257q-158 -92 -342 -92q-30 0 -60 3q-100 -130 -178 -286l-13 -7l-18 9l-4 12q49 132 164 281q-130 14 -223 81q-111 78 -111 199q0 142 175 243t445 101q263 0 423 -121
q179 -134 179 -389q0 -167 -73 -364q-152 -410 -490 -580q-144 -72 -274 -72q-89 0 -146 34q-71 41 -71 124q0 96 94 165q80 59 184 75l10 -6l3 -15l-3 -12q-176 -54 -176 -170q0 -67 56 -104q47 -31 118 -31q101 0 203 58q198 112 310 389q98 240 98 499q0 134 -39 233z
M1262 1151q-101 219 -426 219q-204 0 -336.5 -84.5t-132.5 -206.5q0 -183 251 -239q315 313 607 313q6 0 18.5 -1t18.5 -1zM1112 1554q-96 0 -96 39q0 111 33 111q2 0 36 -7q23 -5 69 -14q30 -6 30 -84q0 -45 -72 -45zM784 1554q-94 0 -94 39q0 111 31 111q2 0 35.5 -6.5
t74.5 -16.5q27 -15 27 -82q0 -45 -74 -45z" />
    <glyph glyph-name="Eth" unicode="&#xd0;" horiz-adv-x="1890" 
d="M739 129q-85 25 -176 25q-171 0 -272 -107q62 -24 137 -24q193 0 311 106zM864 137q169 -69 299 -69q220 0 355 130t135 349q0 175 -97 333q-91 148 -245 250q-62 -138 -172 -499h227l10 -10l-8 -29l-12 -10h-230q-105 -278 -262 -445zM829 100q-140 -116 -376 -116
q-192 0 -314 59v12q122 150 375 150q127 0 266 -41q93 106 205 418h-274l-6 12l4 27l12 10h280l18 57q71 225 81 255q54 158 100 247q-240 121 -475 121q-201 0 -326 -108q-133 -114 -133 -312q0 -205 228 -373l4 -16l-9 -17l-14 -2q-342 192 -342 457q0 205 178 323
q155 103 371 103q253 0 545 -135q171 221 428 239l10 -8v-18l-10 -10q-229 -49 -328 -256q438 -321 438 -684q0 -214 -148 -362t-362 -148q-170 0 -426 116z" />
    <glyph glyph-name="Ntilde" unicode="&#xd1;" horiz-adv-x="2169" 
d="M850 27l231 874q29 110 29 180q0 285 -375 285q-184 0 -321 -69q-174 -87 -174 -253q0 -118 100 -182q84 -53 209 -53q134 0 280 68l15 -5l6 -14l-6 -16q-146 -82 -326 -82q-150 0 -257 68q-126 80 -126 221q0 157 163 258q160 100 427 100q211 0 344 -64
q178 -86 178 -274q0 -99 -63 -333l-92 -314q284 503 460.5 714.5t307.5 211.5q77 0 124.5 -43t47.5 -119q0 -60 -97 -334q-202 -572 -202 -715q0 -60 27 -101q31 -46 89 -46q80 0 195 122q111 117 330 447q8 -24 8 -43q0 -28 -117 -190q-178 -247 -262 -312
q-92 -71 -191 -71q-89 0 -148 67q-56 64 -56 154q0 106 68 326q18 58 110 325q112 323 112 402q0 73 -73 73q-131 0 -390 -382q-176 -260 -305 -516q-72 -143 -119 -296q-27 -88 -67 -94q-68 -10 -78 -10q-7 0 -12.5 13.5t-3.5 21.5zM1911 1747h45q-44 -183 -170 -183
q-39 0 -130.5 29t-127.5 29q-76 0 -95 -80h-47q47 176 168 176q46 0 133 -27.5t130 -27.5q73 0 94 84z" />
    <glyph glyph-name="Ograve" unicode="&#xd2;" horiz-adv-x="1790" 
d="M1069 41q-213 121 -213 375q-59 -13 -174 -13q-72 0 -113 9q0 -6 -1 -17.5t-1 -17.5q0 -165 99 -265t264 -100q67 0 139 29zM1122 61q216 101 367 377q143 262 143 512q0 65 -28 109q-155 -440 -625 -607q-10 -66 -10 -114q0 -195 153 -277zM987 500q210 74 363 227
q158 159 219 367q-39 41 -105 41q-114 0 -255 -179.5t-222 -455.5zM574 455q69 -15 126 -15q73 0 158 17q15 114 60 225q71 173 204 319q163 177 318 177q67 0 139 -45q4 24 4 47q0 102 -83 162q-74 55 -179 55q-237 0 -447 -271q70 -16 117 -32l8 -11l-6 -16l-12 -2
q-19 0 -65 9q-51 10 -68 11q-208 -281 -274 -630zM434 489q44 334 260 605q-14 0 -43 2t-43 2q-172 0 -292 -69q-146 -85 -146 -245q0 -199 264 -295zM1118 14q-102 -41 -203 -41q-205 0 -337.5 129.5t-143.5 335.5q-364 130 -364 365q0 148 148.5 245t389.5 97q53 0 123 -6
q289 303 590 303q129 0 212 -65q91 -71 91 -197q0 -38 -8 -76q80 -86 80 -252q0 -229 -159 -469q-153 -231 -363 -342q52 -25 118 -25q176 0 376 183q111 101 286 327q6 -10 6 -22q0 -48 -137 -201t-236 -223q-147 -103 -301 -103q-86 0 -168 37zM1467 1515h-56l-149 172
q-29 33 -29 60q0 47 53 47q34 0 62 -53z" />
    <glyph glyph-name="Oacute" unicode="&#xd3;" horiz-adv-x="1790" 
d="M1069 41q-213 121 -213 375q-59 -13 -174 -13q-72 0 -113 9q0 -6 -1 -17.5t-1 -17.5q0 -165 99 -265t264 -100q67 0 139 29zM1122 61q216 101 367 377q143 262 143 512q0 65 -28 109q-155 -440 -625 -607q-10 -66 -10 -114q0 -195 153 -277zM987 500q210 74 363 227
q158 159 219 367q-39 41 -105 41q-114 0 -255 -179.5t-222 -455.5zM574 455q69 -15 126 -15q73 0 158 17q15 114 60 225q71 173 204 319q163 177 318 177q67 0 139 -45q4 24 4 47q0 102 -83 162q-74 55 -179 55q-237 0 -447 -271q70 -16 117 -32l8 -11l-6 -16l-12 -2
q-19 0 -65 9q-51 10 -68 11q-208 -281 -274 -630zM434 489q44 334 260 605q-14 0 -43 2t-43 2q-172 0 -292 -69q-146 -85 -146 -245q0 -199 264 -295zM1118 14q-102 -41 -203 -41q-205 0 -337.5 129.5t-143.5 335.5q-364 130 -364 365q0 148 148.5 245t389.5 97q53 0 123 -6
q289 303 590 303q129 0 212 -65q91 -71 91 -197q0 -38 -8 -76q80 -86 80 -252q0 -229 -159 -469q-153 -231 -363 -342q52 -25 118 -25q176 0 376 183q111 101 286 327q6 -10 6 -22q0 -48 -137 -201t-236 -223q-147 -103 -301 -103q-86 0 -168 37zM1297 1515h-56l279 246
q37 33 63 33q47 0 47 -51q0 -35 -53 -66z" />
    <glyph glyph-name="Ocircumflex" unicode="&#xd4;" horiz-adv-x="1790" 
d="M1069 41q-213 121 -213 375q-59 -13 -174 -13q-72 0 -113 9q0 -6 -1 -17.5t-1 -17.5q0 -165 99 -265t264 -100q67 0 139 29zM1122 61q216 101 367 377q143 262 143 512q0 65 -28 109q-155 -440 -625 -607q-10 -66 -10 -114q0 -195 153 -277zM987 500q210 74 363 227
q158 159 219 367q-39 41 -105 41q-114 0 -255 -179.5t-222 -455.5zM574 455q69 -15 126 -15q73 0 158 17q15 114 60 225q71 173 204 319q163 177 318 177q67 0 139 -45q4 24 4 47q0 102 -83 162q-74 55 -179 55q-237 0 -447 -271q70 -16 117 -32l8 -11l-6 -16l-12 -2
q-19 0 -65 9q-51 10 -68 11q-208 -281 -274 -630zM434 489q44 334 260 605q-14 0 -43 2t-43 2q-172 0 -292 -69q-146 -85 -146 -245q0 -199 264 -295zM1118 14q-102 -41 -203 -41q-205 0 -337.5 129.5t-143.5 335.5q-364 130 -364 365q0 148 148.5 245t389.5 97q53 0 123 -6
q289 303 590 303q129 0 212 -65q91 -71 91 -197q0 -38 -8 -76q80 -86 80 -252q0 -229 -159 -469q-153 -231 -363 -342q52 -25 118 -25q176 0 376 183q111 101 286 327q6 -10 6 -22q0 -48 -137 -201t-236 -223q-147 -103 -301 -103q-86 0 -168 37zM1332 1726h101l160 -271
h-52l-163 181l-297 -181h-66z" />
    <glyph glyph-name="Otilde" unicode="&#xd5;" horiz-adv-x="1790" 
d="M1069 41q-213 121 -213 375q-59 -13 -174 -13q-72 0 -113 9q0 -6 -1 -17.5t-1 -17.5q0 -165 99 -265t264 -100q67 0 139 29zM1122 61q216 101 367 377q143 262 143 512q0 65 -28 109q-155 -440 -625 -607q-10 -66 -10 -114q0 -195 153 -277zM987 500q210 74 363 227
q158 159 219 367q-39 41 -105 41q-114 0 -255 -179.5t-222 -455.5zM574 455q69 -15 126 -15q73 0 158 17q15 114 60 225q71 173 204 319q163 177 318 177q67 0 139 -45q4 24 4 47q0 102 -83 162q-74 55 -179 55q-237 0 -447 -271q70 -16 117 -32l8 -11l-6 -16l-12 -2
q-19 0 -65 9q-51 10 -68 11q-208 -281 -274 -630zM434 489q44 334 260 605q-14 0 -43 2t-43 2q-172 0 -292 -69q-146 -85 -146 -245q0 -199 264 -295zM1118 14q-102 -41 -203 -41q-205 0 -337.5 129.5t-143.5 335.5q-364 130 -364 365q0 148 148.5 245t389.5 97q53 0 123 -6
q289 303 590 303q129 0 212 -65q91 -71 91 -197q0 -38 -8 -76q80 -86 80 -252q0 -229 -159 -469q-153 -231 -363 -342q52 -25 118 -25q176 0 376 183q111 101 286 327q6 -10 6 -22q0 -48 -137 -201t-236 -223q-147 -103 -301 -103q-86 0 -168 37zM1643 1747h45
q-44 -183 -170 -183q-39 0 -130.5 29t-127.5 29q-76 0 -95 -80h-47q47 176 168 176q46 0 133 -27.5t130 -27.5q73 0 94 84z" />
    <glyph glyph-name="Odieresis" unicode="&#xd6;" horiz-adv-x="1790" 
d="M1069 41q-213 121 -213 375q-59 -13 -174 -13q-72 0 -113 9q0 -6 -1 -17.5t-1 -17.5q0 -165 99 -265t264 -100q67 0 139 29zM1122 61q216 101 367 377q143 262 143 512q0 65 -28 109q-155 -440 -625 -607q-10 -66 -10 -114q0 -195 153 -277zM987 500q210 74 363 227
q158 159 219 367q-39 41 -105 41q-114 0 -255 -179.5t-222 -455.5zM574 455q69 -15 126 -15q73 0 158 17q15 114 60 225q71 173 204 319q163 177 318 177q67 0 139 -45q4 24 4 47q0 102 -83 162q-74 55 -179 55q-237 0 -447 -271q70 -16 117 -32l8 -11l-6 -16l-12 -2
q-19 0 -65 9q-51 10 -68 11q-208 -281 -274 -630zM434 489q44 334 260 605q-14 0 -43 2t-43 2q-172 0 -292 -69q-146 -85 -146 -245q0 -199 264 -295zM1118 14q-102 -41 -203 -41q-205 0 -337.5 129.5t-143.5 335.5q-364 130 -364 365q0 148 148.5 245t389.5 97q53 0 123 -6
q289 303 590 303q129 0 212 -65q91 -71 91 -197q0 -38 -8 -76q80 -86 80 -252q0 -229 -159 -469q-153 -231 -363 -342q52 -25 118 -25q176 0 376 183q111 101 286 327q6 -10 6 -22q0 -48 -137 -201t-236 -223q-147 -103 -301 -103q-86 0 -168 37zM1573 1554q-96 0 -96 39
q0 111 33 111q2 0 36 -7q23 -5 69 -14q30 -6 30 -84q0 -45 -72 -45zM1245 1554q-94 0 -94 39q0 111 31 111q2 0 35.5 -6.5t74.5 -16.5q27 -15 27 -82q0 -45 -74 -45z" />
    <glyph glyph-name="multiply" unicode="&#xd7;" horiz-adv-x="1706" 
d="M375 1161l481 -481l481 481l70 -67l-481 -484l481 -481l-70 -68l-481 482l-481 -482l-70 68l481 481l-481 484z" />
    <glyph glyph-name="Oslash" unicode="&#xd8;" horiz-adv-x="1790" 
d="M1069 41q-213 121 -213 375q-59 -13 -174 -13q-72 0 -113 9q0 -6 -1 -17.5t-1 -17.5q0 -165 99 -265t264 -100q67 0 139 29zM432 489q45 337 262 604q-61 5 -88 5q-172 0 -291 -69q-145 -85 -145 -245q0 -199 262 -295zM574 455q69 -15 126 -15q73 0 158 17
q15 114 60 225q71 173 204 319q163 177 318 177q63 0 137 -45q6 53 6 47q0 102 -84 163q-75 54 -180 54q-237 0 -446 -270q39 -12 116 -33l8 -13l-8 -14l-10 -4q-44 8 -131 22q-208 -281 -274 -630zM985 500q211 74 364 227q159 159 220 367q-39 41 -105 41
q-115 0 -256.5 -180.5t-222.5 -454.5zM1122 61q217 102 366 377q142 260 142 512q0 67 -26 109q-155 -440 -625 -607q-10 -66 -10 -114q0 -195 153 -277zM1118 14q-102 -41 -205 -41q-104 0 -202 43l-211 -348l-15 -2l-34 21l-2 14l202 346q-207 128 -217 391
q-366 130 -366 365q0 149 149.5 245.5t390.5 96.5q53 0 123 -6q287 301 608 301q70 0 134 -27l204 338h13l41 -25l2 -14l-201 -336q92 -80 92 -200q0 -34 -8 -72q80 -86 80 -252q0 -229 -159 -469q-153 -231 -363 -342q54 -25 116 -25q175 0 370 175q114 102 280 318
q6 -11 6 -22q0 -45 -132 -193t-232 -217q-144 -100 -296 -100q-86 0 -168 37z" />
    <glyph glyph-name="Ugrave" unicode="&#xd9;" horiz-adv-x="2198" 
d="M1729 391q-310 -416 -594 -416q-82 0 -136 44q-57 48 -57 128q0 68 41 195l174 537q39 120 39 192q0 172 -158 259q-126 69 -313 69q-168 0 -282 -58q-148 -74 -148 -225t161 -228q124 -59 294 -59q27 0 111 6l9 -6l2 -16l-6 -14q-62 -11 -149 -11q-247 0 -397 99.5
t-150 255.5q0 167 162 250q126 65 311 65q139 0 267 -32q170 -44 281 -127q144 -107 144 -255q0 -70 -67 -270l-160 -477q-29 -86 -29 -150q0 -50 44 -81q39 -27 91 -27q216 0 539 457q182 701 408 895l12 -1q6 -20 6 -40q0 -131 -77 -337q-70 -187 -183 -363
q-10 -13 -25 -38q-1 -3 -20 -78q-25 -107 -38 -180q-19 -103 -19 -168q0 -159 92 -159q117 0 483 505q8 -16 8 -26q0 -33 -117 -189q-262 -350 -415 -350q-164 0 -164 226q0 82 25 198zM1823 1515h-56l-149 172q-29 33 -29 60q0 47 53 47q34 0 62 -53z" />
    <glyph glyph-name="Uacute" unicode="&#xda;" horiz-adv-x="2198" 
d="M1729 391q-310 -416 -594 -416q-82 0 -136 44q-57 48 -57 128q0 68 41 195l174 537q39 120 39 192q0 172 -158 259q-126 69 -313 69q-168 0 -282 -58q-148 -74 -148 -225t161 -228q124 -59 294 -59q27 0 111 6l9 -6l2 -16l-6 -14q-62 -11 -149 -11q-247 0 -397 99.5
t-150 255.5q0 167 162 250q126 65 311 65q139 0 267 -32q170 -44 281 -127q144 -107 144 -255q0 -70 -67 -270l-160 -477q-29 -86 -29 -150q0 -50 44 -81q39 -27 91 -27q216 0 539 457q182 701 408 895l12 -1q6 -20 6 -40q0 -131 -77 -337q-70 -187 -183 -363
q-10 -13 -25 -38q-1 -3 -20 -78q-25 -107 -38 -180q-19 -103 -19 -168q0 -159 92 -159q117 0 483 505q8 -16 8 -26q0 -33 -117 -189q-262 -350 -415 -350q-164 0 -164 226q0 82 25 198zM1653 1515h-56l279 246q37 33 63 33q47 0 47 -51q0 -35 -53 -66z" />
    <glyph glyph-name="Ucircumflex" unicode="&#xdb;" horiz-adv-x="2198" 
d="M1729 391q-310 -416 -594 -416q-82 0 -136 44q-57 48 -57 128q0 68 41 195l174 537q39 120 39 192q0 172 -158 259q-126 69 -313 69q-168 0 -282 -58q-148 -74 -148 -225t161 -228q124 -59 294 -59q27 0 111 6l9 -6l2 -16l-6 -14q-62 -11 -149 -11q-247 0 -397 99.5
t-150 255.5q0 167 162 250q126 65 311 65q139 0 267 -32q170 -44 281 -127q144 -107 144 -255q0 -70 -67 -270l-160 -477q-29 -86 -29 -150q0 -50 44 -81q39 -27 91 -27q216 0 539 457q182 701 408 895l12 -1q6 -20 6 -40q0 -131 -77 -337q-70 -187 -183 -363
q-10 -13 -25 -38q-1 -3 -20 -78q-25 -107 -38 -180q-19 -103 -19 -168q0 -159 92 -159q117 0 483 505q8 -16 8 -26q0 -33 -117 -189q-262 -350 -415 -350q-164 0 -164 226q0 82 25 198zM1728 1786h101l160 -271h-52l-163 181l-297 -181h-66z" />
    <glyph glyph-name="Udieresis" unicode="&#xdc;" horiz-adv-x="2198" 
d="M1729 391q-310 -416 -594 -416q-82 0 -136 44q-57 48 -57 128q0 68 41 195l174 537q39 120 39 192q0 172 -158 259q-126 69 -313 69q-168 0 -282 -58q-148 -74 -148 -225t161 -228q124 -59 294 -59q27 0 111 6l9 -6l2 -16l-6 -14q-62 -11 -149 -11q-247 0 -397 99.5
t-150 255.5q0 167 162 250q126 65 311 65q139 0 267 -32q170 -44 281 -127q144 -107 144 -255q0 -70 -67 -270l-160 -477q-29 -86 -29 -150q0 -50 44 -81q39 -27 91 -27q216 0 539 457q182 701 408 895l12 -1q6 -20 6 -40q0 -131 -77 -337q-70 -187 -183 -363
q-10 -13 -25 -38q-1 -3 -20 -78q-25 -107 -38 -180q-19 -103 -19 -168q0 -159 92 -159q117 0 483 505q8 -16 8 -26q0 -33 -117 -189q-262 -350 -415 -350q-164 0 -164 226q0 82 25 198zM1929 1554q-96 0 -96 39q0 111 33 111q2 0 36 -7q23 -5 69 -14q30 -6 30 -84
q0 -45 -72 -45zM1601 1554q-94 0 -94 39q0 111 31 111q2 0 35.5 -6.5t74.5 -16.5q27 -15 27 -82q0 -45 -74 -45z" />
    <glyph glyph-name="Yacute" unicode="&#xdd;" horiz-adv-x="2195" 
d="M1292 -589q-14 30 -14 75q0 182 205 330h16l12 -13l-2 -12q-125 -106 -125 -233q0 -45 11 -82q151 37 248 200.5t174 532.5l180 860q-159 -299 -284 -505q-132 -219 -225 -332q-181 -220 -337 -220q-97 0 -150 60q-51 57 -51 155q0 64 33 168l158 500q26 82 26 152
q0 158 -142 242q-116 69 -286 69q-181 0 -302.5 -81.5t-121.5 -195.5q0 -119 115 -183q94 -52 223 -52q90 0 178 28l17 -2l4 -20l-4 -14q-115 -45 -252 -45q-160 0 -271 64q-135 79 -135 228q0 176 191 259q140 61 342 61q261 0 423.5 -108t162.5 -273q0 -65 -45 -207
l-121 -381q-49 -154 -49 -235q0 -123 102 -123q197 0 535 598q204 360 296 562q26 56 53 62q97 21 105 21q19 0 19 -21q0 -4 -2 -13l-164 -726q-140 -620 -304 -869.5t-431 -287.5zM1643 1515h-56l279 246q37 33 63 33q47 0 47 -51q0 -35 -53 -66z" />
    <glyph glyph-name="Thorn" unicode="&#xde;" horiz-adv-x="1688" 
d="M1092 346q36 -6 94 -6q184 0 309 130.5t125 315.5q0 272 -272 388q-31 -86 -108 -370.5t-148 -457.5zM606 266l-8 -10q-211 -10 -211 -127q0 -69 69 -107q56 -30 132 -30q132 0 224 108q124 143 253 580q97 326 195 522q-132 35 -306 35q-273 0 -448.5 -108t-175.5 -265
q0 -219 319 -295l8 -8l-8 -24l-12 -5q-175 20 -285 89q-143 89 -143 245q0 180 202.5 299t524.5 119q186 0 344 -37q148 252 276 332l11 2l16 -12l-4 -13q-123 -121 -209 -333q359 -132 359 -422q0 -209 -169 -361q-163 -149 -374 -149q-79 0 -117 4q-179 -338 -496 -338
q-123 0 -211 58t-88 130q0 144 299 144q17 0 33 -8v-15z" />
    <glyph glyph-name="germandbls" unicode="&#xdf;" horiz-adv-x="993" 
d="M90 -152h-12q-39 44 -39 142q0 101 47 268l156 555q127 451 399 612l14 -2q193 -135 193 -315q0 -97 -65 -166q-36 -38 -148 -110q-129 -83 -129 -134q0 -53 81 -119l149 -123q81 -82 81 -173q0 -105 -84 -189q163 40 432 471q9 -7 9 -24q0 -54 -107 -201
q-115 -158 -211 -229q-74 -55 -153 -75q-18 -2 -53 -9q-9 -4 -28 -12q-84 -35 -163 -35q-70 0 -126 22q-75 30 -75 90q0 45 42 71q35 21 83 21q25 0 49 -10v-8q-41 -26 -41 -70q0 -69 109 -69q83 0 138.5 49t55.5 131q0 69 -47 125q-21 26 -102 91q-142 115 -142 206
q0 57 42 108q21 25 87 81q218 183 218 321q0 117 -115 221q-71 -50 -132 -177t-173 -511z" />
    <glyph glyph-name="agrave" unicode="&#xe0;" 
d="M577 627q-34 32 -92 32q-89 0 -197 -137q-81 -103 -130 -219q-39 -92 -39 -162q0 -90 63 -90q95 0 235 244q85 148 160 332zM477 313q-187 -329 -321 -329q-87 0 -131 68q-37 58 -37 149q0 136 111 281q106 138 238 192q77 31 157 31q90 0 180 -39l10 -15v-4
q0 -23 -25 -100q-13 -41 -112 -379q-12 -41 -12 -72q0 -41 38 -41q88 0 435 495q6 -14 6 -28q0 -37 -86 -151q-291 -387 -408 -387q-102 0 -102 100q0 54 59 229zM619 780h-56l-149 172q-29 33 -29 60q0 47 53 47q34 0 62 -53z" />
    <glyph glyph-name="aacute" unicode="&#xe1;" 
d="M577 627q-34 32 -92 32q-89 0 -197 -137q-81 -103 -130 -219q-39 -92 -39 -162q0 -90 63 -90q95 0 235 244q85 148 160 332zM477 313q-187 -329 -321 -329q-87 0 -131 68q-37 58 -37 149q0 136 111 281q106 138 238 192q77 31 157 31q90 0 180 -39l10 -15v-4
q0 -23 -25 -100q-13 -41 -112 -379q-12 -41 -12 -72q0 -41 38 -41q88 0 435 495q6 -14 6 -28q0 -37 -86 -151q-291 -387 -408 -387q-102 0 -102 100q0 54 59 229zM449 780h-56l279 246q37 33 63 33q47 0 47 -51q0 -35 -53 -66z" />
    <glyph glyph-name="acircumflex" unicode="&#xe2;" 
d="M577 627q-34 32 -92 32q-89 0 -197 -137q-81 -103 -130 -219q-39 -92 -39 -162q0 -90 63 -90q95 0 235 244q85 148 160 332zM477 313q-187 -329 -321 -329q-87 0 -131 68q-37 58 -37 149q0 136 111 281q106 138 238 192q77 31 157 31q90 0 180 -39l10 -15v-4
q0 -23 -25 -100q-13 -41 -112 -379q-12 -41 -12 -72q0 -41 38 -41q88 0 435 495q6 -14 6 -28q0 -37 -86 -151q-291 -387 -408 -387q-102 0 -102 100q0 54 59 229zM524 1051h101l160 -271h-52l-163 181l-297 -181h-66z" />
    <glyph glyph-name="atilde" unicode="&#xe3;" 
d="M577 627q-34 32 -92 32q-89 0 -197 -137q-81 -103 -130 -219q-39 -92 -39 -162q0 -90 63 -90q95 0 235 244q85 148 160 332zM477 313q-187 -329 -321 -329q-87 0 -131 68q-37 58 -37 149q0 136 111 281q106 138 238 192q77 31 157 31q90 0 180 -39l10 -15v-4
q0 -23 -25 -100q-13 -41 -112 -379q-12 -41 -12 -72q0 -41 38 -41q88 0 435 495q6 -14 6 -28q0 -37 -86 -151q-291 -387 -408 -387q-102 0 -102 100q0 54 59 229zM795 1012h45q-44 -183 -170 -183q-39 0 -130.5 29t-127.5 29q-76 0 -95 -80h-47q47 176 168 176
q46 0 133 -27.5t130 -27.5q73 0 94 84z" />
    <glyph glyph-name="adieresis" unicode="&#xe4;" 
d="M577 627q-34 32 -92 32q-89 0 -197 -137q-81 -103 -130 -219q-39 -92 -39 -162q0 -90 63 -90q95 0 235 244q85 148 160 332zM477 313q-187 -329 -321 -329q-87 0 -131 68q-37 58 -37 149q0 136 111 281q106 138 238 192q77 31 157 31q90 0 180 -39l10 -15v-4
q0 -23 -25 -100q-13 -41 -112 -379q-12 -41 -12 -72q0 -41 38 -41q88 0 435 495q6 -14 6 -28q0 -37 -86 -151q-291 -387 -408 -387q-102 0 -102 100q0 54 59 229zM725 819q-96 0 -96 39q0 111 33 111q2 0 36 -7q23 -5 69 -14q30 -6 30 -84q0 -45 -72 -45zM397 819
q-94 0 -94 39q0 111 31 111q2 0 35.5 -6.5t74.5 -16.5q27 -15 27 -82q0 -45 -74 -45z" />
    <glyph glyph-name="aring" unicode="&#xe5;" 
d="M553 1130q78 0 132 -54t54 -132t-54 -132t-132 -54t-132 54t-54 132t54 132t132 54zM553 1063q-50 0 -84.5 -33.5t-34.5 -83.5t34.5 -85.5t84.5 -35.5t84.5 35.5t34.5 85.5q0 49 -35 83t-84 34zM577 627q-34 32 -92 32q-89 0 -197 -137q-81 -103 -130 -219
q-39 -92 -39 -162q0 -90 63 -90q95 0 235 244q85 148 160 332zM477 313q-187 -329 -321 -329q-87 0 -131 68q-37 58 -37 149q0 136 111 281q106 138 238 192q77 31 157 31q90 0 180 -39l10 -15v-4q0 -23 -25 -100q-13 -41 -112 -379q-12 -41 -12 -72q0 -41 38 -41
q88 0 435 495q6 -14 6 -28q0 -37 -86 -151q-291 -387 -408 -387q-102 0 -102 100q0 54 59 229z" />
    <glyph glyph-name="ae" unicode="&#xe6;" horiz-adv-x="1145" 
d="M580 254q132 31 224 112q107 95 107 218q0 80 -61 80q-84 0 -163.5 -115.5t-106.5 -294.5zM1319 559q6 -10 6 -27q0 -57 -86 -176q-275 -381 -557 -381q-240 0 -240 283q-156 -274 -286 -274q-87 0 -131 68q-37 58 -37 149q0 137 112 282q107 138 239 194q77 32 153 32
q114 0 176 -76q92 76 196 76q69 0 115 -35q51 -38 51 -105q0 -122 -169 -234q-123 -80 -281 -128q0 -174 153 -174q155 0 341 196q129 135 245 330zM577 627q-41 37 -92 37q-87 0 -196 -140q-83 -107 -131 -221q-39 -92 -39 -162q0 -90 63 -90q95 0 235 244q85 148 160 332z
" />
    <glyph glyph-name="ccedilla" unicode="&#xe7;" horiz-adv-x="729" 
d="M911 555q2 -8 2 -25q0 -49 -67 -147q-280 -408 -576 -408q-111 0 -181.5 72t-70.5 184q0 164 139 320q142 160 304 160q69 0 114 -33q52 -37 52 -103q0 -52 -38.5 -87t-90.5 -35q-42 0 -62 28q76 42 76 109q0 76 -66 76q-76 0 -152 -99q-57 -74 -92 -168
q-38 -102 -38 -186q0 -178 162 -178q152 0 339 195q127 132 246 325zM199 0h53l-35 -110q46 4 53 4q168 0 168 -146q0 -72 -59 -110q-50 -31 -127 -31q-157 0 -264 80l14 34q130 -61 211 -61q121 0 121 90q0 86 -119 86q-36 0 -76 -8z" />
    <glyph glyph-name="egrave" unicode="&#xe8;" horiz-adv-x="725" 
d="M160 254q130 29 224 112q108 96 108 218q0 78 -68 78q-80 0 -158.5 -116t-105.5 -292zM901 559q6 -8 6 -24q0 -57 -88 -179q-275 -381 -557 -381q-113 0 -176 71t-63 185q0 161 129 317q135 163 292 163q68 0 116 -36q52 -40 52 -106q0 -123 -170 -234
q-123 -80 -282 -128q0 -174 153 -174q156 0 342 195q129 136 246 331zM561 780h-56l-149 172q-29 33 -29 60q0 47 53 47q34 0 62 -53z" />
    <glyph glyph-name="eacute" unicode="&#xe9;" horiz-adv-x="725" 
d="M160 254q130 29 224 112q108 96 108 218q0 78 -68 78q-80 0 -158.5 -116t-105.5 -292zM901 559q6 -8 6 -24q0 -57 -88 -179q-275 -381 -557 -381q-113 0 -176 71t-63 185q0 161 129 317q135 163 292 163q68 0 116 -36q52 -40 52 -106q0 -123 -170 -234
q-123 -80 -282 -128q0 -174 153 -174q156 0 342 195q129 136 246 331zM391 780h-56l279 246q37 33 63 33q47 0 47 -51q0 -35 -53 -66z" />
    <glyph glyph-name="ecircumflex" unicode="&#xea;" horiz-adv-x="725" 
d="M160 254q130 29 224 112q108 96 108 218q0 78 -68 78q-80 0 -158.5 -116t-105.5 -292zM901 559q6 -8 6 -24q0 -57 -88 -179q-275 -381 -557 -381q-113 0 -176 71t-63 185q0 161 129 317q135 163 292 163q68 0 116 -36q52 -40 52 -106q0 -123 -170 -234
q-123 -80 -282 -128q0 -174 153 -174q156 0 342 195q129 136 246 331zM466 1051h101l160 -271h-52l-163 181l-297 -181h-66z" />
    <glyph glyph-name="edieresis" unicode="&#xeb;" horiz-adv-x="725" 
d="M160 254q130 29 224 112q108 96 108 218q0 78 -68 78q-80 0 -158.5 -116t-105.5 -292zM901 559q6 -8 6 -24q0 -57 -88 -179q-275 -381 -557 -381q-113 0 -176 71t-63 185q0 161 129 317q135 163 292 163q68 0 116 -36q52 -40 52 -106q0 -123 -170 -234
q-123 -80 -282 -128q0 -174 153 -174q156 0 342 195q129 136 246 331zM667 819q-96 0 -96 39q0 111 33 111q2 0 36 -7q23 -5 69 -14q30 -6 30 -84q0 -45 -72 -45zM339 819q-94 0 -94 39q0 111 31 111q2 0 35.5 -6.5t74.5 -16.5q27 -15 27 -82q0 -45 -74 -45z" />
    <glyph glyph-name="igrave" unicode="&#xec;" horiz-adv-x="506" 
d="M319 698q15 0 15 -14q0 -6 -2 -12l-139 -432q-33 -103 -33 -134q0 -59 51 -59q120 0 471 514q4 -18 4 -26q0 -63 -148 -246q-128 -160 -202 -221q-96 -80 -180 -80q-119 0 -119 125q0 42 29 131l131 403q10 32 39 37q75 14 83 14zM430 780h-56l-149 172q-29 33 -29 60
q0 47 53 47q34 0 62 -53z" />
    <glyph glyph-name="iacute" unicode="&#xed;" horiz-adv-x="506" 
d="M319 698q15 0 15 -14q0 -6 -2 -12l-139 -432q-33 -103 -33 -134q0 -59 51 -59q120 0 471 514q4 -18 4 -26q0 -63 -148 -246q-128 -160 -202 -221q-96 -80 -180 -80q-119 0 -119 125q0 42 29 131l131 403q10 32 39 37q75 14 83 14zM260 780h-56l279 246q37 33 63 33
q47 0 47 -51q0 -35 -53 -66z" />
    <glyph glyph-name="icircumflex" unicode="&#xee;" horiz-adv-x="506" 
d="M319 698q15 0 15 -14q0 -6 -2 -12l-139 -432q-33 -103 -33 -134q0 -59 51 -59q120 0 471 514q4 -18 4 -26q0 -63 -148 -246q-128 -160 -202 -221q-96 -80 -180 -80q-119 0 -119 125q0 42 29 131l131 403q10 32 39 37q75 14 83 14zM335 1051h101l160 -271h-52l-163 181
l-297 -181h-66z" />
    <glyph glyph-name="idieresis" unicode="&#xef;" horiz-adv-x="506" 
d="M319 698q15 0 15 -14q0 -6 -2 -12l-139 -432q-33 -103 -33 -134q0 -59 51 -59q120 0 471 514q4 -18 4 -26q0 -63 -148 -246q-128 -160 -202 -221q-96 -80 -180 -80q-119 0 -119 125q0 42 29 131l131 403q10 32 39 37q75 14 83 14zM536 819q-96 0 -96 39q0 111 33 111
q2 0 36 -7q23 -5 69 -14q30 -6 30 -84q0 -45 -72 -45zM208 819q-94 0 -94 39q0 111 31 111q2 0 35.5 -6.5t74.5 -16.5q27 -15 27 -82q0 -45 -74 -45z" />
    <glyph glyph-name="eth" unicode="&#xf0;" horiz-adv-x="858" 
d="M553 113q-138 -140 -283 -140q-118 0 -188 71t-70 189q0 167 145 322.5t310 155.5q66 0 133 -47q0 161 -33 307l-235 -84l-8 2l-11 24l9 13l235 86q-28 140 -74 268l6 14l39 15l15 -11q37 -84 106 -254l238 86l8 -6l10 -20l-8 -12l-233 -84q63 -195 63 -394
q0 -223 -109 -415q10 -43 52 -43q71 0 366 413q6 -10 6 -24q0 -22 -18 -57q-27 -53 -126.5 -179.5t-147.5 -170.5q-69 -62 -119 -62q-45 0 -78 37zM291 20q44 0 91 32q93 63 154 198q56 126 56 246q0 68 -32 117q-38 55 -103 55q-57 0 -119 -58q-79 -73 -128.5 -189
t-49.5 -224q0 -177 131 -177z" />
    <glyph glyph-name="ntilde" unicode="&#xf1;" horiz-adv-x="928" 
d="M317 700q17 0 17 -16q0 -8 -2 -14l-139 -443q305 475 456 475q48 0 80.5 -33t32.5 -81q0 -52 -68.5 -246.5t-68.5 -235.5q0 -34 39 -34q86 0 431 478q7 -10 7 -24q0 -50 -153 -243q-137 -172 -201 -228q-80 -69 -140 -69q-54 0 -87.5 36.5t-33.5 90.5q0 30 91 307
q49 149 49 168q0 30 -33 30q-61 0 -203 -180q-102 -129 -170 -243q-44 -73 -71 -142q-17 -43 -48 -49q-73 -14 -84 -14q-18 0 -18 18q0 14 4 27l182 592q15 47 47 55q75 18 84 18zM840 1012h45q-44 -183 -170 -183q-39 0 -130.5 29t-127.5 29q-76 0 -95 -80h-47
q47 176 168 176q46 0 133 -27.5t130 -27.5q73 0 94 84z" />
    <glyph glyph-name="ograve" unicode="&#xf2;" horiz-adv-x="858" 
d="M618 199q10 -43 52 -43q71 0 366 413q6 -10 6 -24q0 -22 -18 -57q-27 -53 -126.5 -179.5t-147.5 -170.5q-69 -62 -119 -62q-45 0 -78 37q-138 -140 -283 -140q-118 0 -188 71t-70 189q0 167 144.5 322.5t310.5 155.5q105 0 170 -80q59 -74 59 -182q0 -119 -78 -250z
M592 524q-28 144 -135 144q-57 0 -119 -58q-79 -73 -128.5 -189t-49.5 -224q0 -179 131 -179q104 0 217 173q-14 30 -14 75q0 126 98 258zM629 780h-56l-149 172q-29 33 -29 60q0 47 53 47q34 0 62 -53z" />
    <glyph glyph-name="oacute" unicode="&#xf3;" horiz-adv-x="858" 
d="M618 199q10 -43 52 -43q71 0 366 413q6 -10 6 -24q0 -22 -18 -57q-27 -53 -126.5 -179.5t-147.5 -170.5q-69 -62 -119 -62q-45 0 -78 37q-138 -140 -283 -140q-118 0 -188 71t-70 189q0 167 144.5 322.5t310.5 155.5q105 0 170 -80q59 -74 59 -182q0 -119 -78 -250z
M592 524q-28 144 -135 144q-57 0 -119 -58q-79 -73 -128.5 -189t-49.5 -224q0 -179 131 -179q104 0 217 173q-14 30 -14 75q0 126 98 258zM459 780h-56l279 246q37 33 63 33q47 0 47 -51q0 -35 -53 -66z" />
    <glyph glyph-name="ocircumflex" unicode="&#xf4;" horiz-adv-x="858" 
d="M618 199q10 -43 52 -43q71 0 366 413q6 -10 6 -24q0 -22 -18 -57q-27 -53 -126.5 -179.5t-147.5 -170.5q-69 -62 -119 -62q-45 0 -78 37q-138 -140 -283 -140q-118 0 -188 71t-70 189q0 167 144.5 322.5t310.5 155.5q105 0 170 -80q59 -74 59 -182q0 -119 -78 -250z
M592 524q-28 144 -135 144q-57 0 -119 -58q-79 -73 -128.5 -189t-49.5 -224q0 -179 131 -179q104 0 217 173q-14 30 -14 75q0 126 98 258zM534 1051h101l160 -271h-52l-163 181l-297 -181h-66z" />
    <glyph glyph-name="otilde" unicode="&#xf5;" horiz-adv-x="858" 
d="M618 199q10 -43 52 -43q71 0 366 413q6 -10 6 -24q0 -22 -18 -57q-27 -53 -126.5 -179.5t-147.5 -170.5q-69 -62 -119 -62q-45 0 -78 37q-138 -140 -283 -140q-118 0 -188 71t-70 189q0 167 144.5 322.5t310.5 155.5q105 0 170 -80q59 -74 59 -182q0 -119 -78 -250z
M592 524q-28 144 -135 144q-57 0 -119 -58q-79 -73 -128.5 -189t-49.5 -224q0 -179 131 -179q104 0 217 173q-14 30 -14 75q0 126 98 258zM805 1012h45q-44 -183 -170 -183q-39 0 -130.5 29t-127.5 29q-76 0 -95 -80h-47q47 176 168 176q46 0 133 -27.5t130 -27.5
q73 0 94 84z" />
    <glyph glyph-name="odieresis" unicode="&#xf6;" horiz-adv-x="858" 
d="M618 199q10 -43 52 -43q71 0 366 413q6 -10 6 -24q0 -22 -18 -57q-27 -53 -126.5 -179.5t-147.5 -170.5q-69 -62 -119 -62q-45 0 -78 37q-138 -140 -283 -140q-118 0 -188 71t-70 189q0 167 144.5 322.5t310.5 155.5q105 0 170 -80q59 -74 59 -182q0 -119 -78 -250z
M592 524q-28 144 -135 144q-57 0 -119 -58q-79 -73 -128.5 -189t-49.5 -224q0 -179 131 -179q104 0 217 173q-14 30 -14 75q0 126 98 258zM735 819q-96 0 -96 39q0 111 33 111q2 0 36 -7q23 -5 69 -14q30 -6 30 -84q0 -45 -72 -45zM407 819q-94 0 -94 39q0 111 31 111
q2 0 35.5 -6.5t74.5 -16.5q27 -15 27 -82q0 -45 -74 -45z" />
    <glyph glyph-name="divide" unicode="&#xf7;" horiz-adv-x="1706" 
d="M854 365q45 0 76 -31t31 -76t-31 -75.5t-76 -30.5t-75.5 30.5t-30.5 75.5q0 44 31 75.5t75 31.5zM254 659h1198v-98h-1198v98zM854 1071q44 0 75.5 -32t31.5 -76q0 -45 -31 -76t-76 -31q-46 0 -76 30.5t-30 76.5q0 44 31 76t75 32z" />
    <glyph glyph-name="oslash" unicode="&#xf8;" horiz-adv-x="858" 
d="M569 592l-362 -539q33 -35 80 -35q108 0 221 173q-14 30 -14 75q0 125 98 259q-7 37 -23 67zM176 94l365 543q-37 31 -82 31q-75 0 -152 -90q-60 -69 -97 -158q-50 -116 -50 -223q0 -61 16 -103zM553 113q-138 -142 -297 -142q-34 0 -86 23l-125 -184l-12 -5l-27 19v16
l115 174q-109 75 -109 219q0 165 142 320q146 158 309 158q60 0 108 -27l107 162l14 2l25 -17l4 -14l-109 -162q84 -74 84 -206q0 -118 -78 -250q10 -43 52 -43q71 0 366 413q6 -10 6 -24q0 -49 -123 -210q-109 -141 -169 -197q-69 -62 -119 -62q-45 0 -78 37z" />
    <glyph glyph-name="ugrave" unicode="&#xf9;" horiz-adv-x="922" 
d="M317 698q17 0 17 -14q0 -6 -4 -18l-162 -473q-18 -53 -18 -91q0 -41 38 -41q64 0 215 191q97 122 179 250q23 36 55 108q31 68 59 74q78 16 84 16q17 0 17 -16q0 -6 -4 -18l-160 -469q-19 -56 -19 -91q0 -45 41 -45q98 0 439 512q8 -16 8 -28q0 -60 -144 -247
q-124 -161 -197 -227q-97 -89 -163 -89q-109 0 -109 120q0 69 101 342q-310 -462 -465 -462q-105 0 -105 110q0 41 27 123l141 428q11 34 37 39q84 16 92 16zM660 780h-56l-149 172q-29 33 -29 60q0 47 53 47q34 0 62 -53z" />
    <glyph glyph-name="uacute" unicode="&#xfa;" horiz-adv-x="922" 
d="M317 698q17 0 17 -14q0 -6 -4 -18l-162 -473q-18 -53 -18 -91q0 -41 38 -41q64 0 215 191q97 122 179 250q23 36 55 108q31 68 59 74q78 16 84 16q17 0 17 -16q0 -6 -4 -18l-160 -469q-19 -56 -19 -91q0 -45 41 -45q98 0 439 512q8 -16 8 -28q0 -60 -144 -247
q-124 -161 -197 -227q-97 -89 -163 -89q-109 0 -109 120q0 69 101 342q-310 -462 -465 -462q-105 0 -105 110q0 41 27 123l141 428q11 34 37 39q84 16 92 16zM490 780h-56l279 246q37 33 63 33q47 0 47 -51q0 -35 -53 -66z" />
    <glyph glyph-name="ucircumflex" unicode="&#xfb;" horiz-adv-x="922" 
d="M317 698q17 0 17 -14q0 -6 -4 -18l-162 -473q-18 -53 -18 -91q0 -41 38 -41q64 0 215 191q97 122 179 250q23 36 55 108q31 68 59 74q78 16 84 16q17 0 17 -16q0 -6 -4 -18l-160 -469q-19 -56 -19 -91q0 -45 41 -45q98 0 439 512q8 -16 8 -28q0 -60 -144 -247
q-124 -161 -197 -227q-97 -89 -163 -89q-109 0 -109 120q0 69 101 342q-310 -462 -465 -462q-105 0 -105 110q0 41 27 123l141 428q11 34 37 39q84 16 92 16zM565 1051h101l160 -271h-52l-163 181l-297 -181h-66z" />
    <glyph glyph-name="udieresis" unicode="&#xfc;" horiz-adv-x="922" 
d="M317 698q17 0 17 -14q0 -6 -4 -18l-162 -473q-18 -53 -18 -91q0 -41 38 -41q64 0 215 191q97 122 179 250q23 36 55 108q31 68 59 74q78 16 84 16q17 0 17 -16q0 -6 -4 -18l-160 -469q-19 -56 -19 -91q0 -45 41 -45q98 0 439 512q8 -16 8 -28q0 -60 -144 -247
q-124 -161 -197 -227q-97 -89 -163 -89q-109 0 -109 120q0 69 101 342q-310 -462 -465 -462q-105 0 -105 110q0 41 27 123l141 428q11 34 37 39q84 16 92 16zM766 819q-96 0 -96 39q0 111 33 111q2 0 36 -7q23 -5 69 -14q30 -6 30 -84q0 -45 -72 -45zM438 819q-94 0 -94 39
q0 111 31 111q2 0 35.5 -6.5t74.5 -16.5q27 -15 27 -82q0 -45 -74 -45z" />
    <glyph glyph-name="yacute" unicode="&#xfd;" horiz-adv-x="922" 
d="M254 -514q157 82 197 385q-211 -146 -211 -311q0 -32 14 -74zM557 -106q-101 -391 -381 -494l-12 2q-14 40 -14 86q0 222 304 442q16 111 124 473q-247 -403 -441 -403q-104 0 -104 119q0 41 26 121l134 412q8 26 40 30q78 10 84 10q5 0 10 -2q3 -5 3 -8t-4 -16
l-146 -468q-14 -45 -14 -85q0 -39 41 -39q88 0 242 215q109 152 183 301q17 35 28 52q24 40 38 42q84 10 88 10q15 0 15 -10q0 -8 -27 -80q-121 -323 -199 -641q205 168 515 585q6 -12 6 -26q0 -23 -20.5 -59t-102.5 -137q-149 -185 -242 -280t-174 -152zM490 780h-56
l279 246q37 33 63 33q47 0 47 -51q0 -35 -53 -66z" />
    <glyph glyph-name="thorn" unicode="&#xfe;" horiz-adv-x="887" 
d="M-12 -436q48 90 82 514q-99 -159 -99 -412q0 -51 17 -102zM-35 -600h-8q-31 99 -31 244q0 146 39 281q37 127 108 253l17 31l230 1037q8 35 40 42q84 17 86 17q27 0 19 -31l-203 -834q199 271 346 271q76 0 119 -49.5t43 -126.5q0 -230 -328 -408q39 -59 117 -59
q123 0 293 202q84 99 219 307q6 -13 6 -30q0 -70 -150 -252q-134 -164 -217 -224q-104 -77 -206 -77q-83 0 -151 38t-68 72q0 17 54 43q150 73 225 181q59 86 59 172q0 45 -26.5 75.5t-70.5 30.5q-55 0 -133 -75q-66 -65 -137 -179q-10 -15 -20 -33l-12 -51l-33 -144
q-57 -245 -110 -426q-65 -220 -116 -298z" />
    <glyph glyph-name="ydieresis" unicode="&#xff;" horiz-adv-x="922" 
d="M254 -514q157 82 197 385q-211 -146 -211 -311q0 -32 14 -74zM557 -106q-101 -391 -381 -494l-12 2q-14 40 -14 86q0 222 304 442q16 111 124 473q-247 -403 -441 -403q-104 0 -104 119q0 41 26 121l134 412q8 26 40 30q78 10 84 10q5 0 10 -2q3 -5 3 -8t-4 -16
l-146 -468q-14 -45 -14 -85q0 -39 41 -39q88 0 242 215q109 152 183 301q17 35 28 52q24 40 38 42q84 10 88 10q15 0 15 -10q0 -8 -27 -80q-121 -323 -199 -641q205 168 515 585q6 -12 6 -26q0 -23 -20.5 -59t-102.5 -137q-149 -185 -242 -280t-174 -152zM766 819
q-96 0 -96 39q0 111 33 111q2 0 36 -7q23 -5 69 -14q30 -6 30 -84q0 -45 -72 -45zM438 819q-94 0 -94 39q0 111 31 111q2 0 35.5 -6.5t74.5 -16.5q27 -15 27 -82q0 -45 -74 -45z" />
    <glyph glyph-name="glyph271" unicode="&#x102;" horiz-adv-x="2232" 
d="M1532 717q-291 172 -518 172q-113 0 -194 -39q-105 -51 -105 -152q0 -150 216 -235q147 -58 343 -72q85 81 258 326zM2154 1321q-121 -39 -487 -637q60 -42 176 -129q175 568 311 766zM1917 420q-23 -88 -23 -166q0 -147 86 -211q31 66 31 145q0 128 -94 232zM1931 483
q142 -172 142 -374q0 -150 -31 -150q-8 0 -37 18q-197 122 -197 357q0 74 25 168q-87 74 -193 141q-108 -159 -192 -254h49q23 0 125 4l10 -8l2 -20l-9 -8q-59 -11 -218 -11q-354 -356 -727 -356q-183 0 -302 70q-122 71 -122 169q0 89 80 135q65 37 160 37q165 0 311 -84
l4 -14l-8 -16l-12 -4q-141 63 -234 63q-174 0 -174 -137q0 -90 113 -140q88 -38 192 -38q250 0 551 319q-220 22 -383 95q-233 103 -233 276q0 115 112 173q89 46 215 46q300 0 609 -184q144 218 306 395q244 264 394 264q27 0 27 -24q0 -19 -124 -321q-127 -307 -231 -587z
M2010 1709h45q26 -141 170 -141q171 0 295 141h49q-150 -245 -350 -245q-199 0 -209 245z" />
    <glyph glyph-name="glyph272" unicode="&#x103;" 
d="M577 627q-34 32 -92 32q-89 0 -197 -137q-81 -103 -130 -219q-39 -92 -39 -162q0 -90 63 -90q95 0 235 244q85 148 160 332zM477 313q-187 -329 -321 -329q-87 0 -131 68q-37 58 -37 149q0 136 111 281q106 138 238 192q77 31 157 31q90 0 180 -39l10 -15v-4
q0 -23 -25 -100q-13 -41 -112 -379q-12 -41 -12 -72q0 -41 38 -41q88 0 435 495q6 -14 6 -28q0 -37 -86 -151q-291 -387 -408 -387q-102 0 -102 100q0 54 59 229zM305 1038h45q26 -141 170 -141q171 0 295 141h49q-150 -245 -350 -245q-199 0 -209 245z" />
    <glyph glyph-name="Cacute" unicode="&#x106;" horiz-adv-x="1651" 
d="M696 739q97 273 324 484q-167 53 -371 53q-167 0 -293 -55q-166 -74 -166 -220q0 -151 190 -217q126 -43 316 -45zM1139 1229q205 -96 256 -256q180 165 180 307q0 131 -129 131q-146 0 -307 -182zM866 745q285 40 492 189q-40 172 -246 260q-149 -195 -246 -449z
M684 694q-614 22 -614 324q0 166 199 246q144 57 341 57q231 0 447 -66q229 201 409 201q92 0 148 -50q59 -53 59 -144q0 -203 -266 -377q0 -311 -412 -439l-10 7l-6 18l8 10q371 130 371 377q-219 -120 -510 -160q-35 -117 -35 -256q0 -191 102 -302q105 -115 295 -115
q201 0 400 189q124 118 284 359q7 -19 7 -28q0 -59 -166 -256q-265 -314 -566 -314q-226 0 -370 139t-144 365q0 99 29 215zM1389 1515h-56l279 246q37 33 63 33q47 0 47 -51q0 -35 -53 -66z" />
    <glyph glyph-name="cacute" unicode="&#x107;" horiz-adv-x="729" 
d="M911 555q2 -8 2 -25q0 -49 -67 -147q-280 -408 -576 -408q-111 0 -181.5 72t-70.5 184q0 164 139 320q142 160 304 160q69 0 114 -33q52 -37 52 -103q0 -52 -38.5 -87t-90.5 -35q-42 0 -62 28q76 42 76 109q0 76 -66 76q-76 0 -152 -99q-57 -74 -92 -168
q-38 -102 -38 -186q0 -178 162 -178q152 0 339 195q127 132 246 325zM420 780h-56l279 246q37 33 63 33q47 0 47 -51q0 -35 -53 -66z" />
    <glyph glyph-name="Ccaron" unicode="&#x10c;" horiz-adv-x="1651" 
d="M696 739q97 273 324 484q-167 53 -371 53q-167 0 -293 -55q-166 -74 -166 -220q0 -151 190 -217q126 -43 316 -45zM1139 1229q205 -96 256 -256q180 165 180 307q0 131 -129 131q-146 0 -307 -182zM866 745q285 40 492 189q-40 172 -246 260q-149 -195 -246 -449z
M684 694q-614 22 -614 324q0 166 199 246q144 57 341 57q231 0 447 -66q229 201 409 201q92 0 148 -50q59 -53 59 -144q0 -203 -266 -377q0 -311 -412 -439l-10 7l-6 18l8 10q371 130 371 377q-219 -120 -510 -160q-35 -117 -35 -256q0 -191 102 -302q105 -115 295 -115
q201 0 400 189q124 118 284 359q7 -19 7 -28q0 -59 -166 -256q-265 -314 -566 -314q-226 0 -370 139t-144 365q0 99 29 215zM1258 1786h53l164 -181l295 181h67l-319 -271h-101z" />
    <glyph glyph-name="ccaron" unicode="&#x10d;" horiz-adv-x="729" 
d="M911 555q2 -8 2 -25q0 -49 -67 -147q-280 -408 -576 -408q-111 0 -181.5 72t-70.5 184q0 164 139 320q142 160 304 160q69 0 114 -33q52 -37 52 -103q0 -52 -38.5 -87t-90.5 -35q-42 0 -62 28q76 42 76 109q0 76 -66 76q-76 0 -152 -99q-57 -74 -92 -168
q-38 -102 -38 -186q0 -178 162 -178q152 0 339 195q127 132 246 325zM289 1051h53l164 -181l295 181h67l-319 -271h-101z" />
    <glyph glyph-name="Dslash" unicode="&#x110;" horiz-adv-x="1890" 
d="M739 129q-85 25 -176 25q-171 0 -272 -107q62 -24 137 -24q193 0 311 106zM864 137q169 -69 299 -69q220 0 355 130t135 349q0 175 -97 333q-91 148 -245 250q-62 -138 -172 -499h227l10 -10l-8 -29l-12 -10h-230q-105 -278 -262 -445zM829 100q-140 -116 -376 -116
q-192 0 -314 59v12q122 150 375 150q127 0 266 -41q93 106 205 418h-274l-6 12l4 27l12 10h280l18 57q71 225 81 255q54 158 100 247q-240 121 -475 121q-201 0 -326 -108q-133 -114 -133 -312q0 -205 228 -373l4 -16l-9 -17l-14 -2q-342 192 -342 457q0 205 178 323
q155 103 371 103q253 0 545 -135q171 221 428 239l10 -8v-18l-10 -10q-229 -49 -328 -256q438 -321 438 -684q0 -214 -148 -362t-362 -148q-170 0 -426 116z" />
    <glyph glyph-name="dcroat" unicode="&#x111;" horiz-adv-x="831" 
d="M543 608q-34 47 -78 47q-77 0 -181 -136q-82 -107 -123 -208q-40 -96 -40 -168q0 -96 72 -96t173 157.5t177 403.5zM459 281q-169 -299 -297 -299q-86 0 -132 63q-40 56 -40 145q0 146 101 287q98 137 236 197q65 28 124 28q47 0 108 -26l76 301h-221l-6 12l8 29l10 6
h221l60 225q11 41 36 45q78 11 82 11q21 0 21 -17q0 -2 -6 -24l-66 -240h139l11 -10l-6 -29l-15 -8h-139l-215 -795q-17 -63 -17 -80q0 -55 35 -55q41 0 125 96q82 93 303 404q4 -15 4 -37q0 -49 -150 -241q-136 -174 -195 -224q-74 -63 -142 -63q-98 0 -98 92q0 74 45 207z
" />
    <glyph glyph-name="Gbreve" unicode="&#x11e;" horiz-adv-x="2218" 
d="M842 449q32 208 211 454q-200 53 -348 53q-160 0 -279 -55q-154 -73 -154 -215q0 -135 133 -201q102 -51 252 -51q80 0 185 15zM1006 475q301 59 503 162q196 100 334 227q187 174 187 338q0 160 -162 160q-155 0 -359 -169q-148 -123 -284 -298q70 -25 159 -61l7 -17
l-13 -20h-10q-61 27 -174 61q-129 -170 -188 -383zM1903 360q-429 -372 -725 -372q-159 0 -253 111q-89 104 -89 266q0 7 1 20t1 20q-102 -14 -199 -14q-185 0 -318 65q-171 83 -171 249q0 161 169 243q131 64 310 64q192 0 454 -72q165 196 373 325q244 150 465 150
q244 0 244 -203q0 -191 -277 -400q-204 -155 -453 -254q-203 -81 -441 -128q-11 -41 -11 -115q0 -126 68.5 -197t193.5 -71q308 0 809 516l10 -2q-78 -695 -270 -947q-57 -73 -152 -149q-62 -49 -92 -49q-32 0 -32 88q0 192 149 377l10 2l15 -8l2 -12q-82 -133 -82 -230
q0 -60 27 -114q91 49 148 217q55 163 116 624zM1708 1773h45q26 -141 170 -141q171 0 295 141h49q-150 -245 -350 -245q-199 0 -209 245z" />
    <glyph glyph-name="gbreve" unicode="&#x11f;" horiz-adv-x="844" 
d="M573 625q-32 34 -84 34q-83 0 -192 -127q-87 -100 -136 -204q-46 -98 -46 -172q0 -90 67 -90q95 0 233 236q82 141 158 323zM172 -500q160 84 197 359q-205 -126 -205 -301q0 -15 8 -58zM96 -592l-12 2q-14 26 -14 64q0 250 299 440q11 142 110 408q-180 -326 -332 -326
q-78 0 -123 67q-38 58 -38 140q0 190 162 346t352 156q184 0 184 -60q0 -20 -70 -260l-118 -405q199 137 518 575q4 -34 4 -27q0 -21 -12 -47q-24 -50 -146 -194q-102 -122 -170 -192q-113 -115 -209 -179q-84 -383 -385 -508zM305 1038h45q26 -141 170 -141q171 0 295 141
h49q-150 -245 -350 -245q-199 0 -209 245z" />
    <glyph glyph-name="glyph273" unicode="&#x128;" horiz-adv-x="1532" 
d="M1139 1090q-228 -27 -463 -256h37q146 0 255 61q121 67 171 195zM1272 1128q-77 -162 -241 -257q-158 -92 -342 -92q-30 0 -60 3q-100 -130 -178 -286l-13 -7l-18 9l-4 12q49 132 164 281q-130 14 -223 81q-111 78 -111 199q0 142 175 243t445 101q263 0 423 -121
q179 -134 179 -389q0 -167 -73 -364q-152 -410 -490 -580q-144 -72 -274 -72q-89 0 -146 34q-71 41 -71 124q0 96 94 165q80 59 184 75l10 -6l3 -15l-3 -12q-176 -54 -176 -170q0 -67 56 -104q47 -31 118 -31q101 0 203 58q198 112 310 389q98 240 98 499q0 134 -39 233z
M1262 1151q-101 219 -426 219q-204 0 -336.5 -84.5t-132.5 -206.5q0 -183 251 -239q315 313 607 313q6 0 18.5 -1t18.5 -1zM1303 1747h45q-44 -183 -170 -183q-39 0 -130.5 29t-127.5 29q-76 0 -95 -80h-47q47 176 168 176q46 0 133 -27.5t130 -27.5q73 0 94 84z" />
    <glyph glyph-name="glyph274" unicode="&#x129;" horiz-adv-x="506" 
d="M319 698q15 0 15 -14q0 -6 -2 -12l-139 -432q-33 -103 -33 -134q0 -59 51 -59q120 0 471 514q4 -18 4 -26q0 -63 -148 -246q-128 -160 -202 -221q-96 -80 -180 -80q-119 0 -119 125q0 42 29 131l131 403q10 32 39 37q75 14 83 14zM605 1012h45q-44 -183 -170 -183
q-39 0 -130.5 29t-127.5 29q-76 0 -95 -80h-47q47 176 168 176q46 0 133 -27.5t130 -27.5q73 0 94 84z" />
    <glyph glyph-name="Idotaccent" unicode="&#x130;" horiz-adv-x="1532" 
d="M1139 1090q-228 -27 -463 -256h37q146 0 255 61q121 67 171 195zM1272 1128q-77 -162 -241 -257q-158 -92 -342 -92q-30 0 -60 3q-100 -130 -178 -286l-13 -7l-18 9l-4 12q49 132 164 281q-130 14 -223 81q-111 78 -111 199q0 142 175 243t445 101q263 0 423 -121
q179 -134 179 -389q0 -167 -73 -364q-152 -410 -490 -580q-144 -72 -274 -72q-89 0 -146 34q-71 41 -71 124q0 96 94 165q80 59 184 75l10 -6l3 -15l-3 -12q-176 -54 -176 -170q0 -67 56 -104q47 -31 118 -31q101 0 203 58q198 112 310 389q98 240 98 499q0 134 -39 233z
M1262 1151q-101 219 -426 219q-204 0 -336.5 -84.5t-132.5 -206.5q0 -183 251 -239q315 313 607 313q6 0 18.5 -1t18.5 -1zM950 1550q-98 0 -98 41q0 115 33 115q2 0 38 -7q23 -5 71 -14q32 -7 32 -88q0 -47 -76 -47z" />
    <glyph glyph-name="dotlessi" unicode="&#x131;" horiz-adv-x="506" 
d="M319 698q15 0 15 -14q0 -6 -2 -12l-139 -432q-33 -103 -33 -134q0 -59 51 -59q120 0 471 514q4 -18 4 -26q0 -63 -148 -246q-128 -160 -202 -221q-96 -80 -180 -80q-119 0 -119 125q0 42 29 131l131 403q10 32 39 37q75 14 83 14z" />
    <glyph glyph-name="Lslash" unicode="&#x141;" horiz-adv-x="1726" 
d="M631 141q-78 43 -170 43q-121 0 -238 -123q48 -28 119 -28q191 0 289 108zM688 117q-135 -123 -326 -123q-183 0 -335 102v10q174 119 385 119q126 0 243 -45q43 60 181 473l-322 -139l-10 8l6 31l12 12l328 146q78 288 195 471q170 266 399 266q79 0 130 -37
q58 -41 58 -117q0 -61 -30 -106l-11 -4l-28 16v11q18 46 18 79q0 119 -125 119q-268 0 -452 -653l491 217l10 -4l-8 -41l-12 -13l-502 -219q-113 -360 -260 -538q331 -129 631 -129q198 0 198 108q0 66 -65 99q-51 26 -123 26q-94 0 -176 -37l-12 2l-5 17l7 12q82 47 188 47
q92 0 154 -41q73 -47 73 -135q0 -107 -94 -162q-77 -45 -192 -45q-233 0 -619 197z" />
    <glyph glyph-name="lslash" unicode="&#x142;" horiz-adv-x="645" 
d="M274 485q224 294 224 572q0 74 -19 188q-158 -312 -205 -760zM264 403q-20 -102 -20 -172q0 -176 100 -176q133 0 475 506q6 -18 6 -35q0 -37 -110 -190q-258 -359 -418 -359q-97 0 -146 82q-40 68 -40 172q0 125 61 369l-158 -59l-8 8l4 35q5 9 174 69q161 586 375 770
l14 2q35 -33 35 -149q0 -241 -121 -514l205 74l8 -7l-6 -32l-10 -15l-229 -80q-85 -171 -191 -299z" />
    <glyph glyph-name="OE" unicode="&#x152;" horiz-adv-x="2615" 
d="M432 489q45 337 262 604q-61 5 -88 5q-172 0 -292 -69q-146 -85 -146 -245q0 -198 264 -295zM1012 121l-13 -8l-14 4q-103 109 -113 305q-82 -19 -188 -19q-69 0 -117 8q-2 -12 -2 -38q0 -161 97 -259t258 -98q293 0 512 329q198 296 198 605q0 67 -26 109
q-156 -446 -633 -611q-6 -50 -6 -88q0 -133 49 -227zM574 455q67 -15 131 -15q90 0 169 25q8 112 48 219q63 170 201 318q163 176 317 176q63 0 137 -45q6 53 6 47q0 102 -84 163q-75 54 -180 54q-236 0 -449 -271q41 -9 121 -32l4 -13l-4 -12l-12 -2q-12 0 -62 8
q-55 9 -69 10q-208 -281 -274 -630zM981 498q212 73 367 227q159 159 221 369q-39 41 -107 41q-101 0 -236 -160q-104 -122 -167 -253q-54 -110 -78 -224zM2177 799q-135 15 -225 73q-113 74 -113 195q0 162 199 266q167 86 346 86q86 0 146 -29q77 -39 77 -116
q0 -111 -124 -167q-94 -42 -220 -42q-63 0 -76 10l2 25l11 6q30 -6 77 -6q88 0 148 32q76 41 76 121q0 119 -142 119q-139 0 -249 -79q-123 -88 -123 -222q0 -197 309 -254l10 -10l-2 -21l-10 -6q-308 -43 -497 -187.5t-189 -326.5q0 -132 103 -199q88 -57 226 -57
q177 0 300.5 84t123.5 195q0 71 -54 110q-48 35 -122 35q-131 0 -368 -164l-13 2l-10 15l4 12q276 207 467 207q88 0 153 -43q74 -49 74 -133q0 -111 -131 -213q-104 -80 -234 -121q-119 -37 -247 -37q-180 0 -289 74q-127 86 -127 258q-245 -318 -549 -318
q-205 0 -337.5 129.5t-143.5 335.5q-366 130 -366 365q0 148 149.5 245t390.5 97q53 0 123 -6q289 303 590 303q132 0 214 -67q89 -72 89 -201q0 -32 -8 -70q80 -99 80 -250q0 -149 -62 -279q182 169 543 224z" />
    <glyph glyph-name="oe" unicode="&#x153;" horiz-adv-x="1233" 
d="M668 254q132 31 223 112q106 94 106 218q0 82 -61 82q-107 0 -187 -158q-60 -117 -81 -254zM293 20q51 0 106 39q89 64 146 185q53 116 53 231q0 76 -29 127q-35 64 -106 64q-79 0 -155 -86q-58 -66 -97 -156q-51 -118 -51 -225q0 -179 133 -179zM676 565
q136 146 276 146q67 0 114 -37q52 -39 52 -105q0 -122 -169 -234q-123 -80 -281 -128q0 -174 153 -174q155 0 341 196q129 135 245 330q6 -10 6 -24q0 -58 -88 -179q-278 -383 -555 -383q-156 0 -219 138q-128 -138 -279 -138q-117 0 -188.5 71.5t-71.5 188.5
q0 167 144.5 322.5t310.5 155.5q143 0 209 -146z" />
    <glyph glyph-name="Scedilla" unicode="&#x15e;" horiz-adv-x="1384" 
d="M850 489l12 -8l2 -20l-10 -12q-471 0 -471 -250q0 -95 95 -144q74 -39 179 -39q197 0 333 107t136 250q0 115 -117 245l-216 218q-117 131 -117 251q0 145 150 252t368 107q104 0 176 -34q96 -44 96 -136q0 -106 -130 -162q-100 -43 -222 -43q-27 0 -71 4l-11 8v17l8 10
q293 0 293 164q0 123 -184 123q-125 0 -227 -68q-115 -76 -115 -196q0 -111 139 -252l182 -185q132 -134 132 -278q0 -70 -38 -143q-76 -146 -253 -229q-158 -73 -338 -73q-149 0 -257 48q-143 65 -143 196q0 272 619 272zM512 0h53l-35 -110q46 4 53 4q168 0 168 -146
q0 -72 -59 -110q-50 -31 -127 -31q-157 0 -264 80l14 34q130 -61 211 -61q121 0 121 90q0 86 -119 86q-36 0 -76 -8z" />
    <glyph glyph-name="scedilla" unicode="&#x15f;" horiz-adv-x="737" 
d="M203 -20q-71 0 -126 23q-75 30 -75 91q0 43 38 68q33 22 79 22q31 0 57 -10v-8q-41 -26 -41 -70q0 -71 109 -71q66 0 116 31q58 37 58 100q0 70 -137.5 171t-137.5 175q0 96 111 157q92 50 197 50q145 0 145 -93q0 -44 -51 -74q-43 -25 -92 -28l-7 10q39 31 39 78
q0 60 -86 60q-52 0 -90 -24q-45 -28 -45 -77q0 -46 71 -104q65 -52 131 -104q71 -67 71 -136q0 -61 -60 -123q163 27 436 481q9 -7 9 -24q0 -60 -111 -211q-117 -160 -212 -230q-73 -53 -150 -73q-19 -3 -55 -10l-27 -12q-85 -35 -164 -35zM142 0h53l-35 -110q46 4 53 4
q168 0 168 -146q0 -72 -59 -110q-50 -31 -127 -31q-157 0 -264 80l14 34q130 -61 211 -61q121 0 121 90q0 86 -119 86q-36 0 -76 -8z" />
    <glyph glyph-name="Scaron" unicode="&#x160;" horiz-adv-x="1384" 
d="M850 489l12 -8l2 -20l-10 -12q-471 0 -471 -250q0 -95 95 -144q74 -39 179 -39q197 0 333 107t136 250q0 115 -117 245l-216 218q-117 131 -117 251q0 145 150 252t368 107q104 0 176 -34q96 -44 96 -136q0 -106 -130 -162q-100 -43 -222 -43q-27 0 -71 4l-11 8v17l8 10
q293 0 293 164q0 123 -184 123q-125 0 -227 -68q-115 -76 -115 -196q0 -111 139 -252l182 -185q132 -134 132 -278q0 -70 -38 -143q-76 -146 -253 -229q-158 -73 -338 -73q-149 0 -257 48q-143 65 -143 196q0 272 619 272zM1045 1786h53l164 -181l295 181h67l-319 -271h-101
z" />
    <glyph glyph-name="scaron" unicode="&#x161;" horiz-adv-x="737" 
d="M203 -20q-71 0 -126 23q-75 30 -75 91q0 43 38 68q33 22 79 22q31 0 57 -10v-8q-41 -26 -41 -70q0 -71 109 -71q66 0 116 31q58 37 58 100q0 70 -137.5 171t-137.5 175q0 96 111 157q92 50 197 50q145 0 145 -93q0 -44 -51 -74q-43 -25 -92 -28l-7 10q39 31 39 78
q0 60 -86 60q-52 0 -90 -24q-45 -28 -45 -77q0 -46 71 -104q65 -52 131 -104q71 -67 71 -136q0 -61 -60 -123q163 27 436 481q9 -7 9 -24q0 -60 -111 -211q-117 -160 -212 -230q-73 -53 -150 -73q-19 -3 -55 -10l-27 -12q-85 -35 -164 -35zM267 1051h53l164 -181l295 181h67
l-319 -271h-101z" />
    <glyph glyph-name="glyph275" unicode="&#x168;" horiz-adv-x="2198" 
d="M1729 391q-310 -416 -594 -416q-82 0 -136 44q-57 48 -57 128q0 68 41 195l174 537q39 120 39 192q0 172 -158 259q-126 69 -313 69q-168 0 -282 -58q-148 -74 -148 -225t161 -228q124 -59 294 -59q27 0 111 6l9 -6l2 -16l-6 -14q-62 -11 -149 -11q-247 0 -397 99.5
t-150 255.5q0 167 162 250q126 65 311 65q139 0 267 -32q170 -44 281 -127q144 -107 144 -255q0 -70 -67 -270l-160 -477q-29 -86 -29 -150q0 -50 44 -81q39 -27 91 -27q216 0 539 457q182 701 408 895l12 -1q6 -20 6 -40q0 -131 -77 -337q-70 -187 -183 -363
q-10 -13 -25 -38q-1 -3 -20 -78q-25 -107 -38 -180q-19 -103 -19 -168q0 -159 92 -159q117 0 483 505q8 -16 8 -26q0 -33 -117 -189q-262 -350 -415 -350q-164 0 -164 226q0 82 25 198zM1993 1747h45q-44 -183 -170 -183q-39 0 -130.5 29t-127.5 29q-76 0 -95 -80h-47
q47 176 168 176q46 0 133 -27.5t130 -27.5q73 0 94 84z" />
    <glyph glyph-name="glyph276" unicode="&#x169;" horiz-adv-x="922" 
d="M317 698q17 0 17 -14q0 -6 -4 -18l-162 -473q-18 -53 -18 -91q0 -41 38 -41q64 0 215 191q97 122 179 250q23 36 55 108q31 68 59 74q78 16 84 16q17 0 17 -16q0 -6 -4 -18l-160 -469q-19 -56 -19 -91q0 -45 41 -45q98 0 439 512q8 -16 8 -28q0 -60 -144 -247
q-124 -161 -197 -227q-97 -89 -163 -89q-109 0 -109 120q0 69 101 342q-310 -462 -465 -462q-105 0 -105 110q0 41 27 123l141 428q11 34 37 39q84 16 92 16zM805 1012h45q-44 -183 -170 -183q-39 0 -130.5 29t-127.5 29q-76 0 -95 -80h-47q47 176 168 176q46 0 133 -27.5
t130 -27.5q73 0 94 84z" />
    <glyph glyph-name="Ydieresis" unicode="&#x178;" horiz-adv-x="2195" 
d="M1292 -589q-14 30 -14 75q0 182 205 330h16l12 -13l-2 -12q-125 -106 -125 -233q0 -45 11 -82q151 37 248 200.5t174 532.5l180 860q-159 -299 -284 -505q-132 -219 -225 -332q-181 -220 -337 -220q-97 0 -150 60q-51 57 -51 155q0 64 33 168l158 500q26 82 26 152
q0 158 -142 242q-116 69 -286 69q-181 0 -302.5 -81.5t-121.5 -195.5q0 -119 115 -183q94 -52 223 -52q90 0 178 28l17 -2l4 -20l-4 -14q-115 -45 -252 -45q-160 0 -271 64q-135 79 -135 228q0 176 191 259q140 61 342 61q261 0 423.5 -108t162.5 -273q0 -65 -45 -207
l-121 -381q-49 -154 -49 -235q0 -123 102 -123q197 0 535 598q204 360 296 562q26 56 53 62q97 21 105 21q19 0 19 -21q0 -4 -2 -13l-164 -726q-140 -620 -304 -869.5t-431 -287.5zM1919 1554q-96 0 -96 39q0 111 33 111q2 0 36 -7q23 -5 69 -14q30 -6 30 -84q0 -45 -72 -45
zM1591 1554q-94 0 -94 39q0 111 31 111q2 0 35.5 -6.5t74.5 -16.5q27 -15 27 -82q0 -45 -74 -45z" />
    <glyph glyph-name="Zcaron" unicode="&#x17d;" horiz-adv-x="1958" 
d="M819 389q-74 49 -168 49q-156 0 -234 -109q-69 -95 -69 -257q250 106 471 317zM238 -20l-13 6l-2 12q43 216 162 359q141 169 342 169q95 0 197 -47q302 326 669 928l-186 -123h-72q-188 0 -426.5 12.5t-279.5 12.5q-320 0 -320 -238q0 -109 70 -174.5t180 -65.5
q140 0 313 127l17 3l10 -17l-2 -14q-179 -139 -346 -139q-133 0 -215 79.5t-82 212.5q0 188 158 281q129 76 331 76q92 0 275.5 -11.5t275.5 -11.5q293 0 383 111l13 2l20 -10l2 -11q-314 -546 -747 -1056q89 -58 240 -193q161 -144 197 -171q138 -105 230 -105
q72 0 115 44.5t43 116.5q0 145 -145 239q-110 72 -277 101l-8 15l4 14l12 8q494 -66 494 -340q0 -115 -91 -190q-85 -70 -202 -70q-122 0 -372 175q-33 22 -343 263q-176 -150 -328 -244q-191 -117 -286 -136h-10zM918 1786h53l164 -181l295 181h67l-319 -271h-101z" />
    <glyph glyph-name="zcaron" unicode="&#x17e;" horiz-adv-x="729" 
d="M90 33q-37 -51 -74 -51q-16 0 -16 8q0 10 4 18l66 129q11 21 22 24q2 0 31 -1l350 379q-144 36 -188 36q-41 0 -72.5 -49t-42.5 -49q-33 0 -33 21q0 13 13 44q17 49 34 99q28 61 74 61q19 0 126.5 -19.5t193.5 -30.5q49 59 71 59q25 0 25 -11q0 -13 -37 -53l-465 -500
l31 -7q239 -54 258 -54q63 0 145.5 84t285.5 380q7 -19 7 -40q0 -43 -156 -240q-145 -182 -203 -230q-77 -65 -147 -65q-25 0 -126.5 24t-176.5 34zM263 1051h53l164 -181l295 181h67l-319 -271h-101z" />
    <glyph glyph-name="florin" unicode="&#x192;" horiz-adv-x="948" 
d="M-70 -430q-151 0 -151 151q0 121 106 199h9l16 -12v-10q-84 -94 -84 -191q0 -96 92 -96q118 0 216 192q50 98 110 295l149 488h-203l9 41h207q53 218 145 367q130 212 303 212q70 0 112 -40.5t42 -110.5q0 -122 -105 -199h-10l-16 12v11q84 92 84 190q0 96 -93 96
q-196 0 -344 -538h258l-8 -41h-260l-149 -494q-157 -522 -435 -522z" />
    <glyph glyph-name="glyph277" unicode="&#x1a0;" horiz-adv-x="1790" 
d="M1069 41q-213 121 -213 375q-59 -13 -174 -13q-72 0 -113 9q0 -6 -1 -17.5t-1 -17.5q0 -165 99 -265t264 -100q67 0 139 29zM1122 61q216 101 367 377q143 262 143 512q0 65 -28 109q-155 -440 -625 -607q-10 -66 -10 -114q0 -195 153 -277zM987 500q210 74 363 227
q158 159 219 367q-39 41 -105 41q-114 0 -255 -179.5t-222 -455.5zM574 455q69 -15 126 -15q73 0 158 17q15 114 60 225q71 173 204 319q163 177 318 177q67 0 139 -45q4 24 4 47q0 102 -83 162q-74 55 -179 55q-237 0 -447 -271q70 -16 117 -32l8 -11l-6 -16l-12 -2
q-19 0 -65 9q-51 10 -68 11q-208 -281 -274 -630zM434 489q44 334 260 605q-14 0 -43 2t-43 2q-172 0 -292 -69q-146 -85 -146 -245q0 -199 264 -295zM1118 14q-102 -41 -203 -41q-205 0 -337.5 129.5t-143.5 335.5q-364 130 -364 365q0 148 148.5 245t389.5 97q53 0 123 -6
q289 303 590 303q129 0 212 -65q91 -71 91 -197q0 -38 -8 -76q80 -86 80 -252q0 -229 -159 -469q-153 -231 -363 -342q52 -25 118 -25q176 0 376 183q111 101 286 327q6 -10 6 -22q0 -48 -137 -201t-236 -223q-147 -103 -301 -103q-86 0 -168 37zM1601 1128l10 41
q150 85 150 154q0 36 -38 36q-10 0 -47 -12l-8 7q23 80 25 84q19 36 70 36q88 0 88 -89q0 -130 -250 -257z" />
    <glyph glyph-name="glyph278" unicode="&#x1a1;" horiz-adv-x="858" 
d="M618 199q10 -43 52 -43q71 0 366 413q6 -10 6 -24q0 -22 -18 -57q-27 -53 -126.5 -179.5t-147.5 -170.5q-69 -62 -119 -62q-45 0 -78 37q-138 -140 -283 -140q-118 0 -188 71t-70 189q0 167 144.5 322.5t310.5 155.5q105 0 170 -80q59 -74 59 -182q0 -119 -78 -250z
M592 524q-28 144 -135 144q-57 0 -119 -58q-79 -73 -128.5 -189t-49.5 -224q0 -179 131 -179q104 0 217 173q-14 30 -14 75q0 126 98 258zM678 473l10 41q150 85 150 154q0 36 -38 36q-10 0 -47 -12l-8 7q23 80 25 84q19 36 70 36q88 0 88 -89q0 -130 -250 -257z" />
    <glyph glyph-name="glyph279" unicode="&#x1af;" horiz-adv-x="2198" 
d="M1729 391q-310 -416 -594 -416q-82 0 -136 44q-57 48 -57 128q0 68 41 195l174 537q39 120 39 192q0 172 -158 259q-126 69 -313 69q-168 0 -282 -58q-148 -74 -148 -225t161 -228q124 -59 294 -59q27 0 111 6l9 -6l2 -16l-6 -14q-62 -11 -149 -11q-247 0 -397 99.5
t-150 255.5q0 167 162 250q126 65 311 65q139 0 267 -32q170 -44 281 -127q144 -107 144 -255q0 -70 -67 -270l-160 -477q-29 -86 -29 -150q0 -50 44 -81q39 -27 91 -27q216 0 539 457q182 701 408 895l12 -1q6 -20 6 -40q0 -131 -77 -337q-70 -187 -183 -363
q-10 -13 -25 -38q-1 -3 -20 -78q-25 -107 -38 -180q-19 -103 -19 -168q0 -159 92 -159q117 0 483 505q8 -16 8 -26q0 -33 -117 -189q-262 -350 -415 -350q-164 0 -164 226q0 82 25 198zM2138 1128l10 41q150 85 150 154q0 36 -38 36q-10 0 -47 -12l-8 7q23 80 25 84
q19 36 70 36q88 0 88 -89q0 -130 -250 -257z" />
    <glyph glyph-name="glyph280" unicode="&#x1b0;" horiz-adv-x="922" 
d="M317 698q17 0 17 -14q0 -6 -4 -18l-162 -473q-18 -53 -18 -91q0 -41 38 -41q64 0 215 191q97 122 179 250q23 36 55 108q31 68 59 74q78 16 84 16q17 0 17 -16q0 -6 -4 -18l-160 -469q-19 -56 -19 -91q0 -45 41 -45q98 0 439 512q8 -16 8 -28q0 -60 -144 -247
q-124 -161 -197 -227q-97 -89 -163 -89q-109 0 -109 120q0 69 101 342q-310 -462 -465 -462q-105 0 -105 110q0 41 27 123l141 428q11 34 37 39q84 16 92 16zM727 473l10 41q150 85 150 154q0 36 -38 36q-10 0 -47 -12l-8 7q23 80 25 84q19 36 70 36q88 0 88 -89
q0 -130 -250 -257z" />
    <glyph glyph-name="circumflex" unicode="&#x2c6;" horiz-adv-x="1024" 
d="M616 1051h101l160 -271h-52l-163 181l-297 -181h-66z" />
    <glyph glyph-name="caron" unicode="&#x2c7;" horiz-adv-x="1024" 
d="M410 1051h53l164 -181l295 181h67l-319 -271h-101z" />
    <glyph glyph-name="breve" unicode="&#x2d8;" horiz-adv-x="1024" 
d="M395 1038h45q26 -141 170 -141q171 0 295 141h49q-150 -245 -350 -245q-199 0 -209 245z" />
    <glyph glyph-name="dotaccent" unicode="&#x2d9;" horiz-adv-x="1024" 
d="M655 815q-98 0 -98 41q0 115 33 115q2 0 38 -7q23 -5 71 -14q32 -7 32 -88q0 -47 -76 -47z" />
    <glyph glyph-name="ring" unicode="&#x2da;" horiz-adv-x="1024" 
d="M657 1075q-50 0 -84 -34.5t-34 -84.5t34 -84t84 -34t84.5 34t34.5 84t-34.5 84.5t-84.5 34.5zM657 1143q79 0 133 -54t54 -133t-54 -132.5t-133 -53.5t-132.5 54t-53.5 132q0 79 53.5 133t132.5 54z" />
    <glyph glyph-name="ogonek" unicode="&#x2db;" horiz-adv-x="1024" 
d="M358 33h39q-174 -130 -174 -258q0 -107 94 -107q77 0 123 74l23 -14q-66 -127 -191 -127q-65 0 -106 38t-41 103q0 147 233 291z" />
    <glyph glyph-name="tilde" unicode="&#x2dc;" horiz-adv-x="1024" 
d="M887 1012h45q-44 -183 -170 -183q-39 0 -130.5 29t-127.5 29q-76 0 -95 -80h-47q47 176 168 176q46 0 133 -27.5t130 -27.5q73 0 94 84z" />
    <glyph glyph-name="hungarumlaut" unicode="&#x2dd;" horiz-adv-x="1024" 
d="M514 780h-45l139 230q28 47 62 47q47 0 47 -47q0 -22 -37 -60zM754 780h-52l170 234q31 43 64 43q45 0 45 -45q0 -24 -40 -61z" />
    <glyph glyph-name="Delta" unicode="&#x394;" horiz-adv-x="1081" 
d="M514 1247l-391 -1118h766zM532 1497h29l512 -1497h-1067z" />
    <glyph glyph-name="Delta" unicode="&#x2206;" horiz-adv-x="1081" 
d="M514 1247l-391 -1118h766zM532 1497h29l512 -1497h-1067z" />
    <glyph glyph-name="Omega" unicode="&#x3a9;" horiz-adv-x="1565" 
d="M1087 150v-25h316l74 219h59l-102 -344h-494q295 498 295 866q0 242 -101 391q-117 173 -348 173q-232 0 -349 -173q-101 -148 -101 -391q0 -365 297 -866h-496l-102 344h59l74 -219h315v25q-299 385 -299 729q0 273 165 445.5t437 172.5t438 -174q162 -170 162 -444
q0 -345 -299 -729z" />
    <glyph glyph-name="Omega" unicode="&#x2126;" horiz-adv-x="1565" 
d="M1087 150v-25h316l74 219h59l-102 -344h-494q295 498 295 866q0 242 -101 391q-117 173 -348 173q-232 0 -349 -173q-101 -148 -101 -391q0 -365 297 -866h-496l-102 344h59l74 -219h315v25q-299 385 -299 729q0 273 165 445.5t437 172.5t438 -174q162 -170 162 -444
q0 -345 -299 -729z" />
    <glyph glyph-name="pi" unicode="&#x3c0;" horiz-adv-x="1321" 
d="M1292 885l-28 -129h-320q-37 -187 -68 -493t-116 -306q-76 0 -76 78q0 50 80 292.5t125 428.5h-367q-36 -187 -67 -486q-33 -313 -117 -313q-76 0 -76 78q0 51 79 293q80 246 126 428h-127q-133 0 -175.5 -45t-74.5 -191h-63q30 177 95 259q82 106 245 106h925z" />
    <glyph glyph-name="glyph281" unicode="&#x1ea0;" horiz-adv-x="2232" 
d="M1532 717q-291 172 -518 172q-113 0 -194 -39q-105 -51 -105 -152q0 -150 216 -235q147 -58 343 -72q85 81 258 326zM2154 1321q-121 -39 -487 -637q60 -42 176 -129q175 568 311 766zM1917 420q-23 -88 -23 -166q0 -147 86 -211q31 66 31 145q0 128 -94 232zM1931 483
q142 -172 142 -374q0 -150 -31 -150q-8 0 -37 18q-197 122 -197 357q0 74 25 168q-87 74 -193 141q-108 -159 -192 -254h49q23 0 125 4l10 -8l2 -20l-9 -8q-59 -11 -218 -11q-354 -356 -727 -356q-183 0 -302 70q-122 71 -122 169q0 89 80 135q65 37 160 37q165 0 311 -84
l4 -14l-8 -16l-12 -4q-141 63 -234 63q-174 0 -174 -137q0 -90 113 -140q88 -38 192 -38q250 0 551 319q-220 22 -383 95q-233 103 -233 276q0 115 112 173q89 46 215 46q300 0 609 -184q144 218 306 395q244 264 394 264q27 0 27 -24q0 -19 -124 -321q-127 -307 -231 -587z
M1395 -322q-95 0 -95 37q0 108 31 108q1 0 34 -7q22 -4 66 -13q31 -6 31 -82q0 -43 -67 -43z" />
    <glyph glyph-name="glyph282" unicode="&#x1ea1;" 
d="M577 627q-34 32 -92 32q-89 0 -197 -137q-81 -103 -130 -219q-39 -92 -39 -162q0 -90 63 -90q95 0 235 244q85 148 160 332zM477 313q-187 -329 -321 -329q-87 0 -131 68q-37 58 -37 149q0 136 111 281q106 138 238 192q77 31 157 31q90 0 180 -39l10 -15v-4
q0 -23 -25 -100q-13 -41 -112 -379q-12 -41 -12 -72q0 -41 38 -41q88 0 435 495q6 -14 6 -28q0 -37 -86 -151q-291 -387 -408 -387q-102 0 -102 100q0 54 59 229zM224 -322q-95 0 -95 37q0 108 31 108q1 0 34 -7q22 -4 66 -13q31 -6 31 -82q0 -43 -67 -43z" />
    <glyph glyph-name="glyph283" unicode="&#x1ea2;" horiz-adv-x="2232" 
d="M1532 717q-291 172 -518 172q-113 0 -194 -39q-105 -51 -105 -152q0 -150 216 -235q147 -58 343 -72q85 81 258 326zM2154 1321q-121 -39 -487 -637q60 -42 176 -129q175 568 311 766zM1917 420q-23 -88 -23 -166q0 -147 86 -211q31 66 31 145q0 128 -94 232zM1931 483
q142 -172 142 -374q0 -150 -31 -150q-8 0 -37 18q-197 122 -197 357q0 74 25 168q-87 74 -193 141q-108 -159 -192 -254h49q23 0 125 4l10 -8l2 -20l-9 -8q-59 -11 -218 -11q-354 -356 -727 -356q-183 0 -302 70q-122 71 -122 169q0 89 80 135q65 37 160 37q165 0 311 -84
l4 -14l-8 -16l-12 -4q-141 63 -234 63q-174 0 -174 -137q0 -90 113 -140q88 -38 192 -38q250 0 551 319q-220 22 -383 95q-233 103 -233 276q0 115 112 173q89 46 215 46q300 0 609 -184q144 218 306 395q244 264 394 264q27 0 27 -24q0 -19 -124 -321q-127 -307 -231 -587z
M2252 1484l-10 -2l-12 2v4q0 12 32 75q64 123 64 172q0 50 -29 50q-51 0 -73 -94l-2 -2l-17 1l-1 2q5 50 33 93q34 53 81 53q96 0 96 -97q0 -33 -35 -81l-52 -66q-30 -37 -75 -110z" />
    <glyph glyph-name="glyph284" unicode="&#x1ea3;" 
d="M577 627q-34 32 -92 32q-89 0 -197 -137q-81 -103 -130 -219q-39 -92 -39 -162q0 -90 63 -90q95 0 235 244q85 148 160 332zM477 313q-187 -329 -321 -329q-87 0 -131 68q-37 58 -37 149q0 136 111 281q106 138 238 192q77 31 157 31q90 0 180 -39l10 -15v-4
q0 -23 -25 -100q-13 -41 -112 -379q-12 -41 -12 -72q0 -41 38 -41q88 0 435 495q6 -14 6 -28q0 -37 -86 -151q-291 -387 -408 -387q-102 0 -102 100q0 54 59 229zM522 777l-10 -2l-12 2v4q0 12 32 75q64 123 64 172q0 50 -29 50q-51 0 -73 -94l-2 -2l-17 1l-1 2q5 50 33 93
q34 53 81 53q96 0 96 -97q0 -33 -35 -81l-52 -66q-30 -37 -75 -110z" />
    <glyph glyph-name="glyph285" unicode="&#x1ea4;" horiz-adv-x="2232" 
d="M1532 717q-291 172 -518 172q-113 0 -194 -39q-105 -51 -105 -152q0 -150 216 -235q147 -58 343 -72q85 81 258 326zM2154 1321q-121 -39 -487 -637q60 -42 176 -129q175 568 311 766zM1917 420q-23 -88 -23 -166q0 -147 86 -211q31 66 31 145q0 128 -94 232zM1931 483
q142 -172 142 -374q0 -150 -31 -150q-8 0 -37 18q-197 122 -197 357q0 74 25 168q-87 74 -193 141q-108 -159 -192 -254h49q23 0 125 4l10 -8l2 -20l-9 -8q-59 -11 -218 -11q-354 -356 -727 -356q-183 0 -302 70q-122 71 -122 169q0 89 80 135q65 37 160 37q165 0 311 -84
l4 -14l-8 -16l-12 -4q-141 63 -234 63q-174 0 -174 -137q0 -90 113 -140q88 -38 192 -38q250 0 551 319q-220 22 -383 95q-233 103 -233 276q0 115 112 173q89 46 215 46q300 0 609 -184q144 218 306 395q244 264 394 264q27 0 27 -24q0 -19 -124 -321q-127 -307 -231 -587z
M2222 1726h101l160 -271h-52l-163 181l-297 -181h-66zM2147 1771h-56l279 246q37 33 63 33q47 0 47 -51q0 -35 -53 -66z" />
    <glyph glyph-name="glyph286" unicode="&#x1ea5;" 
d="M577 627q-34 32 -92 32q-89 0 -197 -137q-81 -103 -130 -219q-39 -92 -39 -162q0 -90 63 -90q95 0 235 244q85 148 160 332zM477 313q-187 -329 -321 -329q-87 0 -131 68q-37 58 -37 149q0 136 111 281q106 138 238 192q77 31 157 31q90 0 180 -39l10 -15v-4
q0 -23 -25 -100q-13 -41 -112 -379q-12 -41 -12 -72q0 -41 38 -41q88 0 435 495q6 -14 6 -28q0 -37 -86 -151q-291 -387 -408 -387q-102 0 -102 100q0 54 59 229zM524 1051h101l160 -271h-52l-163 181l-297 -181h-66zM448 1096h-56l279 246q37 33 63 33q47 0 47 -51
q0 -35 -53 -66z" />
    <glyph glyph-name="glyph287" unicode="&#x1ea6;" horiz-adv-x="2232" 
d="M1532 717q-291 172 -518 172q-113 0 -194 -39q-105 -51 -105 -152q0 -150 216 -235q147 -58 343 -72q85 81 258 326zM2154 1321q-121 -39 -487 -637q60 -42 176 -129q175 568 311 766zM1917 420q-23 -88 -23 -166q0 -147 86 -211q31 66 31 145q0 128 -94 232zM1931 483
q142 -172 142 -374q0 -150 -31 -150q-8 0 -37 18q-197 122 -197 357q0 74 25 168q-87 74 -193 141q-108 -159 -192 -254h49q23 0 125 4l10 -8l2 -20l-9 -8q-59 -11 -218 -11q-354 -356 -727 -356q-183 0 -302 70q-122 71 -122 169q0 89 80 135q65 37 160 37q165 0 311 -84
l4 -14l-8 -16l-12 -4q-141 63 -234 63q-174 0 -174 -137q0 -90 113 -140q88 -38 192 -38q250 0 551 319q-220 22 -383 95q-233 103 -233 276q0 115 112 173q89 46 215 46q300 0 609 -184q144 218 306 395q244 264 394 264q27 0 27 -24q0 -19 -124 -321q-127 -307 -231 -587z
M2222 1726h101l160 -271h-52l-163 181l-297 -181h-66zM2456 1771h-56l-149 172q-29 33 -29 60q0 47 53 47q34 0 62 -53z" />
    <glyph glyph-name="glyph288" unicode="&#x1ea7;" 
d="M577 627q-34 32 -92 32q-89 0 -197 -137q-81 -103 -130 -219q-39 -92 -39 -162q0 -90 63 -90q95 0 235 244q85 148 160 332zM477 313q-187 -329 -321 -329q-87 0 -131 68q-37 58 -37 149q0 136 111 281q106 138 238 192q77 31 157 31q90 0 180 -39l10 -15v-4
q0 -23 -25 -100q-13 -41 -112 -379q-12 -41 -12 -72q0 -41 38 -41q88 0 435 495q6 -14 6 -28q0 -37 -86 -151q-291 -387 -408 -387q-102 0 -102 100q0 54 59 229zM524 1051h101l160 -271h-52l-163 181l-297 -181h-66zM758 1096h-56l-149 172q-29 33 -29 60q0 47 53 47
q34 0 62 -53z" />
    <glyph glyph-name="glyph289" unicode="&#x1ea8;" horiz-adv-x="2232" 
d="M1532 717q-291 172 -518 172q-113 0 -194 -39q-105 -51 -105 -152q0 -150 216 -235q147 -58 343 -72q85 81 258 326zM2154 1321q-121 -39 -487 -637q60 -42 176 -129q175 568 311 766zM1917 420q-23 -88 -23 -166q0 -147 86 -211q31 66 31 145q0 128 -94 232zM1931 483
q142 -172 142 -374q0 -150 -31 -150q-8 0 -37 18q-197 122 -197 357q0 74 25 168q-87 74 -193 141q-108 -159 -192 -254h49q23 0 125 4l10 -8l2 -20l-9 -8q-59 -11 -218 -11q-354 -356 -727 -356q-183 0 -302 70q-122 71 -122 169q0 89 80 135q65 37 160 37q165 0 311 -84
l4 -14l-8 -16l-12 -4q-141 63 -234 63q-174 0 -174 -137q0 -90 113 -140q88 -38 192 -38q250 0 551 319q-220 22 -383 95q-233 103 -233 276q0 115 112 173q89 46 215 46q300 0 609 -184q144 218 306 395q244 264 394 264q27 0 27 -24q0 -19 -124 -321q-127 -307 -231 -587z
M2222 1726h101l160 -271h-52l-163 181l-297 -181h-66zM2427 1714l-10 -2l-12 2v4q0 12 32 75q64 123 64 172q0 50 -29 50q-51 0 -73 -94l-2 -2l-17 1l-1 2q5 50 33 93q34 53 81 53q96 0 96 -97q0 -33 -35 -81l-52 -66q-30 -37 -75 -110z" />
    <glyph glyph-name="glyph290" unicode="&#x1ea9;" 
d="M577 627q-34 32 -92 32q-89 0 -197 -137q-81 -103 -130 -219q-39 -92 -39 -162q0 -90 63 -90q95 0 235 244q85 148 160 332zM477 313q-187 -329 -321 -329q-87 0 -131 68q-37 58 -37 149q0 136 111 281q106 138 238 192q77 31 157 31q90 0 180 -39l10 -15v-4
q0 -23 -25 -100q-13 -41 -112 -379q-12 -41 -12 -72q0 -41 38 -41q88 0 435 495q6 -14 6 -28q0 -37 -86 -151q-291 -387 -408 -387q-102 0 -102 100q0 54 59 229zM524 1051h101l160 -271h-52l-163 181l-297 -181h-66zM728 1039l-10 -2l-12 2v4q0 12 32 75q64 123 64 172
q0 50 -29 50q-51 0 -73 -94l-2 -2l-17 1l-1 2q5 50 33 93q34 53 81 53q96 0 96 -97q0 -33 -35 -81l-52 -66q-30 -37 -75 -110z" />
    <glyph glyph-name="glyph291" unicode="&#x1eaa;" horiz-adv-x="2232" 
d="M1532 717q-291 172 -518 172q-113 0 -194 -39q-105 -51 -105 -152q0 -150 216 -235q147 -58 343 -72q85 81 258 326zM2154 1321q-121 -39 -487 -637q60 -42 176 -129q175 568 311 766zM1917 420q-23 -88 -23 -166q0 -147 86 -211q31 66 31 145q0 128 -94 232zM1931 483
q142 -172 142 -374q0 -150 -31 -150q-8 0 -37 18q-197 122 -197 357q0 74 25 168q-87 74 -193 141q-108 -159 -192 -254h49q23 0 125 4l10 -8l2 -20l-9 -8q-59 -11 -218 -11q-354 -356 -727 -356q-183 0 -302 70q-122 71 -122 169q0 89 80 135q65 37 160 37q165 0 311 -84
l4 -14l-8 -16l-12 -4q-141 63 -234 63q-174 0 -174 -137q0 -90 113 -140q88 -38 192 -38q250 0 551 319q-220 22 -383 95q-233 103 -233 276q0 115 112 173q89 46 215 46q300 0 609 -184q144 218 306 395q244 264 394 264q27 0 27 -24q0 -19 -124 -321q-127 -307 -231 -587z
M2222 1726h101l160 -271h-52l-163 181l-297 -181h-66zM2619 2013h45q-44 -183 -170 -183q-39 0 -130.5 29t-127.5 29q-76 0 -95 -80h-47q47 176 168 176q46 0 133 -27.5t130 -27.5q73 0 94 84z" />
    <glyph glyph-name="glyph292" unicode="&#x1eab;" 
d="M577 627q-34 32 -92 32q-89 0 -197 -137q-81 -103 -130 -219q-39 -92 -39 -162q0 -90 63 -90q95 0 235 244q85 148 160 332zM477 313q-187 -329 -321 -329q-87 0 -131 68q-37 58 -37 149q0 136 111 281q106 138 238 192q77 31 157 31q90 0 180 -39l10 -15v-4
q0 -23 -25 -100q-13 -41 -112 -379q-12 -41 -12 -72q0 -41 38 -41q88 0 435 495q6 -14 6 -28q0 -37 -86 -151q-291 -387 -408 -387q-102 0 -102 100q0 54 59 229zM524 1051h101l160 -271h-52l-163 181l-297 -181h-66zM921 1338h45q-44 -183 -170 -183q-39 0 -130.5 29
t-127.5 29q-76 0 -95 -80h-47q47 176 168 176q46 0 133 -27.5t130 -27.5q73 0 94 84z" />
    <glyph glyph-name="glyph293" unicode="&#x1eac;" horiz-adv-x="2232" 
d="M1532 717q-291 172 -518 172q-113 0 -194 -39q-105 -51 -105 -152q0 -150 216 -235q147 -58 343 -72q85 81 258 326zM2154 1321q-121 -39 -487 -637q60 -42 176 -129q175 568 311 766zM1917 420q-23 -88 -23 -166q0 -147 86 -211q31 66 31 145q0 128 -94 232zM1931 483
q142 -172 142 -374q0 -150 -31 -150q-8 0 -37 18q-197 122 -197 357q0 74 25 168q-87 74 -193 141q-108 -159 -192 -254h49q23 0 125 4l10 -8l2 -20l-9 -8q-59 -11 -218 -11q-354 -356 -727 -356q-183 0 -302 70q-122 71 -122 169q0 89 80 135q65 37 160 37q165 0 311 -84
l4 -14l-8 -16l-12 -4q-141 63 -234 63q-174 0 -174 -137q0 -90 113 -140q88 -38 192 -38q250 0 551 319q-220 22 -383 95q-233 103 -233 276q0 115 112 173q89 46 215 46q300 0 609 -184q144 218 306 395q244 264 394 264q27 0 27 -24q0 -19 -124 -321q-127 -307 -231 -587z
M2222 1726h101l160 -271h-52l-163 181l-297 -181h-66zM1395 -322q-95 0 -95 37q0 108 31 108q1 0 34 -7q22 -4 66 -13q31 -6 31 -82q0 -43 -67 -43z" />
    <glyph glyph-name="glyph294" unicode="&#x1ead;" 
d="M577 627q-34 32 -92 32q-89 0 -197 -137q-81 -103 -130 -219q-39 -92 -39 -162q0 -90 63 -90q95 0 235 244q85 148 160 332zM477 313q-187 -329 -321 -329q-87 0 -131 68q-37 58 -37 149q0 136 111 281q106 138 238 192q77 31 157 31q90 0 180 -39l10 -15v-4
q0 -23 -25 -100q-13 -41 -112 -379q-12 -41 -12 -72q0 -41 38 -41q88 0 435 495q6 -14 6 -28q0 -37 -86 -151q-291 -387 -408 -387q-102 0 -102 100q0 54 59 229zM524 1051h101l160 -271h-52l-163 181l-297 -181h-66zM224 -322q-95 0 -95 37q0 108 31 108q1 0 34 -7
q22 -4 66 -13q31 -6 31 -82q0 -43 -67 -43z" />
    <glyph glyph-name="glyph295" unicode="&#x1eae;" horiz-adv-x="2232" 
d="M1532 717q-291 172 -518 172q-113 0 -194 -39q-105 -51 -105 -152q0 -150 216 -235q147 -58 343 -72q85 81 258 326zM2154 1321q-121 -39 -487 -637q60 -42 176 -129q175 568 311 766zM1917 420q-23 -88 -23 -166q0 -147 86 -211q31 66 31 145q0 128 -94 232zM1931 483
q142 -172 142 -374q0 -150 -31 -150q-8 0 -37 18q-197 122 -197 357q0 74 25 168q-87 74 -193 141q-108 -159 -192 -254h49q23 0 125 4l10 -8l2 -20l-9 -8q-59 -11 -218 -11q-354 -356 -727 -356q-183 0 -302 70q-122 71 -122 169q0 89 80 135q65 37 160 37q165 0 311 -84
l4 -14l-8 -16l-12 -4q-141 63 -234 63q-174 0 -174 -137q0 -90 113 -140q88 -38 192 -38q250 0 551 319q-220 22 -383 95q-233 103 -233 276q0 115 112 173q89 46 215 46q300 0 609 -184q144 218 306 395q244 264 394 264q27 0 27 -24q0 -19 -124 -321q-127 -307 -231 -587z
M2010 1709h45q26 -141 170 -141q171 0 295 141h49q-150 -245 -350 -245q-199 0 -209 245zM2213 1767h-56l279 246q37 33 63 33q47 0 47 -51q0 -35 -53 -66z" />
    <glyph glyph-name="glyph296" unicode="&#x1eaf;" 
d="M577 627q-34 32 -92 32q-89 0 -197 -137q-81 -103 -130 -219q-39 -92 -39 -162q0 -90 63 -90q95 0 235 244q85 148 160 332zM477 313q-187 -329 -321 -329q-87 0 -131 68q-37 58 -37 149q0 136 111 281q106 138 238 192q77 31 157 31q90 0 180 -39l10 -15v-4
q0 -23 -25 -100q-13 -41 -112 -379q-12 -41 -12 -72q0 -41 38 -41q88 0 435 495q6 -14 6 -28q0 -37 -86 -151q-291 -387 -408 -387q-102 0 -102 100q0 54 59 229zM305 1038h45q26 -141 170 -141q171 0 295 141h49q-150 -245 -350 -245q-199 0 -209 245zM508 1096h-56
l279 246q37 33 63 33q47 0 47 -51q0 -35 -53 -66z" />
    <glyph glyph-name="glyph297" unicode="&#x1eb0;" horiz-adv-x="2232" 
d="M1532 717q-291 172 -518 172q-113 0 -194 -39q-105 -51 -105 -152q0 -150 216 -235q147 -58 343 -72q85 81 258 326zM2154 1321q-121 -39 -487 -637q60 -42 176 -129q175 568 311 766zM1917 420q-23 -88 -23 -166q0 -147 86 -211q31 66 31 145q0 128 -94 232zM1931 483
q142 -172 142 -374q0 -150 -31 -150q-8 0 -37 18q-197 122 -197 357q0 74 25 168q-87 74 -193 141q-108 -159 -192 -254h49q23 0 125 4l10 -8l2 -20l-9 -8q-59 -11 -218 -11q-354 -356 -727 -356q-183 0 -302 70q-122 71 -122 169q0 89 80 135q65 37 160 37q165 0 311 -84
l4 -14l-8 -16l-12 -4q-141 63 -234 63q-174 0 -174 -137q0 -90 113 -140q88 -38 192 -38q250 0 551 319q-220 22 -383 95q-233 103 -233 276q0 115 112 173q89 46 215 46q300 0 609 -184q144 218 306 395q244 264 394 264q27 0 27 -24q0 -19 -124 -321q-127 -307 -231 -587z
M2010 1709h45q26 -141 170 -141q171 0 295 141h49q-150 -245 -350 -245q-199 0 -209 245zM2433 1767h-56l-149 172q-29 33 -29 60q0 47 53 47q34 0 62 -53z" />
    <glyph glyph-name="glyph298" unicode="&#x1eb1;" 
d="M577 627q-34 32 -92 32q-89 0 -197 -137q-81 -103 -130 -219q-39 -92 -39 -162q0 -90 63 -90q95 0 235 244q85 148 160 332zM477 313q-187 -329 -321 -329q-87 0 -131 68q-37 58 -37 149q0 136 111 281q106 138 238 192q77 31 157 31q90 0 180 -39l10 -15v-4
q0 -23 -25 -100q-13 -41 -112 -379q-12 -41 -12 -72q0 -41 38 -41q88 0 435 495q6 -14 6 -28q0 -37 -86 -151q-291 -387 -408 -387q-102 0 -102 100q0 54 59 229zM305 1038h45q26 -141 170 -141q171 0 295 141h49q-150 -245 -350 -245q-199 0 -209 245zM728 1096h-56
l-149 172q-29 33 -29 60q0 47 53 47q34 0 62 -53z" />
    <glyph glyph-name="glyph299" unicode="&#x1eb2;" horiz-adv-x="2232" 
d="M1532 717q-291 172 -518 172q-113 0 -194 -39q-105 -51 -105 -152q0 -150 216 -235q147 -58 343 -72q85 81 258 326zM2154 1321q-121 -39 -487 -637q60 -42 176 -129q175 568 311 766zM1917 420q-23 -88 -23 -166q0 -147 86 -211q31 66 31 145q0 128 -94 232zM1931 483
q142 -172 142 -374q0 -150 -31 -150q-8 0 -37 18q-197 122 -197 357q0 74 25 168q-87 74 -193 141q-108 -159 -192 -254h49q23 0 125 4l10 -8l2 -20l-9 -8q-59 -11 -218 -11q-354 -356 -727 -356q-183 0 -302 70q-122 71 -122 169q0 89 80 135q65 37 160 37q165 0 311 -84
l4 -14l-8 -16l-12 -4q-141 63 -234 63q-174 0 -174 -137q0 -90 113 -140q88 -38 192 -38q250 0 551 319q-220 22 -383 95q-233 103 -233 276q0 115 112 173q89 46 215 46q300 0 609 -184q144 218 306 395q244 264 394 264q27 0 27 -24q0 -19 -124 -321q-127 -307 -231 -587z
M2010 1709h45q26 -141 170 -141q171 0 295 141h49q-150 -245 -350 -245q-199 0 -209 245zM2261 1710l-10 -2l-12 2v4q0 12 32 75q64 123 64 172q0 50 -29 50q-51 0 -73 -94l-2 -2l-17 1l-1 2q5 50 33 93q34 53 81 53q96 0 96 -97q0 -33 -35 -81l-52 -66q-30 -37 -75 -110z
" />
    <glyph glyph-name="glyph300" unicode="&#x1eb3;" 
d="M577 627q-34 32 -92 32q-89 0 -197 -137q-81 -103 -130 -219q-39 -92 -39 -162q0 -90 63 -90q95 0 235 244q85 148 160 332zM477 313q-187 -329 -321 -329q-87 0 -131 68q-37 58 -37 149q0 136 111 281q106 138 238 192q77 31 157 31q90 0 180 -39l10 -15v-4
q0 -23 -25 -100q-13 -41 -112 -379q-12 -41 -12 -72q0 -41 38 -41q88 0 435 495q6 -14 6 -28q0 -37 -86 -151q-291 -387 -408 -387q-102 0 -102 100q0 54 59 229zM305 1038h45q26 -141 170 -141q171 0 295 141h49q-150 -245 -350 -245q-199 0 -209 245zM556 1039l-10 -2
l-12 2v4q0 12 32 75q64 123 64 172q0 50 -29 50q-51 0 -73 -94l-2 -2l-17 1l-1 2q5 50 33 93q34 53 81 53q96 0 96 -97q0 -33 -35 -81l-52 -66q-30 -37 -75 -110z" />
    <glyph glyph-name="glyph301" unicode="&#x1eb4;" horiz-adv-x="2232" 
d="M1532 717q-291 172 -518 172q-113 0 -194 -39q-105 -51 -105 -152q0 -150 216 -235q147 -58 343 -72q85 81 258 326zM2154 1321q-121 -39 -487 -637q60 -42 176 -129q175 568 311 766zM1917 420q-23 -88 -23 -166q0 -147 86 -211q31 66 31 145q0 128 -94 232zM1931 483
q142 -172 142 -374q0 -150 -31 -150q-8 0 -37 18q-197 122 -197 357q0 74 25 168q-87 74 -193 141q-108 -159 -192 -254h49q23 0 125 4l10 -8l2 -20l-9 -8q-59 -11 -218 -11q-354 -356 -727 -356q-183 0 -302 70q-122 71 -122 169q0 89 80 135q65 37 160 37q165 0 311 -84
l4 -14l-8 -16l-12 -4q-141 63 -234 63q-174 0 -174 -137q0 -90 113 -140q88 -38 192 -38q250 0 551 319q-220 22 -383 95q-233 103 -233 276q0 115 112 173q89 46 215 46q300 0 609 -184q144 218 306 395q244 264 394 264q27 0 27 -24q0 -19 -124 -321q-127 -307 -231 -587z
M2010 1709h45q26 -141 170 -141q171 0 295 141h49q-150 -245 -350 -245q-199 0 -209 245zM2626 2009h45q-44 -183 -170 -183q-39 0 -130.5 29t-127.5 29q-76 0 -95 -80h-47q47 176 168 176q46 0 133 -27.5t130 -27.5q73 0 94 84z" />
    <glyph glyph-name="glyph302" unicode="&#x1eb5;" 
d="M577 627q-34 32 -92 32q-89 0 -197 -137q-81 -103 -130 -219q-39 -92 -39 -162q0 -90 63 -90q95 0 235 244q85 148 160 332zM477 313q-187 -329 -321 -329q-87 0 -131 68q-37 58 -37 149q0 136 111 281q106 138 238 192q77 31 157 31q90 0 180 -39l10 -15v-4
q0 -23 -25 -100q-13 -41 -112 -379q-12 -41 -12 -72q0 -41 38 -41q88 0 435 495q6 -14 6 -28q0 -37 -86 -151q-291 -387 -408 -387q-102 0 -102 100q0 54 59 229zM305 1038h45q26 -141 170 -141q171 0 295 141h49q-150 -245 -350 -245q-199 0 -209 245zM921 1338h45
q-44 -183 -170 -183q-39 0 -130.5 29t-127.5 29q-76 0 -95 -80h-47q47 176 168 176q46 0 133 -27.5t130 -27.5q73 0 94 84z" />
    <glyph glyph-name="glyph303" unicode="&#x1eb6;" horiz-adv-x="2232" 
d="M1532 717q-291 172 -518 172q-113 0 -194 -39q-105 -51 -105 -152q0 -150 216 -235q147 -58 343 -72q85 81 258 326zM2154 1321q-121 -39 -487 -637q60 -42 176 -129q175 568 311 766zM1917 420q-23 -88 -23 -166q0 -147 86 -211q31 66 31 145q0 128 -94 232zM1931 483
q142 -172 142 -374q0 -150 -31 -150q-8 0 -37 18q-197 122 -197 357q0 74 25 168q-87 74 -193 141q-108 -159 -192 -254h49q23 0 125 4l10 -8l2 -20l-9 -8q-59 -11 -218 -11q-354 -356 -727 -356q-183 0 -302 70q-122 71 -122 169q0 89 80 135q65 37 160 37q165 0 311 -84
l4 -14l-8 -16l-12 -4q-141 63 -234 63q-174 0 -174 -137q0 -90 113 -140q88 -38 192 -38q250 0 551 319q-220 22 -383 95q-233 103 -233 276q0 115 112 173q89 46 215 46q300 0 609 -184q144 218 306 395q244 264 394 264q27 0 27 -24q0 -19 -124 -321q-127 -307 -231 -587z
M2010 1709h45q26 -141 170 -141q171 0 295 141h49q-150 -245 -350 -245q-199 0 -209 245zM1395 -322q-95 0 -95 37q0 108 31 108q1 0 34 -7q22 -4 66 -13q31 -6 31 -82q0 -43 -67 -43z" />
    <glyph glyph-name="glyph304" unicode="&#x1eb7;" 
d="M577 627q-34 32 -92 32q-89 0 -197 -137q-81 -103 -130 -219q-39 -92 -39 -162q0 -90 63 -90q95 0 235 244q85 148 160 332zM477 313q-187 -329 -321 -329q-87 0 -131 68q-37 58 -37 149q0 136 111 281q106 138 238 192q77 31 157 31q90 0 180 -39l10 -15v-4
q0 -23 -25 -100q-13 -41 -112 -379q-12 -41 -12 -72q0 -41 38 -41q88 0 435 495q6 -14 6 -28q0 -37 -86 -151q-291 -387 -408 -387q-102 0 -102 100q0 54 59 229zM305 1038h45q26 -141 170 -141q171 0 295 141h49q-150 -245 -350 -245q-199 0 -209 245zM224 -322
q-95 0 -95 37q0 108 31 108q1 0 34 -7q22 -4 66 -13q31 -6 31 -82q0 -43 -67 -43z" />
    <glyph glyph-name="glyph305" unicode="&#x1eb8;" horiz-adv-x="1731" 
d="M1155 940q459 138 459 317q0 121 -139 121q-138 0 -250 -85q-121 -92 -121 -226q0 -78 51 -127zM1294 799q-138 12 -239 78q-242 -64 -443 -64q-194 0 -331 56q-189 77 -189 243q0 154 170 234q131 61 305 61q182 0 404 -61l6 -11l-4 -18l-12 -4q-202 53 -361 53
q-151 0 -248 -55q-121 -69 -121 -209t143 -203q104 -45 265 -45q175 0 385 55q-68 60 -68 158q0 146 199 264q148 88 352 88q217 0 217 -143q0 -196 -540 -367q79 -63 229 -92l8 -10v-21l-10 -6q-311 -45 -498 -187q-190 -145 -190 -327q0 -132 105 -199q88 -57 227 -57
q176 0 300 84t124 195q0 71 -54 110q-48 35 -122 35q-142 0 -369 -166l-10 2l-11 15l2 12q269 209 467 209q88 0 152 -43q74 -49 74 -133q0 -112 -131 -213q-102 -78 -234 -121q-118 -37 -242 -37q-173 0 -294 70q-148 85 -148 245q0 184 199.5 328.5t535.5 196.5zM965 -322
q-95 0 -95 37q0 108 31 108q1 0 34 -7q22 -4 66 -13q31 -6 31 -82q0 -43 -67 -43z" />
    <glyph glyph-name="glyph306" unicode="&#x1eb9;" horiz-adv-x="725" 
d="M160 254q130 29 224 112q108 96 108 218q0 78 -68 78q-80 0 -158.5 -116t-105.5 -292zM901 559q6 -8 6 -24q0 -57 -88 -179q-275 -381 -557 -381q-113 0 -176 71t-63 185q0 161 129 317q135 163 292 163q68 0 116 -36q52 -40 52 -106q0 -123 -170 -234
q-123 -80 -282 -128q0 -174 153 -174q156 0 342 195q129 136 246 331zM194 -322q-95 0 -95 37q0 108 31 108q1 0 34 -7q22 -4 66 -13q31 -6 31 -82q0 -43 -67 -43z" />
    <glyph glyph-name="glyph307" unicode="&#x1eba;" horiz-adv-x="1731" 
d="M1155 940q459 138 459 317q0 121 -139 121q-138 0 -250 -85q-121 -92 -121 -226q0 -78 51 -127zM1294 799q-138 12 -239 78q-242 -64 -443 -64q-194 0 -331 56q-189 77 -189 243q0 154 170 234q131 61 305 61q182 0 404 -61l6 -11l-4 -18l-12 -4q-202 53 -361 53
q-151 0 -248 -55q-121 -69 -121 -209t143 -203q104 -45 265 -45q175 0 385 55q-68 60 -68 158q0 146 199 264q148 88 352 88q217 0 217 -143q0 -196 -540 -367q79 -63 229 -92l8 -10v-21l-10 -6q-311 -45 -498 -187q-190 -145 -190 -327q0 -132 105 -199q88 -57 227 -57
q176 0 300 84t124 195q0 71 -54 110q-48 35 -122 35q-142 0 -369 -166l-10 2l-11 15l2 12q269 209 467 209q88 0 152 -43q74 -49 74 -133q0 -112 -131 -213q-102 -78 -234 -121q-118 -37 -242 -37q-173 0 -294 70q-148 85 -148 245q0 184 199.5 328.5t535.5 196.5z
M1542 1484l-10 -2l-12 2v4q0 12 32 75q64 123 64 172q0 50 -29 50q-51 0 -73 -94l-2 -2l-17 1l-1 2q5 50 33 93q34 53 81 53q96 0 96 -97q0 -33 -35 -81l-52 -66q-30 -37 -75 -110z" />
    <glyph glyph-name="glyph308" unicode="&#x1ebb;" horiz-adv-x="725" 
d="M160 254q130 29 224 112q108 96 108 218q0 78 -68 78q-80 0 -158.5 -116t-105.5 -292zM901 559q6 -8 6 -24q0 -57 -88 -179q-275 -381 -557 -381q-113 0 -176 71t-63 185q0 161 129 317q135 163 292 163q68 0 116 -36q52 -40 52 -106q0 -123 -170 -234
q-123 -80 -282 -128q0 -174 153 -174q156 0 342 195q129 136 246 331zM452 777l-10 -2l-12 2v4q0 12 32 75q64 123 64 172q0 50 -29 50q-51 0 -73 -94l-2 -2l-17 1l-1 2q5 50 33 93q34 53 81 53q96 0 96 -97q0 -33 -35 -81l-52 -66q-30 -37 -75 -110z" />
    <glyph glyph-name="glyph309" unicode="&#x1ebc;" horiz-adv-x="1731" 
d="M1155 940q459 138 459 317q0 121 -139 121q-138 0 -250 -85q-121 -92 -121 -226q0 -78 51 -127zM1294 799q-138 12 -239 78q-242 -64 -443 -64q-194 0 -331 56q-189 77 -189 243q0 154 170 234q131 61 305 61q182 0 404 -61l6 -11l-4 -18l-12 -4q-202 53 -361 53
q-151 0 -248 -55q-121 -69 -121 -209t143 -203q104 -45 265 -45q175 0 385 55q-68 60 -68 158q0 146 199 264q148 88 352 88q217 0 217 -143q0 -196 -540 -367q79 -63 229 -92l8 -10v-21l-10 -6q-311 -45 -498 -187q-190 -145 -190 -327q0 -132 105 -199q88 -57 227 -57
q176 0 300 84t124 195q0 71 -54 110q-48 35 -122 35q-142 0 -369 -166l-10 2l-11 15l2 12q269 209 467 209q88 0 152 -43q74 -49 74 -133q0 -112 -131 -213q-102 -78 -234 -121q-118 -37 -242 -37q-173 0 -294 70q-148 85 -148 245q0 184 199.5 328.5t535.5 196.5z
M1753 1747h45q-44 -183 -170 -183q-39 0 -130.5 29t-127.5 29q-76 0 -95 -80h-47q47 176 168 176q46 0 133 -27.5t130 -27.5q73 0 94 84z" />
    <glyph glyph-name="glyph310" unicode="&#x1ebd;" horiz-adv-x="725" 
d="M160 254q130 29 224 112q108 96 108 218q0 78 -68 78q-80 0 -158.5 -116t-105.5 -292zM901 559q6 -8 6 -24q0 -57 -88 -179q-275 -381 -557 -381q-113 0 -176 71t-63 185q0 161 129 317q135 163 292 163q68 0 116 -36q52 -40 52 -106q0 -123 -170 -234
q-123 -80 -282 -128q0 -174 153 -174q156 0 342 195q129 136 246 331zM765 1012h45q-44 -183 -170 -183q-39 0 -130.5 29t-127.5 29q-76 0 -95 -80h-47q47 176 168 176q46 0 133 -27.5t130 -27.5q73 0 94 84z" />
    <glyph glyph-name="glyph311" unicode="&#x1ebe;" horiz-adv-x="1731" 
d="M1155 940q459 138 459 317q0 121 -139 121q-138 0 -250 -85q-121 -92 -121 -226q0 -78 51 -127zM1294 799q-138 12 -239 78q-242 -64 -443 -64q-194 0 -331 56q-189 77 -189 243q0 154 170 234q131 61 305 61q182 0 404 -61l6 -11l-4 -18l-12 -4q-202 53 -361 53
q-151 0 -248 -55q-121 -69 -121 -209t143 -203q104 -45 265 -45q175 0 385 55q-68 60 -68 158q0 146 199 264q148 88 352 88q217 0 217 -143q0 -196 -540 -367q79 -63 229 -92l8 -10v-21l-10 -6q-311 -45 -498 -187q-190 -145 -190 -327q0 -132 105 -199q88 -57 227 -57
q176 0 300 84t124 195q0 71 -54 110q-48 35 -122 35q-142 0 -369 -166l-10 2l-11 15l2 12q269 209 467 209q88 0 152 -43q74 -49 74 -133q0 -112 -131 -213q-102 -78 -234 -121q-118 -37 -242 -37q-173 0 -294 70q-148 85 -148 245q0 184 199.5 328.5t535.5 196.5z
M1502 1726h101l160 -271h-52l-163 181l-297 -181h-66zM1427 1771h-56l279 246q37 33 63 33q47 0 47 -51q0 -35 -53 -66z" />
    <glyph glyph-name="glyph312" unicode="&#x1ebf;" horiz-adv-x="725" 
d="M160 254q130 29 224 112q108 96 108 218q0 78 -68 78q-80 0 -158.5 -116t-105.5 -292zM901 559q6 -8 6 -24q0 -57 -88 -179q-275 -381 -557 -381q-113 0 -176 71t-63 185q0 161 129 317q135 163 292 163q68 0 116 -36q52 -40 52 -106q0 -123 -170 -234
q-123 -80 -282 -128q0 -174 153 -174q156 0 342 195q129 136 246 331zM466 1051h101l160 -271h-52l-163 181l-297 -181h-66zM389 1096h-56l279 246q37 33 63 33q47 0 47 -51q0 -35 -53 -66z" />
    <glyph glyph-name="glyph313" unicode="&#x1ec0;" horiz-adv-x="1731" 
d="M1155 940q459 138 459 317q0 121 -139 121q-138 0 -250 -85q-121 -92 -121 -226q0 -78 51 -127zM1294 799q-138 12 -239 78q-242 -64 -443 -64q-194 0 -331 56q-189 77 -189 243q0 154 170 234q131 61 305 61q182 0 404 -61l6 -11l-4 -18l-12 -4q-202 53 -361 53
q-151 0 -248 -55q-121 -69 -121 -209t143 -203q104 -45 265 -45q175 0 385 55q-68 60 -68 158q0 146 199 264q148 88 352 88q217 0 217 -143q0 -196 -540 -367q79 -63 229 -92l8 -10v-21l-10 -6q-311 -45 -498 -187q-190 -145 -190 -327q0 -132 105 -199q88 -57 227 -57
q176 0 300 84t124 195q0 71 -54 110q-48 35 -122 35q-142 0 -369 -166l-10 2l-11 15l2 12q269 209 467 209q88 0 152 -43q74 -49 74 -133q0 -112 -131 -213q-102 -78 -234 -121q-118 -37 -242 -37q-173 0 -294 70q-148 85 -148 245q0 184 199.5 328.5t535.5 196.5z
M1502 1726h101l160 -271h-52l-163 181l-297 -181h-66zM1736 1771h-56l-149 172q-29 33 -29 60q0 47 53 47q34 0 62 -53z" />
    <glyph glyph-name="glyph314" unicode="&#x1ec1;" horiz-adv-x="725" 
d="M160 254q130 29 224 112q108 96 108 218q0 78 -68 78q-80 0 -158.5 -116t-105.5 -292zM901 559q6 -8 6 -24q0 -57 -88 -179q-275 -381 -557 -381q-113 0 -176 71t-63 185q0 161 129 317q135 163 292 163q68 0 116 -36q52 -40 52 -106q0 -123 -170 -234
q-123 -80 -282 -128q0 -174 153 -174q156 0 342 195q129 136 246 331zM466 1051h101l160 -271h-52l-163 181l-297 -181h-66zM699 1096h-56l-149 172q-29 33 -29 60q0 47 53 47q34 0 62 -53z" />
    <glyph glyph-name="glyph315" unicode="&#x1ec2;" horiz-adv-x="1731" 
d="M1155 940q459 138 459 317q0 121 -139 121q-138 0 -250 -85q-121 -92 -121 -226q0 -78 51 -127zM1294 799q-138 12 -239 78q-242 -64 -443 -64q-194 0 -331 56q-189 77 -189 243q0 154 170 234q131 61 305 61q182 0 404 -61l6 -11l-4 -18l-12 -4q-202 53 -361 53
q-151 0 -248 -55q-121 -69 -121 -209t143 -203q104 -45 265 -45q175 0 385 55q-68 60 -68 158q0 146 199 264q148 88 352 88q217 0 217 -143q0 -196 -540 -367q79 -63 229 -92l8 -10v-21l-10 -6q-311 -45 -498 -187q-190 -145 -190 -327q0 -132 105 -199q88 -57 227 -57
q176 0 300 84t124 195q0 71 -54 110q-48 35 -122 35q-142 0 -369 -166l-10 2l-11 15l2 12q269 209 467 209q88 0 152 -43q74 -49 74 -133q0 -112 -131 -213q-102 -78 -234 -121q-118 -37 -242 -37q-173 0 -294 70q-148 85 -148 245q0 184 199.5 328.5t535.5 196.5z
M1502 1726h101l160 -271h-52l-163 181l-297 -181h-66zM1707 1714l-10 -2l-12 2v4q0 12 32 75q64 123 64 172q0 50 -29 50q-51 0 -73 -94l-2 -2l-17 1l-1 2q5 50 33 93q34 53 81 53q96 0 96 -97q0 -33 -35 -81l-52 -66q-30 -37 -75 -110z" />
    <glyph glyph-name="glyph316" unicode="&#x1ec3;" horiz-adv-x="725" 
d="M160 254q130 29 224 112q108 96 108 218q0 78 -68 78q-80 0 -158.5 -116t-105.5 -292zM901 559q6 -8 6 -24q0 -57 -88 -179q-275 -381 -557 -381q-113 0 -176 71t-63 185q0 161 129 317q135 163 292 163q68 0 116 -36q52 -40 52 -106q0 -123 -170 -234
q-123 -80 -282 -128q0 -174 153 -174q156 0 342 195q129 136 246 331zM466 1051h101l160 -271h-52l-163 181l-297 -181h-66zM669 1039l-10 -2l-12 2v4q0 12 32 75q64 123 64 172q0 50 -29 50q-51 0 -73 -94l-2 -2l-17 1l-1 2q5 50 33 93q34 53 81 53q96 0 96 -97
q0 -33 -35 -81l-52 -66q-30 -37 -75 -110z" />
    <glyph glyph-name="glyph317" unicode="&#x1ec4;" horiz-adv-x="1731" 
d="M1155 940q459 138 459 317q0 121 -139 121q-138 0 -250 -85q-121 -92 -121 -226q0 -78 51 -127zM1294 799q-138 12 -239 78q-242 -64 -443 -64q-194 0 -331 56q-189 77 -189 243q0 154 170 234q131 61 305 61q182 0 404 -61l6 -11l-4 -18l-12 -4q-202 53 -361 53
q-151 0 -248 -55q-121 -69 -121 -209t143 -203q104 -45 265 -45q175 0 385 55q-68 60 -68 158q0 146 199 264q148 88 352 88q217 0 217 -143q0 -196 -540 -367q79 -63 229 -92l8 -10v-21l-10 -6q-311 -45 -498 -187q-190 -145 -190 -327q0 -132 105 -199q88 -57 227 -57
q176 0 300 84t124 195q0 71 -54 110q-48 35 -122 35q-142 0 -369 -166l-10 2l-11 15l2 12q269 209 467 209q88 0 152 -43q74 -49 74 -133q0 -112 -131 -213q-102 -78 -234 -121q-118 -37 -242 -37q-173 0 -294 70q-148 85 -148 245q0 184 199.5 328.5t535.5 196.5z
M1502 1726h101l160 -271h-52l-163 181l-297 -181h-66zM1899 2013h45q-44 -183 -170 -183q-39 0 -130.5 29t-127.5 29q-76 0 -95 -80h-47q47 176 168 176q46 0 133 -27.5t130 -27.5q73 0 94 84z" />
    <glyph glyph-name="glyph318" unicode="&#x1ec5;" horiz-adv-x="725" 
d="M160 254q130 29 224 112q108 96 108 218q0 78 -68 78q-80 0 -158.5 -116t-105.5 -292zM901 559q6 -8 6 -24q0 -57 -88 -179q-275 -381 -557 -381q-113 0 -176 71t-63 185q0 161 129 317q135 163 292 163q68 0 116 -36q52 -40 52 -106q0 -123 -170 -234
q-123 -80 -282 -128q0 -174 153 -174q156 0 342 195q129 136 246 331zM466 1051h101l160 -271h-52l-163 181l-297 -181h-66zM862 1338h45q-44 -183 -170 -183q-39 0 -130.5 29t-127.5 29q-76 0 -95 -80h-47q47 176 168 176q46 0 133 -27.5t130 -27.5q73 0 94 84z" />
    <glyph glyph-name="glyph319" unicode="&#x1ec6;" horiz-adv-x="1731" 
d="M1155 940q459 138 459 317q0 121 -139 121q-138 0 -250 -85q-121 -92 -121 -226q0 -78 51 -127zM1294 799q-138 12 -239 78q-242 -64 -443 -64q-194 0 -331 56q-189 77 -189 243q0 154 170 234q131 61 305 61q182 0 404 -61l6 -11l-4 -18l-12 -4q-202 53 -361 53
q-151 0 -248 -55q-121 -69 -121 -209t143 -203q104 -45 265 -45q175 0 385 55q-68 60 -68 158q0 146 199 264q148 88 352 88q217 0 217 -143q0 -196 -540 -367q79 -63 229 -92l8 -10v-21l-10 -6q-311 -45 -498 -187q-190 -145 -190 -327q0 -132 105 -199q88 -57 227 -57
q176 0 300 84t124 195q0 71 -54 110q-48 35 -122 35q-142 0 -369 -166l-10 2l-11 15l2 12q269 209 467 209q88 0 152 -43q74 -49 74 -133q0 -112 -131 -213q-102 -78 -234 -121q-118 -37 -242 -37q-173 0 -294 70q-148 85 -148 245q0 184 199.5 328.5t535.5 196.5z
M1502 1726h101l160 -271h-52l-163 181l-297 -181h-66zM965 -322q-95 0 -95 37q0 108 31 108q1 0 34 -7q22 -4 66 -13q31 -6 31 -82q0 -43 -67 -43z" />
    <glyph glyph-name="glyph320" unicode="&#x1ec7;" horiz-adv-x="725" 
d="M160 254q130 29 224 112q108 96 108 218q0 78 -68 78q-80 0 -158.5 -116t-105.5 -292zM901 559q6 -8 6 -24q0 -57 -88 -179q-275 -381 -557 -381q-113 0 -176 71t-63 185q0 161 129 317q135 163 292 163q68 0 116 -36q52 -40 52 -106q0 -123 -170 -234
q-123 -80 -282 -128q0 -174 153 -174q156 0 342 195q129 136 246 331zM466 1051h101l160 -271h-52l-163 181l-297 -181h-66zM194 -322q-95 0 -95 37q0 108 31 108q1 0 34 -7q22 -4 66 -13q31 -6 31 -82q0 -43 -67 -43z" />
    <glyph glyph-name="glyph321" unicode="&#x1ec8;" horiz-adv-x="1532" 
d="M1139 1090q-228 -27 -463 -256h37q146 0 255 61q121 67 171 195zM1272 1128q-77 -162 -241 -257q-158 -92 -342 -92q-30 0 -60 3q-100 -130 -178 -286l-13 -7l-18 9l-4 12q49 132 164 281q-130 14 -223 81q-111 78 -111 199q0 142 175 243t445 101q263 0 423 -121
q179 -134 179 -389q0 -167 -73 -364q-152 -410 -490 -580q-144 -72 -274 -72q-89 0 -146 34q-71 41 -71 124q0 96 94 165q80 59 184 75l10 -6l3 -15l-3 -12q-176 -54 -176 -170q0 -67 56 -104q47 -31 118 -31q101 0 203 58q198 112 310 389q98 240 98 499q0 134 -39 233z
M1262 1151q-101 219 -426 219q-204 0 -336.5 -84.5t-132.5 -206.5q0 -183 251 -239q315 313 607 313q6 0 18.5 -1t18.5 -1zM962 1484l-10 -2l-12 2v4q0 12 32 75q64 123 64 172q0 50 -29 50q-51 0 -73 -94l-2 -2l-17 1l-1 2q5 50 33 93q34 53 81 53q96 0 96 -97
q0 -33 -35 -81l-52 -66q-30 -37 -75 -110z" />
    <glyph glyph-name="glyph322" unicode="&#x1ec9;" horiz-adv-x="506" 
d="M319 698q15 0 15 -14q0 -6 -2 -12l-139 -432q-33 -103 -33 -134q0 -59 51 -59q120 0 471 514q4 -18 4 -26q0 -63 -148 -246q-128 -160 -202 -221q-96 -80 -180 -80q-119 0 -119 125q0 42 29 131l131 403q10 32 39 37q75 14 83 14zM292 777l-10 -2l-12 2v4q0 12 32 75
q64 123 64 172q0 50 -29 50q-51 0 -73 -94l-2 -2l-17 1l-1 2q5 50 33 93q34 53 81 53q96 0 96 -97q0 -33 -35 -81l-52 -66q-30 -37 -75 -110z" />
    <glyph glyph-name="glyph323" unicode="&#x1eca;" horiz-adv-x="1532" 
d="M1139 1090q-228 -27 -463 -256h37q146 0 255 61q121 67 171 195zM1272 1128q-77 -162 -241 -257q-158 -92 -342 -92q-30 0 -60 3q-100 -130 -178 -286l-13 -7l-18 9l-4 12q49 132 164 281q-130 14 -223 81q-111 78 -111 199q0 142 175 243t445 101q263 0 423 -121
q179 -134 179 -389q0 -167 -73 -364q-152 -410 -490 -580q-144 -72 -274 -72q-89 0 -146 34q-71 41 -71 124q0 96 94 165q80 59 184 75l10 -6l3 -15l-3 -12q-176 -54 -176 -170q0 -67 56 -104q47 -31 118 -31q101 0 203 58q198 112 310 389q98 240 98 499q0 134 -39 233z
M1262 1151q-101 219 -426 219q-204 0 -336.5 -84.5t-132.5 -206.5q0 -183 251 -239q315 313 607 313q6 0 18.5 -1t18.5 -1zM585 -322q-95 0 -95 37q0 108 31 108q1 0 34 -7q22 -4 66 -13q31 -6 31 -82q0 -43 -67 -43z" />
    <glyph glyph-name="glyph324" unicode="&#x1ecb;" horiz-adv-x="506" 
d="M375 870q-31 0 -71 18q-48 21 -48 46q0 15 22.5 57.5t32.5 42.5t38 -17q36 -22 40 -24q29 -13 29 -30q0 -93 -43 -93zM319 698q15 0 15 -14q0 -6 -2 -12l-139 -432q-33 -103 -33 -134q0 -59 51 -59q120 0 471 514q4 -18 4 -26q0 -63 -148 -246q-128 -160 -202 -221
q-96 -80 -180 -80q-119 0 -119 125q0 42 29 131l131 403q10 32 39 37q75 14 83 14zM55 -322q-95 0 -95 37q0 108 31 108q1 0 34 -7q22 -4 66 -13q31 -6 31 -82q0 -43 -67 -43z" />
    <glyph glyph-name="glyph325" unicode="&#x1ecc;" horiz-adv-x="1790" 
d="M1069 41q-213 121 -213 375q-59 -13 -174 -13q-72 0 -113 9q0 -6 -1 -17.5t-1 -17.5q0 -165 99 -265t264 -100q67 0 139 29zM1122 61q216 101 367 377q143 262 143 512q0 65 -28 109q-155 -440 -625 -607q-10 -66 -10 -114q0 -195 153 -277zM987 500q210 74 363 227
q158 159 219 367q-39 41 -105 41q-114 0 -255 -179.5t-222 -455.5zM574 455q69 -15 126 -15q73 0 158 17q15 114 60 225q71 173 204 319q163 177 318 177q67 0 139 -45q4 24 4 47q0 102 -83 162q-74 55 -179 55q-237 0 -447 -271q70 -16 117 -32l8 -11l-6 -16l-12 -2
q-19 0 -65 9q-51 10 -68 11q-208 -281 -274 -630zM434 489q44 334 260 605q-14 0 -43 2t-43 2q-172 0 -292 -69q-146 -85 -146 -245q0 -199 264 -295zM1118 14q-102 -41 -203 -41q-205 0 -337.5 129.5t-143.5 335.5q-364 130 -364 365q0 148 148.5 245t389.5 97q53 0 123 -6
q289 303 590 303q129 0 212 -65q91 -71 91 -197q0 -38 -8 -76q80 -86 80 -252q0 -229 -159 -469q-153 -231 -363 -342q52 -25 118 -25q176 0 376 183q111 101 286 327q6 -10 6 -22q0 -48 -137 -201t-236 -223q-147 -103 -301 -103q-86 0 -168 37zM835 -322q-95 0 -95 37
q0 108 31 108q1 0 34 -7q22 -4 66 -13q31 -6 31 -82q0 -43 -67 -43z" />
    <glyph glyph-name="glyph326" unicode="&#x1ecd;" horiz-adv-x="858" 
d="M618 199q10 -43 52 -43q71 0 366 413q6 -10 6 -24q0 -22 -18 -57q-27 -53 -126.5 -179.5t-147.5 -170.5q-69 -62 -119 -62q-45 0 -78 37q-138 -140 -283 -140q-118 0 -188 71t-70 189q0 167 144.5 322.5t310.5 155.5q105 0 170 -80q59 -74 59 -182q0 -119 -78 -250z
M592 524q-28 144 -135 144q-57 0 -119 -58q-79 -73 -128.5 -189t-49.5 -224q0 -179 131 -179q104 0 217 173q-14 30 -14 75q0 126 98 258zM194 -322q-95 0 -95 37q0 108 31 108q1 0 34 -7q22 -4 66 -13q31 -6 31 -82q0 -43 -67 -43z" />
    <glyph glyph-name="glyph327" unicode="&#x1ece;" horiz-adv-x="1790" 
d="M1069 41q-213 121 -213 375q-59 -13 -174 -13q-72 0 -113 9q0 -6 -1 -17.5t-1 -17.5q0 -165 99 -265t264 -100q67 0 139 29zM1122 61q216 101 367 377q143 262 143 512q0 65 -28 109q-155 -440 -625 -607q-10 -66 -10 -114q0 -195 153 -277zM987 500q210 74 363 227
q158 159 219 367q-39 41 -105 41q-114 0 -255 -179.5t-222 -455.5zM574 455q69 -15 126 -15q73 0 158 17q15 114 60 225q71 173 204 319q163 177 318 177q67 0 139 -45q4 24 4 47q0 102 -83 162q-74 55 -179 55q-237 0 -447 -271q70 -16 117 -32l8 -11l-6 -16l-12 -2
q-19 0 -65 9q-51 10 -68 11q-208 -281 -274 -630zM434 489q44 334 260 605q-14 0 -43 2t-43 2q-172 0 -292 -69q-146 -85 -146 -245q0 -199 264 -295zM1118 14q-102 -41 -203 -41q-205 0 -337.5 129.5t-143.5 335.5q-364 130 -364 365q0 148 148.5 245t389.5 97q53 0 123 -6
q289 303 590 303q129 0 212 -65q91 -71 91 -197q0 -38 -8 -76q80 -86 80 -252q0 -229 -159 -469q-153 -231 -363 -342q52 -25 118 -25q176 0 376 183q111 101 286 327q6 -10 6 -22q0 -48 -137 -201t-236 -223q-147 -103 -301 -103q-86 0 -168 37zM1392 1484l-10 -2l-12 2v4
q0 12 32 75q64 123 64 172q0 50 -29 50q-51 0 -73 -94l-2 -2l-17 1l-1 2q5 50 33 93q34 53 81 53q96 0 96 -97q0 -33 -35 -81l-52 -66q-30 -37 -75 -110z" />
    <glyph glyph-name="glyph328" unicode="&#x1ecf;" horiz-adv-x="858" 
d="M618 199q10 -43 52 -43q71 0 366 413q6 -10 6 -24q0 -22 -18 -57q-27 -53 -126.5 -179.5t-147.5 -170.5q-69 -62 -119 -62q-45 0 -78 37q-138 -140 -283 -140q-118 0 -188 71t-70 189q0 167 144.5 322.5t310.5 155.5q105 0 170 -80q59 -74 59 -182q0 -119 -78 -250z
M592 524q-28 144 -135 144q-57 0 -119 -58q-79 -73 -128.5 -189t-49.5 -224q0 -179 131 -179q104 0 217 173q-14 30 -14 75q0 126 98 258zM522 777l-10 -2l-12 2v4q0 12 32 75q64 123 64 172q0 50 -29 50q-51 0 -73 -94l-2 -2l-17 1l-1 2q5 50 33 93q34 53 81 53
q96 0 96 -97q0 -33 -35 -81l-52 -66q-30 -37 -75 -110z" />
    <glyph glyph-name="glyph329" unicode="&#x1ed0;" horiz-adv-x="1790" 
d="M1069 41q-213 121 -213 375q-59 -13 -174 -13q-72 0 -113 9q0 -6 -1 -17.5t-1 -17.5q0 -165 99 -265t264 -100q67 0 139 29zM1122 61q216 101 367 377q143 262 143 512q0 65 -28 109q-155 -440 -625 -607q-10 -66 -10 -114q0 -195 153 -277zM987 500q210 74 363 227
q158 159 219 367q-39 41 -105 41q-114 0 -255 -179.5t-222 -455.5zM574 455q69 -15 126 -15q73 0 158 17q15 114 60 225q71 173 204 319q163 177 318 177q67 0 139 -45q4 24 4 47q0 102 -83 162q-74 55 -179 55q-237 0 -447 -271q70 -16 117 -32l8 -11l-6 -16l-12 -2
q-19 0 -65 9q-51 10 -68 11q-208 -281 -274 -630zM434 489q44 334 260 605q-14 0 -43 2t-43 2q-172 0 -292 -69q-146 -85 -146 -245q0 -199 264 -295zM1118 14q-102 -41 -203 -41q-205 0 -337.5 129.5t-143.5 335.5q-364 130 -364 365q0 148 148.5 245t389.5 97q53 0 123 -6
q289 303 590 303q129 0 212 -65q91 -71 91 -197q0 -38 -8 -76q80 -86 80 -252q0 -229 -159 -469q-153 -231 -363 -342q52 -25 118 -25q176 0 376 183q111 101 286 327q6 -10 6 -22q0 -48 -137 -201t-236 -223q-147 -103 -301 -103q-86 0 -168 37zM1332 1726h101l160 -271
h-52l-163 181l-297 -181h-66zM1257 1771h-56l279 246q37 33 63 33q47 0 47 -51q0 -35 -53 -66z" />
    <glyph glyph-name="glyph330" unicode="&#x1ed1;" horiz-adv-x="858" 
d="M618 199q10 -43 52 -43q71 0 366 413q6 -10 6 -24q0 -22 -18 -57q-27 -53 -126.5 -179.5t-147.5 -170.5q-69 -62 -119 -62q-45 0 -78 37q-138 -140 -283 -140q-118 0 -188 71t-70 189q0 167 144.5 322.5t310.5 155.5q105 0 170 -80q59 -74 59 -182q0 -119 -78 -250z
M592 524q-28 144 -135 144q-57 0 -119 -58q-79 -73 -128.5 -189t-49.5 -224q0 -179 131 -179q104 0 217 173q-14 30 -14 75q0 126 98 258zM534 1051h101l160 -271h-52l-163 181l-297 -181h-66zM458 1096h-56l279 246q37 33 63 33q47 0 47 -51q0 -35 -53 -66z" />
    <glyph glyph-name="glyph331" unicode="&#x1ed2;" horiz-adv-x="1790" 
d="M1069 41q-213 121 -213 375q-59 -13 -174 -13q-72 0 -113 9q0 -6 -1 -17.5t-1 -17.5q0 -165 99 -265t264 -100q67 0 139 29zM1122 61q216 101 367 377q143 262 143 512q0 65 -28 109q-155 -440 -625 -607q-10 -66 -10 -114q0 -195 153 -277zM987 500q210 74 363 227
q158 159 219 367q-39 41 -105 41q-114 0 -255 -179.5t-222 -455.5zM574 455q69 -15 126 -15q73 0 158 17q15 114 60 225q71 173 204 319q163 177 318 177q67 0 139 -45q4 24 4 47q0 102 -83 162q-74 55 -179 55q-237 0 -447 -271q70 -16 117 -32l8 -11l-6 -16l-12 -2
q-19 0 -65 9q-51 10 -68 11q-208 -281 -274 -630zM434 489q44 334 260 605q-14 0 -43 2t-43 2q-172 0 -292 -69q-146 -85 -146 -245q0 -199 264 -295zM1118 14q-102 -41 -203 -41q-205 0 -337.5 129.5t-143.5 335.5q-364 130 -364 365q0 148 148.5 245t389.5 97q53 0 123 -6
q289 303 590 303q129 0 212 -65q91 -71 91 -197q0 -38 -8 -76q80 -86 80 -252q0 -229 -159 -469q-153 -231 -363 -342q52 -25 118 -25q176 0 376 183q111 101 286 327q6 -10 6 -22q0 -48 -137 -201t-236 -223q-147 -103 -301 -103q-86 0 -168 37zM1332 1726h101l160 -271
h-52l-163 181l-297 -181h-66zM1566 1771h-56l-149 172q-29 33 -29 60q0 47 53 47q34 0 62 -53z" />
    <glyph glyph-name="glyph332" unicode="&#x1ed3;" horiz-adv-x="858" 
d="M618 199q10 -43 52 -43q71 0 366 413q6 -10 6 -24q0 -22 -18 -57q-27 -53 -126.5 -179.5t-147.5 -170.5q-69 -62 -119 -62q-45 0 -78 37q-138 -140 -283 -140q-118 0 -188 71t-70 189q0 167 144.5 322.5t310.5 155.5q105 0 170 -80q59 -74 59 -182q0 -119 -78 -250z
M592 524q-28 144 -135 144q-57 0 -119 -58q-79 -73 -128.5 -189t-49.5 -224q0 -179 131 -179q104 0 217 173q-14 30 -14 75q0 126 98 258zM534 1051h101l160 -271h-52l-163 181l-297 -181h-66zM768 1096h-56l-149 172q-29 33 -29 60q0 47 53 47q34 0 62 -53z" />
    <glyph glyph-name="glyph333" unicode="&#x1ed4;" horiz-adv-x="1790" 
d="M1069 41q-213 121 -213 375q-59 -13 -174 -13q-72 0 -113 9q0 -6 -1 -17.5t-1 -17.5q0 -165 99 -265t264 -100q67 0 139 29zM1122 61q216 101 367 377q143 262 143 512q0 65 -28 109q-155 -440 -625 -607q-10 -66 -10 -114q0 -195 153 -277zM987 500q210 74 363 227
q158 159 219 367q-39 41 -105 41q-114 0 -255 -179.5t-222 -455.5zM574 455q69 -15 126 -15q73 0 158 17q15 114 60 225q71 173 204 319q163 177 318 177q67 0 139 -45q4 24 4 47q0 102 -83 162q-74 55 -179 55q-237 0 -447 -271q70 -16 117 -32l8 -11l-6 -16l-12 -2
q-19 0 -65 9q-51 10 -68 11q-208 -281 -274 -630zM434 489q44 334 260 605q-14 0 -43 2t-43 2q-172 0 -292 -69q-146 -85 -146 -245q0 -199 264 -295zM1118 14q-102 -41 -203 -41q-205 0 -337.5 129.5t-143.5 335.5q-364 130 -364 365q0 148 148.5 245t389.5 97q53 0 123 -6
q289 303 590 303q129 0 212 -65q91 -71 91 -197q0 -38 -8 -76q80 -86 80 -252q0 -229 -159 -469q-153 -231 -363 -342q52 -25 118 -25q176 0 376 183q111 101 286 327q6 -10 6 -22q0 -48 -137 -201t-236 -223q-147 -103 -301 -103q-86 0 -168 37zM1332 1726h101l160 -271
h-52l-163 181l-297 -181h-66zM1537 1714l-10 -2l-12 2v4q0 12 32 75q64 123 64 172q0 50 -29 50q-51 0 -73 -94l-2 -2l-17 1l-1 2q5 50 33 93q34 53 81 53q96 0 96 -97q0 -33 -35 -81l-52 -66q-30 -37 -75 -110z" />
    <glyph glyph-name="glyph334" unicode="&#x1ed5;" horiz-adv-x="858" 
d="M618 199q10 -43 52 -43q71 0 366 413q6 -10 6 -24q0 -22 -18 -57q-27 -53 -126.5 -179.5t-147.5 -170.5q-69 -62 -119 -62q-45 0 -78 37q-138 -140 -283 -140q-118 0 -188 71t-70 189q0 167 144.5 322.5t310.5 155.5q105 0 170 -80q59 -74 59 -182q0 -119 -78 -250z
M592 524q-28 144 -135 144q-57 0 -119 -58q-79 -73 -128.5 -189t-49.5 -224q0 -179 131 -179q104 0 217 173q-14 30 -14 75q0 126 98 258zM534 1051h101l160 -271h-52l-163 181l-297 -181h-66zM738 1039l-10 -2l-12 2v4q0 12 32 75q64 123 64 172q0 50 -29 50q-51 0 -73 -94
l-2 -2l-17 1l-1 2q5 50 33 93q34 53 81 53q96 0 96 -97q0 -33 -35 -81l-52 -66q-30 -37 -75 -110z" />
    <glyph glyph-name="glyph335" unicode="&#x1ed6;" horiz-adv-x="1790" 
d="M1069 41q-213 121 -213 375q-59 -13 -174 -13q-72 0 -113 9q0 -6 -1 -17.5t-1 -17.5q0 -165 99 -265t264 -100q67 0 139 29zM1122 61q216 101 367 377q143 262 143 512q0 65 -28 109q-155 -440 -625 -607q-10 -66 -10 -114q0 -195 153 -277zM987 500q210 74 363 227
q158 159 219 367q-39 41 -105 41q-114 0 -255 -179.5t-222 -455.5zM574 455q69 -15 126 -15q73 0 158 17q15 114 60 225q71 173 204 319q163 177 318 177q67 0 139 -45q4 24 4 47q0 102 -83 162q-74 55 -179 55q-237 0 -447 -271q70 -16 117 -32l8 -11l-6 -16l-12 -2
q-19 0 -65 9q-51 10 -68 11q-208 -281 -274 -630zM434 489q44 334 260 605q-14 0 -43 2t-43 2q-172 0 -292 -69q-146 -85 -146 -245q0 -199 264 -295zM1118 14q-102 -41 -203 -41q-205 0 -337.5 129.5t-143.5 335.5q-364 130 -364 365q0 148 148.5 245t389.5 97q53 0 123 -6
q289 303 590 303q129 0 212 -65q91 -71 91 -197q0 -38 -8 -76q80 -86 80 -252q0 -229 -159 -469q-153 -231 -363 -342q52 -25 118 -25q176 0 376 183q111 101 286 327q6 -10 6 -22q0 -48 -137 -201t-236 -223q-147 -103 -301 -103q-86 0 -168 37zM1332 1726h101l160 -271
h-52l-163 181l-297 -181h-66zM1729 2013h45q-44 -183 -170 -183q-39 0 -130.5 29t-127.5 29q-76 0 -95 -80h-47q47 176 168 176q46 0 133 -27.5t130 -27.5q73 0 94 84z" />
    <glyph glyph-name="glyph336" unicode="&#x1ed7;" horiz-adv-x="858" 
d="M618 199q10 -43 52 -43q71 0 366 413q6 -10 6 -24q0 -22 -18 -57q-27 -53 -126.5 -179.5t-147.5 -170.5q-69 -62 -119 -62q-45 0 -78 37q-138 -140 -283 -140q-118 0 -188 71t-70 189q0 167 144.5 322.5t310.5 155.5q105 0 170 -80q59 -74 59 -182q0 -119 -78 -250z
M592 524q-28 144 -135 144q-57 0 -119 -58q-79 -73 -128.5 -189t-49.5 -224q0 -179 131 -179q104 0 217 173q-14 30 -14 75q0 126 98 258zM534 1051h101l160 -271h-52l-163 181l-297 -181h-66zM931 1338h45q-44 -183 -170 -183q-39 0 -130.5 29t-127.5 29q-76 0 -95 -80h-47
q47 176 168 176q46 0 133 -27.5t130 -27.5q73 0 94 84z" />
    <glyph glyph-name="glyph337" unicode="&#x1ed8;" horiz-adv-x="1790" 
d="M1069 41q-213 121 -213 375q-59 -13 -174 -13q-72 0 -113 9q0 -6 -1 -17.5t-1 -17.5q0 -165 99 -265t264 -100q67 0 139 29zM1122 61q216 101 367 377q143 262 143 512q0 65 -28 109q-155 -440 -625 -607q-10 -66 -10 -114q0 -195 153 -277zM987 500q210 74 363 227
q158 159 219 367q-39 41 -105 41q-114 0 -255 -179.5t-222 -455.5zM574 455q69 -15 126 -15q73 0 158 17q15 114 60 225q71 173 204 319q163 177 318 177q67 0 139 -45q4 24 4 47q0 102 -83 162q-74 55 -179 55q-237 0 -447 -271q70 -16 117 -32l8 -11l-6 -16l-12 -2
q-19 0 -65 9q-51 10 -68 11q-208 -281 -274 -630zM434 489q44 334 260 605q-14 0 -43 2t-43 2q-172 0 -292 -69q-146 -85 -146 -245q0 -199 264 -295zM1118 14q-102 -41 -203 -41q-205 0 -337.5 129.5t-143.5 335.5q-364 130 -364 365q0 148 148.5 245t389.5 97q53 0 123 -6
q289 303 590 303q129 0 212 -65q91 -71 91 -197q0 -38 -8 -76q80 -86 80 -252q0 -229 -159 -469q-153 -231 -363 -342q52 -25 118 -25q176 0 376 183q111 101 286 327q6 -10 6 -22q0 -48 -137 -201t-236 -223q-147 -103 -301 -103q-86 0 -168 37zM1332 1726h101l160 -271
h-52l-163 181l-297 -181h-66zM835 -322q-95 0 -95 37q0 108 31 108q1 0 34 -7q22 -4 66 -13q31 -6 31 -82q0 -43 -67 -43z" />
    <glyph glyph-name="glyph338" unicode="&#x1ed9;" horiz-adv-x="858" 
d="M618 199q10 -43 52 -43q71 0 366 413q6 -10 6 -24q0 -22 -18 -57q-27 -53 -126.5 -179.5t-147.5 -170.5q-69 -62 -119 -62q-45 0 -78 37q-138 -140 -283 -140q-118 0 -188 71t-70 189q0 167 144.5 322.5t310.5 155.5q105 0 170 -80q59 -74 59 -182q0 -119 -78 -250z
M592 524q-28 144 -135 144q-57 0 -119 -58q-79 -73 -128.5 -189t-49.5 -224q0 -179 131 -179q104 0 217 173q-14 30 -14 75q0 126 98 258zM534 1051h101l160 -271h-52l-163 181l-297 -181h-66zM194 -322q-95 0 -95 37q0 108 31 108q1 0 34 -7q22 -4 66 -13q31 -6 31 -82
q0 -43 -67 -43z" />
    <glyph glyph-name="glyph339" unicode="&#x1eda;" horiz-adv-x="1790" 
d="M1069 41q-213 121 -213 375q-59 -13 -174 -13q-72 0 -113 9q0 -6 -1 -17.5t-1 -17.5q0 -165 99 -265t264 -100q67 0 139 29zM1122 61q216 101 367 377q143 262 143 512q0 65 -28 109q-155 -440 -625 -607q-10 -66 -10 -114q0 -195 153 -277zM987 500q210 74 363 227
q158 159 219 367q-39 41 -105 41q-114 0 -255 -179.5t-222 -455.5zM574 455q69 -15 126 -15q73 0 158 17q15 114 60 225q71 173 204 319q163 177 318 177q67 0 139 -45q4 24 4 47q0 102 -83 162q-74 55 -179 55q-237 0 -447 -271q70 -16 117 -32l8 -11l-6 -16l-12 -2
q-19 0 -65 9q-51 10 -68 11q-208 -281 -274 -630zM434 489q44 334 260 605q-14 0 -43 2t-43 2q-172 0 -292 -69q-146 -85 -146 -245q0 -199 264 -295zM1118 14q-102 -41 -203 -41q-205 0 -337.5 129.5t-143.5 335.5q-364 130 -364 365q0 148 148.5 245t389.5 97q53 0 123 -6
q289 303 590 303q129 0 212 -65q91 -71 91 -197q0 -38 -8 -76q80 -86 80 -252q0 -229 -159 -469q-153 -231 -363 -342q52 -25 118 -25q176 0 376 183q111 101 286 327q6 -10 6 -22q0 -48 -137 -201t-236 -223q-147 -103 -301 -103q-86 0 -168 37zM1601 1128l10 41
q150 85 150 154q0 36 -38 36q-10 0 -47 -12l-8 7q23 80 25 84q19 36 70 36q88 0 88 -89q0 -130 -250 -257zM1297 1515h-56l279 246q37 33 63 33q47 0 47 -51q0 -35 -53 -66z" />
    <glyph glyph-name="glyph340" unicode="&#x1edb;" horiz-adv-x="858" 
d="M618 199q10 -43 52 -43q71 0 366 413q6 -10 6 -24q0 -22 -18 -57q-27 -53 -126.5 -179.5t-147.5 -170.5q-69 -62 -119 -62q-45 0 -78 37q-138 -140 -283 -140q-118 0 -188 71t-70 189q0 167 144.5 322.5t310.5 155.5q105 0 170 -80q59 -74 59 -182q0 -119 -78 -250z
M592 524q-28 144 -135 144q-57 0 -119 -58q-79 -73 -128.5 -189t-49.5 -224q0 -179 131 -179q104 0 217 173q-14 30 -14 75q0 126 98 258zM678 473l10 41q150 85 150 154q0 36 -38 36q-10 0 -47 -12l-8 7q23 80 25 84q19 36 70 36q88 0 88 -89q0 -130 -250 -257zM459 780
h-56l279 246q37 33 63 33q47 0 47 -51q0 -35 -53 -66z" />
    <glyph glyph-name="glyph341" unicode="&#x1edc;" horiz-adv-x="1790" 
d="M1069 41q-213 121 -213 375q-59 -13 -174 -13q-72 0 -113 9q0 -6 -1 -17.5t-1 -17.5q0 -165 99 -265t264 -100q67 0 139 29zM1122 61q216 101 367 377q143 262 143 512q0 65 -28 109q-155 -440 -625 -607q-10 -66 -10 -114q0 -195 153 -277zM987 500q210 74 363 227
q158 159 219 367q-39 41 -105 41q-114 0 -255 -179.5t-222 -455.5zM574 455q69 -15 126 -15q73 0 158 17q15 114 60 225q71 173 204 319q163 177 318 177q67 0 139 -45q4 24 4 47q0 102 -83 162q-74 55 -179 55q-237 0 -447 -271q70 -16 117 -32l8 -11l-6 -16l-12 -2
q-19 0 -65 9q-51 10 -68 11q-208 -281 -274 -630zM434 489q44 334 260 605q-14 0 -43 2t-43 2q-172 0 -292 -69q-146 -85 -146 -245q0 -199 264 -295zM1118 14q-102 -41 -203 -41q-205 0 -337.5 129.5t-143.5 335.5q-364 130 -364 365q0 148 148.5 245t389.5 97q53 0 123 -6
q289 303 590 303q129 0 212 -65q91 -71 91 -197q0 -38 -8 -76q80 -86 80 -252q0 -229 -159 -469q-153 -231 -363 -342q52 -25 118 -25q176 0 376 183q111 101 286 327q6 -10 6 -22q0 -48 -137 -201t-236 -223q-147 -103 -301 -103q-86 0 -168 37zM1601 1128l10 41
q150 85 150 154q0 36 -38 36q-10 0 -47 -12l-8 7q23 80 25 84q19 36 70 36q88 0 88 -89q0 -130 -250 -257zM1467 1515h-56l-149 172q-29 33 -29 60q0 47 53 47q34 0 62 -53z" />
    <glyph glyph-name="glyph342" unicode="&#x1edd;" horiz-adv-x="858" 
d="M618 199q10 -43 52 -43q71 0 366 413q6 -10 6 -24q0 -22 -18 -57q-27 -53 -126.5 -179.5t-147.5 -170.5q-69 -62 -119 -62q-45 0 -78 37q-138 -140 -283 -140q-118 0 -188 71t-70 189q0 167 144.5 322.5t310.5 155.5q105 0 170 -80q59 -74 59 -182q0 -119 -78 -250z
M592 524q-28 144 -135 144q-57 0 -119 -58q-79 -73 -128.5 -189t-49.5 -224q0 -179 131 -179q104 0 217 173q-14 30 -14 75q0 126 98 258zM678 473l10 41q150 85 150 154q0 36 -38 36q-10 0 -47 -12l-8 7q23 80 25 84q19 36 70 36q88 0 88 -89q0 -130 -250 -257zM629 780
h-56l-149 172q-29 33 -29 60q0 47 53 47q34 0 62 -53z" />
    <glyph glyph-name="glyph343" unicode="&#x1ede;" horiz-adv-x="1790" 
d="M1069 41q-213 121 -213 375q-59 -13 -174 -13q-72 0 -113 9q0 -6 -1 -17.5t-1 -17.5q0 -165 99 -265t264 -100q67 0 139 29zM1122 61q216 101 367 377q143 262 143 512q0 65 -28 109q-155 -440 -625 -607q-10 -66 -10 -114q0 -195 153 -277zM987 500q210 74 363 227
q158 159 219 367q-39 41 -105 41q-114 0 -255 -179.5t-222 -455.5zM574 455q69 -15 126 -15q73 0 158 17q15 114 60 225q71 173 204 319q163 177 318 177q67 0 139 -45q4 24 4 47q0 102 -83 162q-74 55 -179 55q-237 0 -447 -271q70 -16 117 -32l8 -11l-6 -16l-12 -2
q-19 0 -65 9q-51 10 -68 11q-208 -281 -274 -630zM434 489q44 334 260 605q-14 0 -43 2t-43 2q-172 0 -292 -69q-146 -85 -146 -245q0 -199 264 -295zM1118 14q-102 -41 -203 -41q-205 0 -337.5 129.5t-143.5 335.5q-364 130 -364 365q0 148 148.5 245t389.5 97q53 0 123 -6
q289 303 590 303q129 0 212 -65q91 -71 91 -197q0 -38 -8 -76q80 -86 80 -252q0 -229 -159 -469q-153 -231 -363 -342q52 -25 118 -25q176 0 376 183q111 101 286 327q6 -10 6 -22q0 -48 -137 -201t-236 -223q-147 -103 -301 -103q-86 0 -168 37zM1601 1128l10 41
q150 85 150 154q0 36 -38 36q-10 0 -47 -12l-8 7q23 80 25 84q19 36 70 36q88 0 88 -89q0 -130 -250 -257zM1392 1484l-10 -2l-12 2v4q0 12 32 75q64 123 64 172q0 50 -29 50q-51 0 -73 -94l-2 -2l-17 1l-1 2q5 50 33 93q34 53 81 53q96 0 96 -97q0 -33 -35 -81l-52 -66
q-30 -37 -75 -110z" />
    <glyph glyph-name="glyph344" unicode="&#x1edf;" horiz-adv-x="858" 
d="M618 199q10 -43 52 -43q71 0 366 413q6 -10 6 -24q0 -22 -18 -57q-27 -53 -126.5 -179.5t-147.5 -170.5q-69 -62 -119 -62q-45 0 -78 37q-138 -140 -283 -140q-118 0 -188 71t-70 189q0 167 144.5 322.5t310.5 155.5q105 0 170 -80q59 -74 59 -182q0 -119 -78 -250z
M592 524q-28 144 -135 144q-57 0 -119 -58q-79 -73 -128.5 -189t-49.5 -224q0 -179 131 -179q104 0 217 173q-14 30 -14 75q0 126 98 258zM678 473l10 41q150 85 150 154q0 36 -38 36q-10 0 -47 -12l-8 7q23 80 25 84q19 36 70 36q88 0 88 -89q0 -130 -250 -257zM522 777
l-10 -2l-12 2v4q0 12 32 75q64 123 64 172q0 50 -29 50q-51 0 -73 -94l-2 -2l-17 1l-1 2q5 50 33 93q34 53 81 53q96 0 96 -97q0 -33 -35 -81l-52 -66q-30 -37 -75 -110z" />
    <glyph glyph-name="glyph345" unicode="&#x1ee0;" horiz-adv-x="1790" 
d="M1069 41q-213 121 -213 375q-59 -13 -174 -13q-72 0 -113 9q0 -6 -1 -17.5t-1 -17.5q0 -165 99 -265t264 -100q67 0 139 29zM1122 61q216 101 367 377q143 262 143 512q0 65 -28 109q-155 -440 -625 -607q-10 -66 -10 -114q0 -195 153 -277zM987 500q210 74 363 227
q158 159 219 367q-39 41 -105 41q-114 0 -255 -179.5t-222 -455.5zM574 455q69 -15 126 -15q73 0 158 17q15 114 60 225q71 173 204 319q163 177 318 177q67 0 139 -45q4 24 4 47q0 102 -83 162q-74 55 -179 55q-237 0 -447 -271q70 -16 117 -32l8 -11l-6 -16l-12 -2
q-19 0 -65 9q-51 10 -68 11q-208 -281 -274 -630zM434 489q44 334 260 605q-14 0 -43 2t-43 2q-172 0 -292 -69q-146 -85 -146 -245q0 -199 264 -295zM1118 14q-102 -41 -203 -41q-205 0 -337.5 129.5t-143.5 335.5q-364 130 -364 365q0 148 148.5 245t389.5 97q53 0 123 -6
q289 303 590 303q129 0 212 -65q91 -71 91 -197q0 -38 -8 -76q80 -86 80 -252q0 -229 -159 -469q-153 -231 -363 -342q52 -25 118 -25q176 0 376 183q111 101 286 327q6 -10 6 -22q0 -48 -137 -201t-236 -223q-147 -103 -301 -103q-86 0 -168 37zM1601 1128l10 41
q150 85 150 154q0 36 -38 36q-10 0 -47 -12l-8 7q23 80 25 84q19 36 70 36q88 0 88 -89q0 -130 -250 -257zM1643 1747h45q-44 -183 -170 -183q-39 0 -130.5 29t-127.5 29q-76 0 -95 -80h-47q47 176 168 176q46 0 133 -27.5t130 -27.5q73 0 94 84z" />
    <glyph glyph-name="glyph346" unicode="&#x1ee1;" horiz-adv-x="858" 
d="M618 199q10 -43 52 -43q71 0 366 413q6 -10 6 -24q0 -22 -18 -57q-27 -53 -126.5 -179.5t-147.5 -170.5q-69 -62 -119 -62q-45 0 -78 37q-138 -140 -283 -140q-118 0 -188 71t-70 189q0 167 144.5 322.5t310.5 155.5q105 0 170 -80q59 -74 59 -182q0 -119 -78 -250z
M592 524q-28 144 -135 144q-57 0 -119 -58q-79 -73 -128.5 -189t-49.5 -224q0 -179 131 -179q104 0 217 173q-14 30 -14 75q0 126 98 258zM678 473l10 41q150 85 150 154q0 36 -38 36q-10 0 -47 -12l-8 7q23 80 25 84q19 36 70 36q88 0 88 -89q0 -130 -250 -257zM805 1012
h45q-44 -183 -170 -183q-39 0 -130.5 29t-127.5 29q-76 0 -95 -80h-47q47 176 168 176q46 0 133 -27.5t130 -27.5q73 0 94 84z" />
    <glyph glyph-name="glyph347" unicode="&#x1ee2;" horiz-adv-x="1790" 
d="M1069 41q-213 121 -213 375q-59 -13 -174 -13q-72 0 -113 9q0 -6 -1 -17.5t-1 -17.5q0 -165 99 -265t264 -100q67 0 139 29zM1122 61q216 101 367 377q143 262 143 512q0 65 -28 109q-155 -440 -625 -607q-10 -66 -10 -114q0 -195 153 -277zM987 500q210 74 363 227
q158 159 219 367q-39 41 -105 41q-114 0 -255 -179.5t-222 -455.5zM574 455q69 -15 126 -15q73 0 158 17q15 114 60 225q71 173 204 319q163 177 318 177q67 0 139 -45q4 24 4 47q0 102 -83 162q-74 55 -179 55q-237 0 -447 -271q70 -16 117 -32l8 -11l-6 -16l-12 -2
q-19 0 -65 9q-51 10 -68 11q-208 -281 -274 -630zM434 489q44 334 260 605q-14 0 -43 2t-43 2q-172 0 -292 -69q-146 -85 -146 -245q0 -199 264 -295zM1118 14q-102 -41 -203 -41q-205 0 -337.5 129.5t-143.5 335.5q-364 130 -364 365q0 148 148.5 245t389.5 97q53 0 123 -6
q289 303 590 303q129 0 212 -65q91 -71 91 -197q0 -38 -8 -76q80 -86 80 -252q0 -229 -159 -469q-153 -231 -363 -342q52 -25 118 -25q176 0 376 183q111 101 286 327q6 -10 6 -22q0 -48 -137 -201t-236 -223q-147 -103 -301 -103q-86 0 -168 37zM1601 1128l10 41
q150 85 150 154q0 36 -38 36q-10 0 -47 -12l-8 7q23 80 25 84q19 36 70 36q88 0 88 -89q0 -130 -250 -257zM835 -322q-95 0 -95 37q0 108 31 108q1 0 34 -7q22 -4 66 -13q31 -6 31 -82q0 -43 -67 -43z" />
    <glyph glyph-name="glyph348" unicode="&#x1ee3;" horiz-adv-x="858" 
d="M618 199q10 -43 52 -43q71 0 366 413q6 -10 6 -24q0 -22 -18 -57q-27 -53 -126.5 -179.5t-147.5 -170.5q-69 -62 -119 -62q-45 0 -78 37q-138 -140 -283 -140q-118 0 -188 71t-70 189q0 167 144.5 322.5t310.5 155.5q105 0 170 -80q59 -74 59 -182q0 -119 -78 -250z
M592 524q-28 144 -135 144q-57 0 -119 -58q-79 -73 -128.5 -189t-49.5 -224q0 -179 131 -179q104 0 217 173q-14 30 -14 75q0 126 98 258zM678 473l10 41q150 85 150 154q0 36 -38 36q-10 0 -47 -12l-8 7q23 80 25 84q19 36 70 36q88 0 88 -89q0 -130 -250 -257zM194 -322
q-95 0 -95 37q0 108 31 108q1 0 34 -7q22 -4 66 -13q31 -6 31 -82q0 -43 -67 -43z" />
    <glyph glyph-name="glyph349" unicode="&#x1ee4;" horiz-adv-x="2198" 
d="M1729 391q-310 -416 -594 -416q-82 0 -136 44q-57 48 -57 128q0 68 41 195l174 537q39 120 39 192q0 172 -158 259q-126 69 -313 69q-168 0 -282 -58q-148 -74 -148 -225t161 -228q124 -59 294 -59q27 0 111 6l9 -6l2 -16l-6 -14q-62 -11 -149 -11q-247 0 -397 99.5
t-150 255.5q0 167 162 250q126 65 311 65q139 0 267 -32q170 -44 281 -127q144 -107 144 -255q0 -70 -67 -270l-160 -477q-29 -86 -29 -150q0 -50 44 -81q39 -27 91 -27q216 0 539 457q182 701 408 895l12 -1q6 -20 6 -40q0 -131 -77 -337q-70 -187 -183 -363
q-10 -13 -25 -38q-1 -3 -20 -78q-25 -107 -38 -180q-19 -103 -19 -168q0 -159 92 -159q117 0 483 505q8 -16 8 -26q0 -33 -117 -189q-262 -350 -415 -350q-164 0 -164 226q0 82 25 198zM1345 -322q-95 0 -95 37q0 108 31 108q1 0 34 -7q22 -4 66 -13q31 -6 31 -82
q0 -43 -67 -43z" />
    <glyph glyph-name="glyph350" unicode="&#x1ee5;" horiz-adv-x="922" 
d="M317 698q17 0 17 -14q0 -6 -4 -18l-162 -473q-18 -53 -18 -91q0 -41 38 -41q64 0 215 191q97 122 179 250q23 36 55 108q31 68 59 74q78 16 84 16q17 0 17 -16q0 -6 -4 -18l-160 -469q-19 -56 -19 -91q0 -45 41 -45q98 0 439 512q8 -16 8 -28q0 -60 -144 -247
q-124 -161 -197 -227q-97 -89 -163 -89q-109 0 -109 120q0 69 101 342q-310 -462 -465 -462q-105 0 -105 110q0 41 27 123l141 428q11 34 37 39q84 16 92 16zM264 -322q-95 0 -95 37q0 108 31 108q1 0 34 -7q22 -4 66 -13q31 -6 31 -82q0 -43 -67 -43z" />
    <glyph glyph-name="glyph351" unicode="&#x1ee6;" horiz-adv-x="2198" 
d="M1729 391q-310 -416 -594 -416q-82 0 -136 44q-57 48 -57 128q0 68 41 195l174 537q39 120 39 192q0 172 -158 259q-126 69 -313 69q-168 0 -282 -58q-148 -74 -148 -225t161 -228q124 -59 294 -59q27 0 111 6l9 -6l2 -16l-6 -14q-62 -11 -149 -11q-247 0 -397 99.5
t-150 255.5q0 167 162 250q126 65 311 65q139 0 267 -32q170 -44 281 -127q144 -107 144 -255q0 -70 -67 -270l-160 -477q-29 -86 -29 -150q0 -50 44 -81q39 -27 91 -27q216 0 539 457q182 701 408 895l12 -1q6 -20 6 -40q0 -131 -77 -337q-70 -187 -183 -363
q-10 -13 -25 -38q-1 -3 -20 -78q-25 -107 -38 -180q-19 -103 -19 -168q0 -159 92 -159q117 0 483 505q8 -16 8 -26q0 -33 -117 -189q-262 -350 -415 -350q-164 0 -164 226q0 82 25 198zM1702 1484l-10 -2l-12 2v4q0 12 32 75q64 123 64 172q0 50 -29 50q-51 0 -73 -94l-2 -2
l-17 1l-1 2q5 50 33 93q34 53 81 53q96 0 96 -97q0 -33 -35 -81l-52 -66q-30 -37 -75 -110z" />
    <glyph glyph-name="glyph352" unicode="&#x1ee7;" horiz-adv-x="922" 
d="M317 698q17 0 17 -14q0 -6 -4 -18l-162 -473q-18 -53 -18 -91q0 -41 38 -41q64 0 215 191q97 122 179 250q23 36 55 108q31 68 59 74q78 16 84 16q17 0 17 -16q0 -6 -4 -18l-160 -469q-19 -56 -19 -91q0 -45 41 -45q98 0 439 512q8 -16 8 -28q0 -60 -144 -247
q-124 -161 -197 -227q-97 -89 -163 -89q-109 0 -109 120q0 69 101 342q-310 -462 -465 -462q-105 0 -105 110q0 41 27 123l141 428q11 34 37 39q84 16 92 16zM512 777l-10 -2l-12 2v4q0 12 32 75q64 123 64 172q0 50 -29 50q-51 0 -73 -94l-2 -2l-17 1l-1 2q5 50 33 93
q34 53 81 53q96 0 96 -97q0 -33 -35 -81l-52 -66q-30 -37 -75 -110z" />
    <glyph glyph-name="glyph353" unicode="&#x1ee8;" horiz-adv-x="2198" 
d="M1729 391q-310 -416 -594 -416q-82 0 -136 44q-57 48 -57 128q0 68 41 195l174 537q39 120 39 192q0 172 -158 259q-126 69 -313 69q-168 0 -282 -58q-148 -74 -148 -225t161 -228q124 -59 294 -59q27 0 111 6l9 -6l2 -16l-6 -14q-62 -11 -149 -11q-247 0 -397 99.5
t-150 255.5q0 167 162 250q126 65 311 65q139 0 267 -32q170 -44 281 -127q144 -107 144 -255q0 -70 -67 -270l-160 -477q-29 -86 -29 -150q0 -50 44 -81q39 -27 91 -27q216 0 539 457q182 701 408 895l12 -1q6 -20 6 -40q0 -131 -77 -337q-70 -187 -183 -363
q-10 -13 -25 -38q-1 -3 -20 -78q-25 -107 -38 -180q-19 -103 -19 -168q0 -159 92 -159q117 0 483 505q8 -16 8 -26q0 -33 -117 -189q-262 -350 -415 -350q-164 0 -164 226q0 82 25 198zM2138 1128l10 41q150 85 150 154q0 36 -38 36q-10 0 -47 -12l-8 7q23 80 25 84
q19 36 70 36q88 0 88 -89q0 -130 -250 -257zM1653 1515h-56l279 246q37 33 63 33q47 0 47 -51q0 -35 -53 -66z" />
    <glyph glyph-name="glyph354" unicode="&#x1ee9;" horiz-adv-x="922" 
d="M317 698q17 0 17 -14q0 -6 -4 -18l-162 -473q-18 -53 -18 -91q0 -41 38 -41q64 0 215 191q97 122 179 250q23 36 55 108q31 68 59 74q78 16 84 16q17 0 17 -16q0 -6 -4 -18l-160 -469q-19 -56 -19 -91q0 -45 41 -45q98 0 439 512q8 -16 8 -28q0 -60 -144 -247
q-124 -161 -197 -227q-97 -89 -163 -89q-109 0 -109 120q0 69 101 342q-310 -462 -465 -462q-105 0 -105 110q0 41 27 123l141 428q11 34 37 39q84 16 92 16zM727 473l10 41q150 85 150 154q0 36 -38 36q-10 0 -47 -12l-8 7q23 80 25 84q19 36 70 36q88 0 88 -89
q0 -130 -250 -257zM490 780h-56l279 246q37 33 63 33q47 0 47 -51q0 -35 -53 -66z" />
    <glyph glyph-name="glyph355" unicode="&#x1eea;" horiz-adv-x="2198" 
d="M1729 391q-310 -416 -594 -416q-82 0 -136 44q-57 48 -57 128q0 68 41 195l174 537q39 120 39 192q0 172 -158 259q-126 69 -313 69q-168 0 -282 -58q-148 -74 -148 -225t161 -228q124 -59 294 -59q27 0 111 6l9 -6l2 -16l-6 -14q-62 -11 -149 -11q-247 0 -397 99.5
t-150 255.5q0 167 162 250q126 65 311 65q139 0 267 -32q170 -44 281 -127q144 -107 144 -255q0 -70 -67 -270l-160 -477q-29 -86 -29 -150q0 -50 44 -81q39 -27 91 -27q216 0 539 457q182 701 408 895l12 -1q6 -20 6 -40q0 -131 -77 -337q-70 -187 -183 -363
q-10 -13 -25 -38q-1 -3 -20 -78q-25 -107 -38 -180q-19 -103 -19 -168q0 -159 92 -159q117 0 483 505q8 -16 8 -26q0 -33 -117 -189q-262 -350 -415 -350q-164 0 -164 226q0 82 25 198zM2138 1128l10 41q150 85 150 154q0 36 -38 36q-10 0 -47 -12l-8 7q23 80 25 84
q19 36 70 36q88 0 88 -89q0 -130 -250 -257zM1823 1515h-56l-149 172q-29 33 -29 60q0 47 53 47q34 0 62 -53z" />
    <glyph glyph-name="glyph356" unicode="&#x1eeb;" horiz-adv-x="922" 
d="M317 698q17 0 17 -14q0 -6 -4 -18l-162 -473q-18 -53 -18 -91q0 -41 38 -41q64 0 215 191q97 122 179 250q23 36 55 108q31 68 59 74q78 16 84 16q17 0 17 -16q0 -6 -4 -18l-160 -469q-19 -56 -19 -91q0 -45 41 -45q98 0 439 512q8 -16 8 -28q0 -60 -144 -247
q-124 -161 -197 -227q-97 -89 -163 -89q-109 0 -109 120q0 69 101 342q-310 -462 -465 -462q-105 0 -105 110q0 41 27 123l141 428q11 34 37 39q84 16 92 16zM727 473l10 41q150 85 150 154q0 36 -38 36q-10 0 -47 -12l-8 7q23 80 25 84q19 36 70 36q88 0 88 -89
q0 -130 -250 -257zM660 780h-56l-149 172q-29 33 -29 60q0 47 53 47q34 0 62 -53z" />
    <glyph glyph-name="glyph357" unicode="&#x1eec;" horiz-adv-x="2198" 
d="M1729 391q-310 -416 -594 -416q-82 0 -136 44q-57 48 -57 128q0 68 41 195l174 537q39 120 39 192q0 172 -158 259q-126 69 -313 69q-168 0 -282 -58q-148 -74 -148 -225t161 -228q124 -59 294 -59q27 0 111 6l9 -6l2 -16l-6 -14q-62 -11 -149 -11q-247 0 -397 99.5
t-150 255.5q0 167 162 250q126 65 311 65q139 0 267 -32q170 -44 281 -127q144 -107 144 -255q0 -70 -67 -270l-160 -477q-29 -86 -29 -150q0 -50 44 -81q39 -27 91 -27q216 0 539 457q182 701 408 895l12 -1q6 -20 6 -40q0 -131 -77 -337q-70 -187 -183 -363
q-10 -13 -25 -38q-1 -3 -20 -78q-25 -107 -38 -180q-19 -103 -19 -168q0 -159 92 -159q117 0 483 505q8 -16 8 -26q0 -33 -117 -189q-262 -350 -415 -350q-164 0 -164 226q0 82 25 198zM2138 1128l10 41q150 85 150 154q0 36 -38 36q-10 0 -47 -12l-8 7q23 80 25 84
q19 36 70 36q88 0 88 -89q0 -130 -250 -257zM1702 1484l-10 -2l-12 2v4q0 12 32 75q64 123 64 172q0 50 -29 50q-51 0 -73 -94l-2 -2l-17 1l-1 2q5 50 33 93q34 53 81 53q96 0 96 -97q0 -33 -35 -81l-52 -66q-30 -37 -75 -110z" />
    <glyph glyph-name="glyph358" unicode="&#x1eed;" horiz-adv-x="922" 
d="M317 698q17 0 17 -14q0 -6 -4 -18l-162 -473q-18 -53 -18 -91q0 -41 38 -41q64 0 215 191q97 122 179 250q23 36 55 108q31 68 59 74q78 16 84 16q17 0 17 -16q0 -6 -4 -18l-160 -469q-19 -56 -19 -91q0 -45 41 -45q98 0 439 512q8 -16 8 -28q0 -60 -144 -247
q-124 -161 -197 -227q-97 -89 -163 -89q-109 0 -109 120q0 69 101 342q-310 -462 -465 -462q-105 0 -105 110q0 41 27 123l141 428q11 34 37 39q84 16 92 16zM727 473l10 41q150 85 150 154q0 36 -38 36q-10 0 -47 -12l-8 7q23 80 25 84q19 36 70 36q88 0 88 -89
q0 -130 -250 -257zM512 777l-10 -2l-12 2v4q0 12 32 75q64 123 64 172q0 50 -29 50q-51 0 -73 -94l-2 -2l-17 1l-1 2q5 50 33 93q34 53 81 53q96 0 96 -97q0 -33 -35 -81l-52 -66q-30 -37 -75 -110z" />
    <glyph glyph-name="glyph359" unicode="&#x1eee;" horiz-adv-x="2198" 
d="M1729 391q-310 -416 -594 -416q-82 0 -136 44q-57 48 -57 128q0 68 41 195l174 537q39 120 39 192q0 172 -158 259q-126 69 -313 69q-168 0 -282 -58q-148 -74 -148 -225t161 -228q124 -59 294 -59q27 0 111 6l9 -6l2 -16l-6 -14q-62 -11 -149 -11q-247 0 -397 99.5
t-150 255.5q0 167 162 250q126 65 311 65q139 0 267 -32q170 -44 281 -127q144 -107 144 -255q0 -70 -67 -270l-160 -477q-29 -86 -29 -150q0 -50 44 -81q39 -27 91 -27q216 0 539 457q182 701 408 895l12 -1q6 -20 6 -40q0 -131 -77 -337q-70 -187 -183 -363
q-10 -13 -25 -38q-1 -3 -20 -78q-25 -107 -38 -180q-19 -103 -19 -168q0 -159 92 -159q117 0 483 505q8 -16 8 -26q0 -33 -117 -189q-262 -350 -415 -350q-164 0 -164 226q0 82 25 198zM2138 1128l10 41q150 85 150 154q0 36 -38 36q-10 0 -47 -12l-8 7q23 80 25 84
q19 36 70 36q88 0 88 -89q0 -130 -250 -257zM1993 1747h45q-44 -183 -170 -183q-39 0 -130.5 29t-127.5 29q-76 0 -95 -80h-47q47 176 168 176q46 0 133 -27.5t130 -27.5q73 0 94 84z" />
    <glyph glyph-name="glyph360" unicode="&#x1eef;" horiz-adv-x="922" 
d="M317 698q17 0 17 -14q0 -6 -4 -18l-162 -473q-18 -53 -18 -91q0 -41 38 -41q64 0 215 191q97 122 179 250q23 36 55 108q31 68 59 74q78 16 84 16q17 0 17 -16q0 -6 -4 -18l-160 -469q-19 -56 -19 -91q0 -45 41 -45q98 0 439 512q8 -16 8 -28q0 -60 -144 -247
q-124 -161 -197 -227q-97 -89 -163 -89q-109 0 -109 120q0 69 101 342q-310 -462 -465 -462q-105 0 -105 110q0 41 27 123l141 428q11 34 37 39q84 16 92 16zM727 473l10 41q150 85 150 154q0 36 -38 36q-10 0 -47 -12l-8 7q23 80 25 84q19 36 70 36q88 0 88 -89
q0 -130 -250 -257zM805 1012h45q-44 -183 -170 -183q-39 0 -130.5 29t-127.5 29q-76 0 -95 -80h-47q47 176 168 176q46 0 133 -27.5t130 -27.5q73 0 94 84z" />
    <glyph glyph-name="glyph361" unicode="&#x1ef0;" horiz-adv-x="2198" 
d="M1729 391q-310 -416 -594 -416q-82 0 -136 44q-57 48 -57 128q0 68 41 195l174 537q39 120 39 192q0 172 -158 259q-126 69 -313 69q-168 0 -282 -58q-148 -74 -148 -225t161 -228q124 -59 294 -59q27 0 111 6l9 -6l2 -16l-6 -14q-62 -11 -149 -11q-247 0 -397 99.5
t-150 255.5q0 167 162 250q126 65 311 65q139 0 267 -32q170 -44 281 -127q144 -107 144 -255q0 -70 -67 -270l-160 -477q-29 -86 -29 -150q0 -50 44 -81q39 -27 91 -27q216 0 539 457q182 701 408 895l12 -1q6 -20 6 -40q0 -131 -77 -337q-70 -187 -183 -363
q-10 -13 -25 -38q-1 -3 -20 -78q-25 -107 -38 -180q-19 -103 -19 -168q0 -159 92 -159q117 0 483 505q8 -16 8 -26q0 -33 -117 -189q-262 -350 -415 -350q-164 0 -164 226q0 82 25 198zM2138 1128l10 41q150 85 150 154q0 36 -38 36q-10 0 -47 -12l-8 7q23 80 25 84
q19 36 70 36q88 0 88 -89q0 -130 -250 -257zM1345 -322q-95 0 -95 37q0 108 31 108q1 0 34 -7q22 -4 66 -13q31 -6 31 -82q0 -43 -67 -43z" />
    <glyph glyph-name="glyph362" unicode="&#x1ef1;" horiz-adv-x="922" 
d="M317 698q17 0 17 -14q0 -6 -4 -18l-162 -473q-18 -53 -18 -91q0 -41 38 -41q64 0 215 191q97 122 179 250q23 36 55 108q31 68 59 74q78 16 84 16q17 0 17 -16q0 -6 -4 -18l-160 -469q-19 -56 -19 -91q0 -45 41 -45q98 0 439 512q8 -16 8 -28q0 -60 -144 -247
q-124 -161 -197 -227q-97 -89 -163 -89q-109 0 -109 120q0 69 101 342q-310 -462 -465 -462q-105 0 -105 110q0 41 27 123l141 428q11 34 37 39q84 16 92 16zM727 473l10 41q150 85 150 154q0 36 -38 36q-10 0 -47 -12l-8 7q23 80 25 84q19 36 70 36q88 0 88 -89
q0 -130 -250 -257zM264 -322q-95 0 -95 37q0 108 31 108q1 0 34 -7q22 -4 66 -13q31 -6 31 -82q0 -43 -67 -43z" />
    <glyph glyph-name="glyph363" unicode="&#x1ef2;" horiz-adv-x="2195" 
d="M1292 -589q-14 30 -14 75q0 182 205 330h16l12 -13l-2 -12q-125 -106 -125 -233q0 -45 11 -82q151 37 248 200.5t174 532.5l180 860q-159 -299 -284 -505q-132 -219 -225 -332q-181 -220 -337 -220q-97 0 -150 60q-51 57 -51 155q0 64 33 168l158 500q26 82 26 152
q0 158 -142 242q-116 69 -286 69q-181 0 -302.5 -81.5t-121.5 -195.5q0 -119 115 -183q94 -52 223 -52q90 0 178 28l17 -2l4 -20l-4 -14q-115 -45 -252 -45q-160 0 -271 64q-135 79 -135 228q0 176 191 259q140 61 342 61q261 0 423.5 -108t162.5 -273q0 -65 -45 -207
l-121 -381q-49 -154 -49 -235q0 -123 102 -123q197 0 535 598q204 360 296 562q26 56 53 62q97 21 105 21q19 0 19 -21q0 -4 -2 -13l-164 -726q-140 -620 -304 -869.5t-431 -287.5zM1713 1515h-56l-149 172q-29 33 -29 60q0 47 53 47q34 0 62 -53z" />
    <glyph glyph-name="glyph364" unicode="&#x1ef3;" horiz-adv-x="922" 
d="M254 -514q157 82 197 385q-211 -146 -211 -311q0 -32 14 -74zM557 -106q-101 -391 -381 -494l-12 2q-14 40 -14 86q0 222 304 442q16 111 124 473q-247 -403 -441 -403q-104 0 -104 119q0 41 26 121l134 412q8 26 40 30q78 10 84 10q5 0 10 -2q3 -5 3 -8t-4 -16
l-146 -468q-14 -45 -14 -85q0 -39 41 -39q88 0 242 215q109 152 183 301q17 35 28 52q24 40 38 42q84 10 88 10q15 0 15 -10q0 -8 -27 -80q-121 -323 -199 -641q205 168 515 585q6 -12 6 -26q0 -23 -20.5 -59t-102.5 -137q-149 -185 -242 -280t-174 -152zM610 780h-56
l-149 172q-29 33 -29 60q0 47 53 47q34 0 62 -53z" />
    <glyph glyph-name="glyph365" unicode="&#x1ef4;" horiz-adv-x="2195" 
d="M1292 -589q-14 30 -14 75q0 182 205 330h16l12 -13l-2 -12q-125 -106 -125 -233q0 -45 11 -82q151 37 248 200.5t174 532.5l180 860q-159 -299 -284 -505q-132 -219 -225 -332q-181 -220 -337 -220q-97 0 -150 60q-51 57 -51 155q0 64 33 168l158 500q26 82 26 152
q0 158 -142 242q-116 69 -286 69q-181 0 -302.5 -81.5t-121.5 -195.5q0 -119 115 -183q94 -52 223 -52q90 0 178 28l17 -2l4 -20l-4 -14q-115 -45 -252 -45q-160 0 -271 64q-135 79 -135 228q0 176 191 259q140 61 342 61q261 0 423.5 -108t162.5 -273q0 -65 -45 -207
l-121 -381q-49 -154 -49 -235q0 -123 102 -123q197 0 535 598q204 360 296 562q26 56 53 62q97 21 105 21q19 0 19 -21q0 -4 -2 -13l-164 -726q-140 -620 -304 -869.5t-431 -287.5zM1195 -322q-95 0 -95 37q0 108 31 108q1 0 34 -7q22 -4 66 -13q31 -6 31 -82q0 -43 -67 -43
z" />
    <glyph glyph-name="glyph366" unicode="&#x1ef5;" horiz-adv-x="922" 
d="M254 -514q157 82 197 385q-211 -146 -211 -311q0 -32 14 -74zM557 -106q-101 -391 -381 -494l-12 2q-14 40 -14 86q0 222 304 442q16 111 124 473q-247 -403 -441 -403q-104 0 -104 119q0 41 26 121l134 412q8 26 40 30q78 10 84 10q5 0 10 -2q3 -5 3 -8t-4 -16
l-146 -468q-14 -45 -14 -85q0 -39 41 -39q88 0 242 215q109 152 183 301q17 35 28 52q24 40 38 42q84 10 88 10q15 0 15 -10q0 -8 -27 -80q-121 -323 -199 -641q205 168 515 585q6 -12 6 -26q0 -23 -20.5 -59t-102.5 -137q-149 -185 -242 -280t-174 -152zM85 -322
q-95 0 -95 37q0 108 31 108q1 0 34 -7q22 -4 66 -13q31 -6 31 -82q0 -43 -67 -43z" />
    <glyph glyph-name="glyph367" unicode="&#x1ef6;" horiz-adv-x="2195" 
d="M1292 -589q-14 30 -14 75q0 182 205 330h16l12 -13l-2 -12q-125 -106 -125 -233q0 -45 11 -82q151 37 248 200.5t174 532.5l180 860q-159 -299 -284 -505q-132 -219 -225 -332q-181 -220 -337 -220q-97 0 -150 60q-51 57 -51 155q0 64 33 168l158 500q26 82 26 152
q0 158 -142 242q-116 69 -286 69q-181 0 -302.5 -81.5t-121.5 -195.5q0 -119 115 -183q94 -52 223 -52q90 0 178 28l17 -2l4 -20l-4 -14q-115 -45 -252 -45q-160 0 -271 64q-135 79 -135 228q0 176 191 259q140 61 342 61q261 0 423.5 -108t162.5 -273q0 -65 -45 -207
l-121 -381q-49 -154 -49 -235q0 -123 102 -123q197 0 535 598q204 360 296 562q26 56 53 62q97 21 105 21q19 0 19 -21q0 -4 -2 -13l-164 -726q-140 -620 -304 -869.5t-431 -287.5zM1682 1484l-10 -2l-12 2v4q0 12 32 75q64 123 64 172q0 50 -29 50q-51 0 -73 -94l-2 -2
l-17 1l-1 2q5 50 33 93q34 53 81 53q96 0 96 -97q0 -33 -35 -81l-52 -66q-30 -37 -75 -110z" />
    </font>
</defs>
</svg>
